<?xml version="1.0" encoding="utf-8"?>
<svg xmlns="http://www.w3.org/2000/svg" xmlns:xlink="http://www.w3.org/1999/xlink" width="600" height="400" viewBox="0 0 2400 1600">
<defs>
  <clipPath id="clip480">
    <rect x="0" y="0" width="2400" height="1600"/>
  </clipPath>
</defs>
<path clip-path="url(#clip480)" d="
M0 1600 L2400 1600 L2400 0 L0 0  Z
  " fill="#ffffff" fill-rule="evenodd" fill-opacity="1"/>
<defs>
  <clipPath id="clip481">
    <rect x="480" y="0" width="1681" height="1600"/>
  </clipPath>
</defs>
<path clip-path="url(#clip480)" d="
M166.205 1486.45 L2352.76 1486.45 L2352.76 47.2441 L166.205 47.2441  Z
  " fill="#ffffff" fill-rule="evenodd" fill-opacity="1"/>
<defs>
  <clipPath id="clip482">
    <rect x="166" y="47" width="2188" height="1440"/>
  </clipPath>
</defs>
<polyline clip-path="url(#clip482)" style="stroke:#000000; stroke-width:2; stroke-opacity:0.1; fill:none" points="
  217.722,1486.45 217.722,47.2441 
  "/>
<polyline clip-path="url(#clip482)" style="stroke:#000000; stroke-width:2; stroke-opacity:0.1; fill:none" points="
  736.01,1486.45 736.01,47.2441 
  "/>
<polyline clip-path="url(#clip482)" style="stroke:#000000; stroke-width:2; stroke-opacity:0.1; fill:none" points="
  1254.3,1486.45 1254.3,47.2441 
  "/>
<polyline clip-path="url(#clip482)" style="stroke:#000000; stroke-width:2; stroke-opacity:0.1; fill:none" points="
  1772.58,1486.45 1772.58,47.2441 
  "/>
<polyline clip-path="url(#clip482)" style="stroke:#000000; stroke-width:2; stroke-opacity:0.1; fill:none" points="
  2290.87,1486.45 2290.87,47.2441 
  "/>
<polyline clip-path="url(#clip482)" style="stroke:#000000; stroke-width:2; stroke-opacity:0.1; fill:none" points="
  166.205,1442.35 2352.76,1442.35 
  "/>
<polyline clip-path="url(#clip482)" style="stroke:#000000; stroke-width:2; stroke-opacity:0.1; fill:none" points="
  166.205,1110.53 2352.76,1110.53 
  "/>
<polyline clip-path="url(#clip482)" style="stroke:#000000; stroke-width:2; stroke-opacity:0.1; fill:none" points="
  166.205,778.713 2352.76,778.713 
  "/>
<polyline clip-path="url(#clip482)" style="stroke:#000000; stroke-width:2; stroke-opacity:0.1; fill:none" points="
  166.205,446.893 2352.76,446.893 
  "/>
<polyline clip-path="url(#clip482)" style="stroke:#000000; stroke-width:2; stroke-opacity:0.1; fill:none" points="
  166.205,115.072 2352.76,115.072 
  "/>
<polyline clip-path="url(#clip480)" style="stroke:#000000; stroke-width:4; stroke-opacity:1; fill:none" points="
  166.205,1486.45 2352.76,1486.45 
  "/>
<polyline clip-path="url(#clip480)" style="stroke:#000000; stroke-width:4; stroke-opacity:1; fill:none" points="
  166.205,1486.45 166.205,47.2441 
  "/>
<polyline clip-path="url(#clip480)" style="stroke:#000000; stroke-width:4; stroke-opacity:1; fill:none" points="
  217.722,1486.45 217.722,1469.18 
  "/>
<polyline clip-path="url(#clip480)" style="stroke:#000000; stroke-width:4; stroke-opacity:1; fill:none" points="
  736.01,1486.45 736.01,1469.18 
  "/>
<polyline clip-path="url(#clip480)" style="stroke:#000000; stroke-width:4; stroke-opacity:1; fill:none" points="
  1254.3,1486.45 1254.3,1469.18 
  "/>
<polyline clip-path="url(#clip480)" style="stroke:#000000; stroke-width:4; stroke-opacity:1; fill:none" points="
  1772.58,1486.45 1772.58,1469.18 
  "/>
<polyline clip-path="url(#clip480)" style="stroke:#000000; stroke-width:4; stroke-opacity:1; fill:none" points="
  2290.87,1486.45 2290.87,1469.18 
  "/>
<polyline clip-path="url(#clip480)" style="stroke:#000000; stroke-width:4; stroke-opacity:1; fill:none" points="
  166.205,1442.35 192.443,1442.35 
  "/>
<polyline clip-path="url(#clip480)" style="stroke:#000000; stroke-width:4; stroke-opacity:1; fill:none" points="
  166.205,1110.53 192.443,1110.53 
  "/>
<polyline clip-path="url(#clip480)" style="stroke:#000000; stroke-width:4; stroke-opacity:1; fill:none" points="
  166.205,778.713 192.443,778.713 
  "/>
<polyline clip-path="url(#clip480)" style="stroke:#000000; stroke-width:4; stroke-opacity:1; fill:none" points="
  166.205,446.893 192.443,446.893 
  "/>
<polyline clip-path="url(#clip480)" style="stroke:#000000; stroke-width:4; stroke-opacity:1; fill:none" points="
  166.205,115.072 192.443,115.072 
  "/>
<path clip-path="url(#clip480)" d="M 0 0 M217.722 1508.44 Q214.111 1508.44 212.283 1512 Q210.477 1515.55 210.477 1522.67 Q210.477 1529.78 212.283 1533.35 Q214.111 1536.89 217.722 1536.89 Q221.357 1536.89 223.162 1533.35 Q224.991 1529.78 224.991 1522.67 Q224.991 1515.55 223.162 1512 Q221.357 1508.44 217.722 1508.44 M217.722 1504.73 Q223.533 1504.73 226.588 1509.34 Q229.667 1513.92 229.667 1522.67 Q229.667 1531.4 226.588 1536.01 Q223.533 1540.59 217.722 1540.59 Q211.912 1540.59 208.834 1536.01 Q205.778 1531.4 205.778 1522.67 Q205.778 1513.92 208.834 1509.34 Q211.912 1504.73 217.722 1504.73 Z" fill="#000000" fill-rule="evenodd" fill-opacity="1" /><path clip-path="url(#clip480)" d="M 0 0 M712.781 1505.36 L731.137 1505.36 L731.137 1509.3 L717.063 1509.3 L717.063 1517.77 Q718.082 1517.42 719.1 1517.26 Q720.119 1517.07 721.137 1517.07 Q726.924 1517.07 730.304 1520.24 Q733.684 1523.42 733.684 1528.83 Q733.684 1534.41 730.211 1537.51 Q726.739 1540.59 720.42 1540.59 Q718.244 1540.59 715.975 1540.22 Q713.73 1539.85 711.323 1539.11 L711.323 1534.41 Q713.406 1535.54 715.628 1536.1 Q717.85 1536.66 720.327 1536.66 Q724.332 1536.66 726.67 1534.55 Q729.008 1532.44 729.008 1528.83 Q729.008 1525.22 726.67 1523.11 Q724.332 1521.01 720.327 1521.01 Q718.452 1521.01 716.577 1521.42 Q714.725 1521.84 712.781 1522.72 L712.781 1505.36 Z" fill="#000000" fill-rule="evenodd" fill-opacity="1" /><path clip-path="url(#clip480)" d="M 0 0 M748.753 1508.44 Q745.142 1508.44 743.313 1512 Q741.508 1515.55 741.508 1522.67 Q741.508 1529.78 743.313 1533.35 Q745.142 1536.89 748.753 1536.89 Q752.387 1536.89 754.193 1533.35 Q756.021 1529.78 756.021 1522.67 Q756.021 1515.55 754.193 1512 Q752.387 1508.44 748.753 1508.44 M748.753 1504.73 Q754.563 1504.73 757.619 1509.34 Q760.697 1513.92 760.697 1522.67 Q760.697 1531.4 757.619 1536.01 Q754.563 1540.59 748.753 1540.59 Q742.943 1540.59 739.864 1536.01 Q736.809 1531.4 736.809 1522.67 Q736.809 1513.92 739.864 1509.34 Q742.943 1504.73 748.753 1504.73 Z" fill="#000000" fill-rule="evenodd" fill-opacity="1" /><path clip-path="url(#clip480)" d="M 0 0 M1217.67 1535.98 L1225.3 1535.98 L1225.3 1509.62 L1216.99 1511.29 L1216.99 1507.03 L1225.26 1505.36 L1229.93 1505.36 L1229.93 1535.98 L1237.57 1535.98 L1237.57 1539.92 L1217.67 1539.92 L1217.67 1535.98 Z" fill="#000000" fill-rule="evenodd" fill-opacity="1" /><path clip-path="url(#clip480)" d="M 0 0 M1252.64 1508.44 Q1249.03 1508.44 1247.2 1512 Q1245.4 1515.55 1245.4 1522.67 Q1245.4 1529.78 1247.2 1533.35 Q1249.03 1536.89 1252.64 1536.89 Q1256.28 1536.89 1258.08 1533.35 Q1259.91 1529.78 1259.91 1522.67 Q1259.91 1515.55 1258.08 1512 Q1256.28 1508.44 1252.64 1508.44 M1252.64 1504.73 Q1258.45 1504.73 1261.51 1509.34 Q1264.59 1513.92 1264.59 1522.67 Q1264.59 1531.4 1261.51 1536.01 Q1258.45 1540.59 1252.64 1540.59 Q1246.83 1540.59 1243.75 1536.01 Q1240.7 1531.4 1240.7 1522.67 Q1240.7 1513.92 1243.75 1509.34 Q1246.83 1504.73 1252.64 1504.73 Z" fill="#000000" fill-rule="evenodd" fill-opacity="1" /><path clip-path="url(#clip480)" d="M 0 0 M1279.66 1508.44 Q1276.04 1508.44 1274.22 1512 Q1272.41 1515.55 1272.41 1522.67 Q1272.41 1529.78 1274.22 1533.35 Q1276.04 1536.89 1279.66 1536.89 Q1283.29 1536.89 1285.1 1533.35 Q1286.92 1529.78 1286.92 1522.67 Q1286.92 1515.55 1285.1 1512 Q1283.29 1508.44 1279.66 1508.44 M1279.66 1504.73 Q1285.47 1504.73 1288.52 1509.34 Q1291.6 1513.92 1291.6 1522.67 Q1291.6 1531.4 1288.52 1536.01 Q1285.47 1540.59 1279.66 1540.59 Q1273.85 1540.59 1270.77 1536.01 Q1267.71 1531.4 1267.71 1522.67 Q1267.71 1513.92 1270.77 1509.34 Q1273.85 1504.73 1279.66 1504.73 Z" fill="#000000" fill-rule="evenodd" fill-opacity="1" /><path clip-path="url(#clip480)" d="M 0 0 M1736.45 1535.98 L1744.09 1535.98 L1744.09 1509.62 L1735.78 1511.29 L1735.78 1507.03 L1744.04 1505.36 L1748.72 1505.36 L1748.72 1535.98 L1756.36 1535.98 L1756.36 1539.92 L1736.45 1539.92 L1736.45 1535.98 Z" fill="#000000" fill-rule="evenodd" fill-opacity="1" /><path clip-path="url(#clip480)" d="M 0 0 M1761.47 1505.36 L1779.83 1505.36 L1779.83 1509.3 L1765.76 1509.3 L1765.76 1517.77 Q1766.77 1517.42 1767.79 1517.26 Q1768.81 1517.07 1769.83 1517.07 Q1775.62 1517.07 1779 1520.24 Q1782.38 1523.42 1782.38 1528.83 Q1782.38 1534.41 1778.9 1537.51 Q1775.43 1540.59 1769.11 1540.59 Q1766.94 1540.59 1764.67 1540.22 Q1762.42 1539.85 1760.02 1539.11 L1760.02 1534.41 Q1762.1 1535.54 1764.32 1536.1 Q1766.54 1536.66 1769.02 1536.66 Q1773.02 1536.66 1775.36 1534.55 Q1777.7 1532.44 1777.7 1528.83 Q1777.7 1525.22 1775.36 1523.11 Q1773.02 1521.01 1769.02 1521.01 Q1767.15 1521.01 1765.27 1521.42 Q1763.42 1521.84 1761.47 1522.72 L1761.47 1505.36 Z" fill="#000000" fill-rule="evenodd" fill-opacity="1" /><path clip-path="url(#clip480)" d="M 0 0 M1797.45 1508.44 Q1793.83 1508.44 1792.01 1512 Q1790.2 1515.55 1790.2 1522.67 Q1790.2 1529.78 1792.01 1533.35 Q1793.83 1536.89 1797.45 1536.89 Q1801.08 1536.89 1802.89 1533.35 Q1804.71 1529.78 1804.71 1522.67 Q1804.71 1515.55 1802.89 1512 Q1801.08 1508.44 1797.45 1508.44 M1797.45 1504.73 Q1803.26 1504.73 1806.31 1509.34 Q1809.39 1513.92 1809.39 1522.67 Q1809.39 1531.4 1806.31 1536.01 Q1803.26 1540.59 1797.45 1540.59 Q1791.64 1540.59 1788.56 1536.01 Q1785.5 1531.4 1785.5 1522.67 Q1785.5 1513.92 1788.56 1509.34 Q1791.64 1504.73 1797.45 1504.73 Z" fill="#000000" fill-rule="evenodd" fill-opacity="1" /><path clip-path="url(#clip480)" d="M 0 0 M2258.51 1535.98 L2274.83 1535.98 L2274.83 1539.92 L2252.89 1539.92 L2252.89 1535.98 Q2255.55 1533.23 2260.13 1528.6 Q2264.74 1523.95 2265.92 1522.61 Q2268.16 1520.08 2269.04 1518.35 Q2269.95 1516.59 2269.95 1514.9 Q2269.95 1512.14 2268 1510.41 Q2266.08 1508.67 2262.98 1508.67 Q2260.78 1508.67 2258.33 1509.43 Q2255.9 1510.2 2253.12 1511.75 L2253.12 1507.03 Q2255.94 1505.89 2258.4 1505.31 Q2260.85 1504.73 2262.89 1504.73 Q2268.26 1504.73 2271.45 1507.42 Q2274.65 1510.11 2274.65 1514.6 Q2274.65 1516.73 2273.84 1518.65 Q2273.05 1520.54 2270.94 1523.14 Q2270.36 1523.81 2267.26 1527.03 Q2264.16 1530.22 2258.51 1535.98 Z" fill="#000000" fill-rule="evenodd" fill-opacity="1" /><path clip-path="url(#clip480)" d="M 0 0 M2289.9 1508.44 Q2286.29 1508.44 2284.46 1512 Q2282.65 1515.55 2282.65 1522.67 Q2282.65 1529.78 2284.46 1533.35 Q2286.29 1536.89 2289.9 1536.89 Q2293.53 1536.89 2295.34 1533.35 Q2297.17 1529.78 2297.17 1522.67 Q2297.17 1515.55 2295.34 1512 Q2293.53 1508.44 2289.9 1508.44 M2289.9 1504.73 Q2295.71 1504.73 2298.77 1509.34 Q2301.84 1513.92 2301.84 1522.67 Q2301.84 1531.4 2298.77 1536.01 Q2295.71 1540.59 2289.9 1540.59 Q2284.09 1540.59 2281.01 1536.01 Q2277.96 1531.4 2277.96 1522.67 Q2277.96 1513.92 2281.01 1509.34 Q2284.09 1504.73 2289.9 1504.73 Z" fill="#000000" fill-rule="evenodd" fill-opacity="1" /><path clip-path="url(#clip480)" d="M 0 0 M2316.91 1508.44 Q2313.3 1508.44 2311.47 1512 Q2309.67 1515.55 2309.67 1522.67 Q2309.67 1529.78 2311.47 1533.35 Q2313.3 1536.89 2316.91 1536.89 Q2320.55 1536.89 2322.35 1533.35 Q2324.18 1529.78 2324.18 1522.67 Q2324.18 1515.55 2322.35 1512 Q2320.55 1508.44 2316.91 1508.44 M2316.91 1504.73 Q2322.72 1504.73 2325.78 1509.34 Q2328.86 1513.92 2328.86 1522.67 Q2328.86 1531.4 2325.78 1536.01 Q2322.72 1540.59 2316.91 1540.59 Q2311.1 1540.59 2308.03 1536.01 Q2304.97 1531.4 2304.97 1522.67 Q2304.97 1513.92 2308.03 1509.34 Q2311.1 1504.73 2316.91 1504.73 Z" fill="#000000" fill-rule="evenodd" fill-opacity="1" /><path clip-path="url(#clip480)" d="M 0 0 M130.26 1428.15 Q126.649 1428.15 124.82 1431.72 Q123.015 1435.26 123.015 1442.39 Q123.015 1449.5 124.82 1453.06 Q126.649 1456.6 130.26 1456.6 Q133.895 1456.6 135.7 1453.06 Q137.529 1449.5 137.529 1442.39 Q137.529 1435.26 135.7 1431.72 Q133.895 1428.15 130.26 1428.15 M130.26 1424.45 Q136.07 1424.45 139.126 1429.06 Q142.205 1433.64 142.205 1442.39 Q142.205 1451.12 139.126 1455.72 Q136.07 1460.31 130.26 1460.31 Q124.45 1460.31 121.371 1455.72 Q118.316 1451.12 118.316 1442.39 Q118.316 1433.64 121.371 1429.06 Q124.45 1424.45 130.26 1424.45 Z" fill="#000000" fill-rule="evenodd" fill-opacity="1" /><path clip-path="url(#clip480)" d="M 0 0 M68.2699 1123.88 L75.9087 1123.88 L75.9087 1097.51 L67.5986 1099.18 L67.5986 1094.92 L75.8624 1093.25 L80.5383 1093.25 L80.5383 1123.88 L88.1772 1123.88 L88.1772 1127.81 L68.2699 1127.81 L68.2699 1123.88 Z" fill="#000000" fill-rule="evenodd" fill-opacity="1" /><path clip-path="url(#clip480)" d="M 0 0 M103.247 1096.33 Q99.6354 1096.33 97.8068 1099.9 Q96.0012 1103.44 96.0012 1110.57 Q96.0012 1117.67 97.8068 1121.24 Q99.6354 1124.78 103.247 1124.78 Q106.881 1124.78 108.686 1121.24 Q110.515 1117.67 110.515 1110.57 Q110.515 1103.44 108.686 1099.9 Q106.881 1096.33 103.247 1096.33 M103.247 1092.63 Q109.057 1092.63 112.112 1097.24 Q115.191 1101.82 115.191 1110.57 Q115.191 1119.3 112.112 1123.9 Q109.057 1128.48 103.247 1128.48 Q97.4364 1128.48 94.3577 1123.9 Q91.3022 1119.3 91.3022 1110.57 Q91.3022 1101.82 94.3577 1097.24 Q97.4364 1092.63 103.247 1092.63 Z" fill="#000000" fill-rule="evenodd" fill-opacity="1" /><path clip-path="url(#clip480)" d="M 0 0 M130.26 1096.33 Q126.649 1096.33 124.82 1099.9 Q123.015 1103.44 123.015 1110.57 Q123.015 1117.67 124.82 1121.24 Q126.649 1124.78 130.26 1124.78 Q133.895 1124.78 135.7 1121.24 Q137.529 1117.67 137.529 1110.57 Q137.529 1103.44 135.7 1099.9 Q133.895 1096.33 130.26 1096.33 M130.26 1092.63 Q136.07 1092.63 139.126 1097.24 Q142.205 1101.82 142.205 1110.57 Q142.205 1119.3 139.126 1123.9 Q136.07 1128.48 130.26 1128.48 Q124.45 1128.48 121.371 1123.9 Q118.316 1119.3 118.316 1110.57 Q118.316 1101.82 121.371 1097.24 Q124.45 1092.63 130.26 1092.63 Z" fill="#000000" fill-rule="evenodd" fill-opacity="1" /><path clip-path="url(#clip480)" d="M 0 0 M71.8578 792.058 L88.1772 792.058 L88.1772 795.993 L66.2328 795.993 L66.2328 792.058 Q68.8949 789.303 73.4782 784.674 Q78.0846 780.021 79.2652 778.678 Q81.5105 776.155 82.3902 774.419 Q83.2929 772.66 83.2929 770.97 Q83.2929 768.215 81.3485 766.479 Q79.4272 764.743 76.3254 764.743 Q74.1263 764.743 71.6726 765.507 Q69.2421 766.271 66.4643 767.822 L66.4643 763.1 Q69.2884 761.966 71.7421 761.387 Q74.1958 760.808 76.2328 760.808 Q81.6031 760.808 84.7976 763.493 Q87.992 766.178 87.992 770.669 Q87.992 772.799 87.1818 774.72 Q86.3948 776.618 84.2883 779.211 Q83.7096 779.882 80.6078 783.1 Q77.5059 786.294 71.8578 792.058 Z" fill="#000000" fill-rule="evenodd" fill-opacity="1" /><path clip-path="url(#clip480)" d="M 0 0 M103.247 764.512 Q99.6354 764.512 97.8068 768.077 Q96.0012 771.618 96.0012 778.748 Q96.0012 785.854 97.8068 789.419 Q99.6354 792.961 103.247 792.961 Q106.881 792.961 108.686 789.419 Q110.515 785.854 110.515 778.748 Q110.515 771.618 108.686 768.077 Q106.881 764.512 103.247 764.512 M103.247 760.808 Q109.057 760.808 112.112 765.415 Q115.191 769.998 115.191 778.748 Q115.191 787.475 112.112 792.081 Q109.057 796.664 103.247 796.664 Q97.4364 796.664 94.3577 792.081 Q91.3022 787.475 91.3022 778.748 Q91.3022 769.998 94.3577 765.415 Q97.4364 760.808 103.247 760.808 Z" fill="#000000" fill-rule="evenodd" fill-opacity="1" /><path clip-path="url(#clip480)" d="M 0 0 M130.26 764.512 Q126.649 764.512 124.82 768.077 Q123.015 771.618 123.015 778.748 Q123.015 785.854 124.82 789.419 Q126.649 792.961 130.26 792.961 Q133.895 792.961 135.7 789.419 Q137.529 785.854 137.529 778.748 Q137.529 771.618 135.7 768.077 Q133.895 764.512 130.26 764.512 M130.26 760.808 Q136.07 760.808 139.126 765.415 Q142.205 769.998 142.205 778.748 Q142.205 787.475 139.126 792.081 Q136.07 796.664 130.26 796.664 Q124.45 796.664 121.371 792.081 Q118.316 787.475 118.316 778.748 Q118.316 769.998 121.371 765.415 Q124.45 760.808 130.26 760.808 Z" fill="#000000" fill-rule="evenodd" fill-opacity="1" /><path clip-path="url(#clip480)" d="M 0 0 M81.0476 445.538 Q84.404 446.256 86.279 448.525 Q88.1772 450.793 88.1772 454.126 Q88.1772 459.242 84.6587 462.043 Q81.1402 464.844 74.6587 464.844 Q72.4828 464.844 70.168 464.404 Q67.8764 463.987 65.4227 463.131 L65.4227 458.617 Q67.3671 459.751 69.6819 460.33 Q71.9967 460.909 74.5198 460.909 Q78.918 460.909 81.2096 459.173 Q83.5244 457.437 83.5244 454.126 Q83.5244 451.071 81.3717 449.358 Q79.242 447.622 75.4226 447.622 L71.3949 447.622 L71.3949 443.779 L75.6078 443.779 Q79.0569 443.779 80.8855 442.414 Q82.7142 441.025 82.7142 438.432 Q82.7142 435.77 80.8161 434.358 Q78.9411 432.923 75.4226 432.923 Q73.5013 432.923 71.3023 433.339 Q69.1032 433.756 66.4643 434.636 L66.4643 430.469 Q69.1264 429.728 71.4412 429.358 Q73.7791 428.988 75.8393 428.988 Q81.1633 428.988 84.2652 431.418 Q87.367 433.826 87.367 437.946 Q87.367 440.816 85.7235 442.807 Q84.08 444.775 81.0476 445.538 Z" fill="#000000" fill-rule="evenodd" fill-opacity="1" /><path clip-path="url(#clip480)" d="M 0 0 M103.247 432.691 Q99.6354 432.691 97.8068 436.256 Q96.0012 439.798 96.0012 446.927 Q96.0012 454.034 97.8068 457.599 Q99.6354 461.14 103.247 461.14 Q106.881 461.14 108.686 457.599 Q110.515 454.034 110.515 446.927 Q110.515 439.798 108.686 436.256 Q106.881 432.691 103.247 432.691 M103.247 428.988 Q109.057 428.988 112.112 433.594 Q115.191 438.177 115.191 446.927 Q115.191 455.654 112.112 460.261 Q109.057 464.844 103.247 464.844 Q97.4364 464.844 94.3577 460.261 Q91.3022 455.654 91.3022 446.927 Q91.3022 438.177 94.3577 433.594 Q97.4364 428.988 103.247 428.988 Z" fill="#000000" fill-rule="evenodd" fill-opacity="1" /><path clip-path="url(#clip480)" d="M 0 0 M130.26 432.691 Q126.649 432.691 124.82 436.256 Q123.015 439.798 123.015 446.927 Q123.015 454.034 124.82 457.599 Q126.649 461.14 130.26 461.14 Q133.895 461.14 135.7 457.599 Q137.529 454.034 137.529 446.927 Q137.529 439.798 135.7 436.256 Q133.895 432.691 130.26 432.691 M130.26 428.988 Q136.07 428.988 139.126 433.594 Q142.205 438.177 142.205 446.927 Q142.205 455.654 139.126 460.261 Q136.07 464.844 130.26 464.844 Q124.45 464.844 121.371 460.261 Q118.316 455.654 118.316 446.927 Q118.316 438.177 121.371 433.594 Q124.45 428.988 130.26 428.988 Z" fill="#000000" fill-rule="evenodd" fill-opacity="1" /><path clip-path="url(#clip480)" d="M 0 0 M78.5939 101.866 L66.7884 120.315 L78.5939 120.315 L78.5939 101.866 M77.367 97.7922 L83.2466 97.7922 L83.2466 120.315 L88.1772 120.315 L88.1772 124.204 L83.2466 124.204 L83.2466 132.352 L78.5939 132.352 L78.5939 124.204 L62.9921 124.204 L62.9921 119.69 L77.367 97.7922 Z" fill="#000000" fill-rule="evenodd" fill-opacity="1" /><path clip-path="url(#clip480)" d="M 0 0 M103.247 100.871 Q99.6354 100.871 97.8068 104.436 Q96.0012 107.977 96.0012 115.107 Q96.0012 122.213 97.8068 125.778 Q99.6354 129.32 103.247 129.32 Q106.881 129.32 108.686 125.778 Q110.515 122.213 110.515 115.107 Q110.515 107.977 108.686 104.436 Q106.881 100.871 103.247 100.871 M103.247 97.1672 Q109.057 97.1672 112.112 101.774 Q115.191 106.357 115.191 115.107 Q115.191 123.834 112.112 128.44 Q109.057 133.023 103.247 133.023 Q97.4364 133.023 94.3577 128.44 Q91.3022 123.834 91.3022 115.107 Q91.3022 106.357 94.3577 101.774 Q97.4364 97.1672 103.247 97.1672 Z" fill="#000000" fill-rule="evenodd" fill-opacity="1" /><path clip-path="url(#clip480)" d="M 0 0 M130.26 100.871 Q126.649 100.871 124.82 104.436 Q123.015 107.977 123.015 115.107 Q123.015 122.213 124.82 125.778 Q126.649 129.32 130.26 129.32 Q133.895 129.32 135.7 125.778 Q137.529 122.213 137.529 115.107 Q137.529 107.977 135.7 104.436 Q133.895 100.871 130.26 100.871 M130.26 97.1672 Q136.07 97.1672 139.126 101.774 Q142.205 106.357 142.205 115.107 Q142.205 123.834 139.126 128.44 Q136.07 133.023 130.26 133.023 Q124.45 133.023 121.371 128.44 Q118.316 123.834 118.316 115.107 Q118.316 106.357 121.371 101.774 Q124.45 97.1672 130.26 97.1672 Z" fill="#000000" fill-rule="evenodd" fill-opacity="1" /><polyline clip-path="url(#clip482)" style="stroke:#009af9; stroke-width:4; stroke-opacity:1; fill:none" points="
  228.088,1442.35 238.454,1445.72 248.82,1445.65 259.185,1422.03 269.551,1427.41 279.917,1411 290.283,1416.25 300.648,1418.07 311.014,1425.31 321.38,1428.65 
  331.746,1409.87 342.111,1398.24 352.477,1384.24 362.843,1387.24 373.209,1375.3 383.574,1372.4 393.94,1344.91 404.306,1327.19 414.672,1312.28 425.037,1278.54 
  435.403,1278.94 445.769,1282.07 456.135,1268.06 466.5,1266.34 476.866,1256.78 487.232,1234.63 497.598,1249.63 507.963,1245.42 518.329,1228.89 528.695,1241.74 
  539.061,1248.84 549.426,1234.52 559.792,1231.67 570.158,1220.78 580.524,1211 590.889,1169.65 601.255,1168 611.621,1152.74 621.987,1145.11 632.352,1150.25 
  642.718,1145.37 653.084,1147.77 663.45,1131.07 673.815,1139.64 684.181,1148.25 694.547,1135.19 704.913,1121.04 715.278,1117.59 725.644,1120.7 736.01,1110.87 
  746.376,1093.46 756.741,1110.56 767.107,1099.05 777.473,1098.34 787.839,1109.49 798.204,1099.95 808.57,1059.95 818.936,1049.2 829.302,1032.41 839.667,998.486 
  850.033,979.884 860.399,957.046 870.765,961.641 881.13,943.42 891.496,946.732 901.862,927.461 912.228,939.134 922.593,925.688 932.959,909.9 943.325,917.268 
  953.691,908.324 964.056,906.219 974.422,918.99 984.788,919.181 995.154,951.312 1005.52,933.519 1015.89,960.555 1026.25,975.318 1036.62,960.404 1046.98,948.137 
  1057.35,960.664 1067.71,953.959 1078.08,945.693 1088.45,916.702 1098.81,927.676 1109.18,927.132 1119.54,926.945 1129.91,904.941 1140.27,885.211 1150.64,877.109 
  1161.01,864.853 1171.37,837.327 1181.74,837.924 1192.1,825.252 1202.47,825.34 1212.83,799.895 1223.2,780.278 1233.57,811.222 1243.93,813.438 1254.3,798.666 
  1264.66,781.044 1275.03,764.828 1285.39,755.221 1295.76,744.029 1306.13,715.205 1316.49,704.109 1326.86,674.679 1337.22,676.348 1347.59,685.089 1357.95,679.399 
  1368.32,686.385 1378.69,674.797 1389.05,671.867 1399.42,649.149 1409.78,637.178 1420.15,634.415 1430.52,625.291 1440.88,601.691 1451.25,599.472 1461.61,576.917 
  1471.98,584.454 1482.34,585.808 1492.71,583.538 1503.08,586.33 1513.44,577.486 1523.81,575.631 1534.17,557.237 1544.54,554.997 1554.9,565.336 1565.27,585.676 
  1575.64,565.16 1586,558.442 1596.37,558.093 1606.73,561.815 1617.1,564.261 1627.46,539.991 1637.83,521.781 1648.2,515.827 1658.56,519.025 1668.93,504.788 
  1679.29,485.051 1689.66,484.333 1700.02,454.948 1710.39,445.402 1720.76,439.145 1731.12,442.217 1741.49,409.296 1751.85,398.31 1762.22,376.989 1772.58,372.874 
  1782.95,341.201 1793.32,336.314 1803.68,315.806 1814.05,318.279 1824.41,314.34 1834.78,319.295 1845.15,325.418 1855.51,321.656 1865.88,292.744 1876.24,310.789 
  1886.61,297.713 1896.97,321.092 1907.34,293.148 1917.71,275.977 1928.07,270.242 1938.44,240.814 1948.8,230.879 1959.17,243.47 1969.53,215.23 1979.9,219.024 
  1990.27,224.984 2000.63,196.588 2011,196.742 2021.36,201.962 2031.73,196.954 2042.09,164.086 2052.46,160.128 2062.83,145.516 2073.19,121.495 2083.56,119.542 
  2093.92,114.079 2104.29,119.791 2114.65,102.846 2125.02,102.117 2135.39,98.0357 2145.75,87.9763 2156.12,104.753 2166.48,114.455 2176.85,133.795 2187.21,132.618 
  2197.58,127.082 2207.95,115.72 2218.31,102.04 2228.68,110.206 2239.04,132.334 2249.41,126.804 2259.78,118.801 2270.14,118.167 2280.51,129.089 2290.87,124.997 
  
  "/>
<path clip-path="url(#clip480)" d="
M1989.74 251.724 L2280.76 251.724 L2280.76 130.764 L1989.74 130.764  Z
  " fill="#ffffff" fill-rule="evenodd" fill-opacity="1"/>
<polyline clip-path="url(#clip480)" style="stroke:#000000; stroke-width:4; stroke-opacity:1; fill:none" points="
  1989.74,251.724 2280.76,251.724 2280.76,130.764 1989.74,130.764 1989.74,251.724 
  "/>
<polyline clip-path="url(#clip480)" style="stroke:#009af9; stroke-width:4; stroke-opacity:1; fill:none" points="
  2013.74,191.244 2157.74,191.244 
  "/>
<path clip-path="url(#clip480)" d="M 0 0 M2195.58 210.931 Q2193.77 215.561 2192.06 216.973 Q2190.35 218.385 2187.48 218.385 L2184.08 218.385 L2184.08 214.82 L2186.58 214.82 Q2188.33 214.82 2189.31 213.987 Q2190.28 213.154 2191.46 210.052 L2192.22 208.107 L2181.74 182.598 L2186.25 182.598 L2194.35 202.876 L2202.46 182.598 L2206.97 182.598 L2195.58 210.931 Z" fill="#000000" fill-rule="evenodd" fill-opacity="1" /><path clip-path="url(#clip480)" d="M 0 0 M2212.85 204.589 L2220.49 204.589 L2220.49 178.223 L2212.18 179.89 L2212.18 175.631 L2220.44 173.964 L2225.12 173.964 L2225.12 204.589 L2232.76 204.589 L2232.76 208.524 L2212.85 208.524 L2212.85 204.589 Z" fill="#000000" fill-rule="evenodd" fill-opacity="1" /></svg>
