<?xml version="1.0" encoding="utf-8"?>
<svg xmlns="http://www.w3.org/2000/svg" xmlns:xlink="http://www.w3.org/1999/xlink" width="600" height="400" viewBox="0 0 2400 1600">
<defs>
  <clipPath id="clip910">
    <rect x="0" y="0" width="2400" height="1600"/>
  </clipPath>
</defs>
<path clip-path="url(#clip910)" d="
M0 1600 L2400 1600 L2400 0 L0 0  Z
  " fill="#ffffff" fill-rule="evenodd" fill-opacity="1"/>
<defs>
  <clipPath id="clip911">
    <rect x="480" y="0" width="1681" height="1600"/>
  </clipPath>
</defs>
<path clip-path="url(#clip910)" d="
M166.205 1486.45 L2352.76 1486.45 L2352.76 47.2441 L166.205 47.2441  Z
  " fill="#ffffff" fill-rule="evenodd" fill-opacity="1"/>
<defs>
  <clipPath id="clip912">
    <rect x="166" y="47" width="2188" height="1440"/>
  </clipPath>
</defs>
<polyline clip-path="url(#clip912)" style="stroke:#000000; stroke-width:2; stroke-opacity:0.1; fill:none" points="
  217.722,1486.45 217.722,47.2441 
  "/>
<polyline clip-path="url(#clip912)" style="stroke:#000000; stroke-width:2; stroke-opacity:0.1; fill:none" points="
  736.01,1486.45 736.01,47.2441 
  "/>
<polyline clip-path="url(#clip912)" style="stroke:#000000; stroke-width:2; stroke-opacity:0.1; fill:none" points="
  1254.3,1486.45 1254.3,47.2441 
  "/>
<polyline clip-path="url(#clip912)" style="stroke:#000000; stroke-width:2; stroke-opacity:0.1; fill:none" points="
  1772.58,1486.45 1772.58,47.2441 
  "/>
<polyline clip-path="url(#clip912)" style="stroke:#000000; stroke-width:2; stroke-opacity:0.1; fill:none" points="
  2290.87,1486.45 2290.87,47.2441 
  "/>
<polyline clip-path="url(#clip912)" style="stroke:#000000; stroke-width:2; stroke-opacity:0.1; fill:none" points="
  166.205,1445.72 2352.76,1445.72 
  "/>
<polyline clip-path="url(#clip912)" style="stroke:#000000; stroke-width:2; stroke-opacity:0.1; fill:none" points="
  166.205,1104.79 2352.76,1104.79 
  "/>
<polyline clip-path="url(#clip912)" style="stroke:#000000; stroke-width:2; stroke-opacity:0.1; fill:none" points="
  166.205,763.863 2352.76,763.863 
  "/>
<polyline clip-path="url(#clip912)" style="stroke:#000000; stroke-width:2; stroke-opacity:0.1; fill:none" points="
  166.205,422.937 2352.76,422.937 
  "/>
<polyline clip-path="url(#clip912)" style="stroke:#000000; stroke-width:2; stroke-opacity:0.1; fill:none" points="
  166.205,82.0108 2352.76,82.0108 
  "/>
<polyline clip-path="url(#clip910)" style="stroke:#000000; stroke-width:4; stroke-opacity:1; fill:none" points="
  166.205,1486.45 2352.76,1486.45 
  "/>
<polyline clip-path="url(#clip910)" style="stroke:#000000; stroke-width:4; stroke-opacity:1; fill:none" points="
  166.205,1486.45 166.205,47.2441 
  "/>
<polyline clip-path="url(#clip910)" style="stroke:#000000; stroke-width:4; stroke-opacity:1; fill:none" points="
  217.722,1486.45 217.722,1469.18 
  "/>
<polyline clip-path="url(#clip910)" style="stroke:#000000; stroke-width:4; stroke-opacity:1; fill:none" points="
  736.01,1486.45 736.01,1469.18 
  "/>
<polyline clip-path="url(#clip910)" style="stroke:#000000; stroke-width:4; stroke-opacity:1; fill:none" points="
  1254.3,1486.45 1254.3,1469.18 
  "/>
<polyline clip-path="url(#clip910)" style="stroke:#000000; stroke-width:4; stroke-opacity:1; fill:none" points="
  1772.58,1486.45 1772.58,1469.18 
  "/>
<polyline clip-path="url(#clip910)" style="stroke:#000000; stroke-width:4; stroke-opacity:1; fill:none" points="
  2290.87,1486.45 2290.87,1469.18 
  "/>
<polyline clip-path="url(#clip910)" style="stroke:#000000; stroke-width:4; stroke-opacity:1; fill:none" points="
  166.205,1445.72 192.443,1445.72 
  "/>
<polyline clip-path="url(#clip910)" style="stroke:#000000; stroke-width:4; stroke-opacity:1; fill:none" points="
  166.205,1104.79 192.443,1104.79 
  "/>
<polyline clip-path="url(#clip910)" style="stroke:#000000; stroke-width:4; stroke-opacity:1; fill:none" points="
  166.205,763.863 192.443,763.863 
  "/>
<polyline clip-path="url(#clip910)" style="stroke:#000000; stroke-width:4; stroke-opacity:1; fill:none" points="
  166.205,422.937 192.443,422.937 
  "/>
<polyline clip-path="url(#clip910)" style="stroke:#000000; stroke-width:4; stroke-opacity:1; fill:none" points="
  166.205,82.0108 192.443,82.0108 
  "/>
<path clip-path="url(#clip910)" d="M 0 0 M217.722 1508.44 Q214.111 1508.44 212.283 1512 Q210.477 1515.55 210.477 1522.67 Q210.477 1529.78 212.283 1533.35 Q214.111 1536.89 217.722 1536.89 Q221.357 1536.89 223.162 1533.35 Q224.991 1529.78 224.991 1522.67 Q224.991 1515.55 223.162 1512 Q221.357 1508.44 217.722 1508.44 M217.722 1504.73 Q223.533 1504.73 226.588 1509.34 Q229.667 1513.92 229.667 1522.67 Q229.667 1531.4 226.588 1536.01 Q223.533 1540.59 217.722 1540.59 Q211.912 1540.59 208.834 1536.01 Q205.778 1531.4 205.778 1522.67 Q205.778 1513.92 208.834 1509.34 Q211.912 1504.73 217.722 1504.73 Z" fill="#000000" fill-rule="evenodd" fill-opacity="1" /><path clip-path="url(#clip910)" d="M 0 0 M712.781 1505.36 L731.137 1505.36 L731.137 1509.3 L717.063 1509.3 L717.063 1517.77 Q718.082 1517.42 719.1 1517.26 Q720.119 1517.07 721.137 1517.07 Q726.924 1517.07 730.304 1520.24 Q733.684 1523.42 733.684 1528.83 Q733.684 1534.41 730.211 1537.51 Q726.739 1540.59 720.42 1540.59 Q718.244 1540.59 715.975 1540.22 Q713.73 1539.85 711.323 1539.11 L711.323 1534.41 Q713.406 1535.54 715.628 1536.1 Q717.85 1536.66 720.327 1536.66 Q724.332 1536.66 726.67 1534.55 Q729.008 1532.44 729.008 1528.83 Q729.008 1525.22 726.67 1523.11 Q724.332 1521.01 720.327 1521.01 Q718.452 1521.01 716.577 1521.42 Q714.725 1521.84 712.781 1522.72 L712.781 1505.36 Z" fill="#000000" fill-rule="evenodd" fill-opacity="1" /><path clip-path="url(#clip910)" d="M 0 0 M748.753 1508.44 Q745.142 1508.44 743.313 1512 Q741.508 1515.55 741.508 1522.67 Q741.508 1529.78 743.313 1533.35 Q745.142 1536.89 748.753 1536.89 Q752.387 1536.89 754.193 1533.35 Q756.021 1529.78 756.021 1522.67 Q756.021 1515.55 754.193 1512 Q752.387 1508.44 748.753 1508.44 M748.753 1504.73 Q754.563 1504.73 757.619 1509.34 Q760.697 1513.92 760.697 1522.67 Q760.697 1531.4 757.619 1536.01 Q754.563 1540.59 748.753 1540.59 Q742.943 1540.59 739.864 1536.01 Q736.809 1531.4 736.809 1522.67 Q736.809 1513.92 739.864 1509.34 Q742.943 1504.73 748.753 1504.73 Z" fill="#000000" fill-rule="evenodd" fill-opacity="1" /><path clip-path="url(#clip910)" d="M 0 0 M1217.67 1535.98 L1225.3 1535.98 L1225.3 1509.62 L1216.99 1511.29 L1216.99 1507.03 L1225.26 1505.36 L1229.93 1505.36 L1229.93 1535.98 L1237.57 1535.98 L1237.57 1539.92 L1217.67 1539.92 L1217.67 1535.98 Z" fill="#000000" fill-rule="evenodd" fill-opacity="1" /><path clip-path="url(#clip910)" d="M 0 0 M1252.64 1508.44 Q1249.03 1508.44 1247.2 1512 Q1245.4 1515.55 1245.4 1522.67 Q1245.4 1529.78 1247.2 1533.35 Q1249.03 1536.89 1252.64 1536.89 Q1256.28 1536.89 1258.08 1533.35 Q1259.91 1529.78 1259.91 1522.67 Q1259.91 1515.55 1258.08 1512 Q1256.28 1508.44 1252.64 1508.44 M1252.64 1504.73 Q1258.45 1504.73 1261.51 1509.34 Q1264.59 1513.92 1264.59 1522.67 Q1264.59 1531.4 1261.51 1536.01 Q1258.45 1540.59 1252.64 1540.59 Q1246.83 1540.59 1243.75 1536.01 Q1240.7 1531.4 1240.7 1522.67 Q1240.7 1513.92 1243.75 1509.34 Q1246.83 1504.73 1252.64 1504.73 Z" fill="#000000" fill-rule="evenodd" fill-opacity="1" /><path clip-path="url(#clip910)" d="M 0 0 M1279.66 1508.44 Q1276.04 1508.44 1274.22 1512 Q1272.41 1515.55 1272.41 1522.67 Q1272.41 1529.78 1274.22 1533.35 Q1276.04 1536.89 1279.66 1536.89 Q1283.29 1536.89 1285.1 1533.35 Q1286.92 1529.78 1286.92 1522.67 Q1286.92 1515.55 1285.1 1512 Q1283.29 1508.44 1279.66 1508.44 M1279.66 1504.73 Q1285.47 1504.73 1288.52 1509.34 Q1291.6 1513.92 1291.6 1522.67 Q1291.6 1531.4 1288.52 1536.01 Q1285.47 1540.59 1279.66 1540.59 Q1273.85 1540.59 1270.77 1536.01 Q1267.71 1531.4 1267.71 1522.67 Q1267.71 1513.92 1270.77 1509.34 Q1273.85 1504.73 1279.66 1504.73 Z" fill="#000000" fill-rule="evenodd" fill-opacity="1" /><path clip-path="url(#clip910)" d="M 0 0 M1736.45 1535.98 L1744.09 1535.98 L1744.09 1509.62 L1735.78 1511.29 L1735.78 1507.03 L1744.04 1505.36 L1748.72 1505.36 L1748.72 1535.98 L1756.36 1535.98 L1756.36 1539.92 L1736.45 1539.92 L1736.45 1535.98 Z" fill="#000000" fill-rule="evenodd" fill-opacity="1" /><path clip-path="url(#clip910)" d="M 0 0 M1761.47 1505.36 L1779.83 1505.36 L1779.83 1509.3 L1765.76 1509.3 L1765.76 1517.77 Q1766.77 1517.42 1767.79 1517.26 Q1768.81 1517.07 1769.83 1517.07 Q1775.62 1517.07 1779 1520.24 Q1782.38 1523.42 1782.38 1528.83 Q1782.38 1534.41 1778.9 1537.51 Q1775.43 1540.59 1769.11 1540.59 Q1766.94 1540.59 1764.67 1540.22 Q1762.42 1539.85 1760.02 1539.11 L1760.02 1534.41 Q1762.1 1535.54 1764.32 1536.1 Q1766.54 1536.66 1769.02 1536.66 Q1773.02 1536.66 1775.36 1534.55 Q1777.7 1532.44 1777.7 1528.83 Q1777.7 1525.22 1775.36 1523.11 Q1773.02 1521.01 1769.02 1521.01 Q1767.15 1521.01 1765.27 1521.42 Q1763.42 1521.84 1761.47 1522.72 L1761.47 1505.36 Z" fill="#000000" fill-rule="evenodd" fill-opacity="1" /><path clip-path="url(#clip910)" d="M 0 0 M1797.45 1508.44 Q1793.83 1508.44 1792.01 1512 Q1790.2 1515.55 1790.2 1522.67 Q1790.2 1529.78 1792.01 1533.35 Q1793.83 1536.89 1797.45 1536.89 Q1801.08 1536.89 1802.89 1533.35 Q1804.71 1529.78 1804.71 1522.67 Q1804.71 1515.55 1802.89 1512 Q1801.08 1508.44 1797.45 1508.44 M1797.45 1504.73 Q1803.26 1504.73 1806.31 1509.34 Q1809.39 1513.92 1809.39 1522.67 Q1809.39 1531.4 1806.31 1536.01 Q1803.26 1540.59 1797.45 1540.59 Q1791.64 1540.59 1788.56 1536.01 Q1785.5 1531.4 1785.5 1522.67 Q1785.5 1513.92 1788.56 1509.34 Q1791.64 1504.73 1797.45 1504.73 Z" fill="#000000" fill-rule="evenodd" fill-opacity="1" /><path clip-path="url(#clip910)" d="M 0 0 M2258.51 1535.98 L2274.83 1535.98 L2274.83 1539.92 L2252.89 1539.92 L2252.89 1535.98 Q2255.55 1533.23 2260.13 1528.6 Q2264.74 1523.95 2265.92 1522.61 Q2268.16 1520.08 2269.04 1518.35 Q2269.95 1516.59 2269.95 1514.9 Q2269.95 1512.14 2268 1510.41 Q2266.08 1508.67 2262.98 1508.67 Q2260.78 1508.67 2258.33 1509.43 Q2255.9 1510.2 2253.12 1511.75 L2253.12 1507.03 Q2255.94 1505.89 2258.4 1505.31 Q2260.85 1504.73 2262.89 1504.73 Q2268.26 1504.73 2271.45 1507.42 Q2274.65 1510.11 2274.65 1514.6 Q2274.65 1516.73 2273.84 1518.65 Q2273.05 1520.54 2270.94 1523.14 Q2270.36 1523.81 2267.26 1527.03 Q2264.16 1530.22 2258.51 1535.98 Z" fill="#000000" fill-rule="evenodd" fill-opacity="1" /><path clip-path="url(#clip910)" d="M 0 0 M2289.9 1508.44 Q2286.29 1508.44 2284.46 1512 Q2282.65 1515.55 2282.65 1522.67 Q2282.65 1529.78 2284.46 1533.35 Q2286.29 1536.89 2289.9 1536.89 Q2293.53 1536.89 2295.34 1533.35 Q2297.17 1529.78 2297.17 1522.67 Q2297.17 1515.55 2295.34 1512 Q2293.53 1508.44 2289.9 1508.44 M2289.9 1504.73 Q2295.71 1504.73 2298.77 1509.34 Q2301.84 1513.92 2301.84 1522.67 Q2301.84 1531.4 2298.77 1536.01 Q2295.71 1540.59 2289.9 1540.59 Q2284.09 1540.59 2281.01 1536.01 Q2277.96 1531.4 2277.96 1522.67 Q2277.96 1513.92 2281.01 1509.34 Q2284.09 1504.73 2289.9 1504.73 Z" fill="#000000" fill-rule="evenodd" fill-opacity="1" /><path clip-path="url(#clip910)" d="M 0 0 M2316.91 1508.44 Q2313.3 1508.44 2311.47 1512 Q2309.67 1515.55 2309.67 1522.67 Q2309.67 1529.78 2311.47 1533.35 Q2313.3 1536.89 2316.91 1536.89 Q2320.55 1536.89 2322.35 1533.35 Q2324.18 1529.78 2324.18 1522.67 Q2324.18 1515.55 2322.35 1512 Q2320.55 1508.44 2316.91 1508.44 M2316.91 1504.73 Q2322.72 1504.73 2325.78 1509.34 Q2328.86 1513.92 2328.86 1522.67 Q2328.86 1531.4 2325.78 1536.01 Q2322.72 1540.59 2316.91 1540.59 Q2311.1 1540.59 2308.03 1536.01 Q2304.97 1531.4 2304.97 1522.67 Q2304.97 1513.92 2308.03 1509.34 Q2311.1 1504.73 2316.91 1504.73 Z" fill="#000000" fill-rule="evenodd" fill-opacity="1" /><path clip-path="url(#clip910)" d="M 0 0 M130.26 1431.51 Q126.649 1431.51 124.82 1435.08 Q123.015 1438.62 123.015 1445.75 Q123.015 1452.86 124.82 1456.42 Q126.649 1459.96 130.26 1459.96 Q133.895 1459.96 135.7 1456.42 Q137.529 1452.86 137.529 1445.75 Q137.529 1438.62 135.7 1435.08 Q133.895 1431.51 130.26 1431.51 M130.26 1427.81 Q136.07 1427.81 139.126 1432.42 Q142.205 1437 142.205 1445.75 Q142.205 1454.48 139.126 1459.08 Q136.07 1463.67 130.26 1463.67 Q124.45 1463.67 121.371 1459.08 Q118.316 1454.48 118.316 1445.75 Q118.316 1437 121.371 1432.42 Q124.45 1427.81 130.26 1427.81 Z" fill="#000000" fill-rule="evenodd" fill-opacity="1" /><path clip-path="url(#clip910)" d="M 0 0 M68.2699 1118.13 L75.9087 1118.13 L75.9087 1091.77 L67.5986 1093.44 L67.5986 1089.18 L75.8624 1087.51 L80.5383 1087.51 L80.5383 1118.13 L88.1772 1118.13 L88.1772 1122.07 L68.2699 1122.07 L68.2699 1118.13 Z" fill="#000000" fill-rule="evenodd" fill-opacity="1" /><path clip-path="url(#clip910)" d="M 0 0 M103.247 1090.59 Q99.6354 1090.59 97.8068 1094.15 Q96.0012 1097.69 96.0012 1104.82 Q96.0012 1111.93 97.8068 1115.5 Q99.6354 1119.04 103.247 1119.04 Q106.881 1119.04 108.686 1115.5 Q110.515 1111.93 110.515 1104.82 Q110.515 1097.69 108.686 1094.15 Q106.881 1090.59 103.247 1090.59 M103.247 1086.88 Q109.057 1086.88 112.112 1091.49 Q115.191 1096.07 115.191 1104.82 Q115.191 1113.55 112.112 1118.16 Q109.057 1122.74 103.247 1122.74 Q97.4364 1122.74 94.3577 1118.16 Q91.3022 1113.55 91.3022 1104.82 Q91.3022 1096.07 94.3577 1091.49 Q97.4364 1086.88 103.247 1086.88 Z" fill="#000000" fill-rule="evenodd" fill-opacity="1" /><path clip-path="url(#clip910)" d="M 0 0 M130.26 1090.59 Q126.649 1090.59 124.82 1094.15 Q123.015 1097.69 123.015 1104.82 Q123.015 1111.93 124.82 1115.5 Q126.649 1119.04 130.26 1119.04 Q133.895 1119.04 135.7 1115.5 Q137.529 1111.93 137.529 1104.82 Q137.529 1097.69 135.7 1094.15 Q133.895 1090.59 130.26 1090.59 M130.26 1086.88 Q136.07 1086.88 139.126 1091.49 Q142.205 1096.07 142.205 1104.82 Q142.205 1113.55 139.126 1118.16 Q136.07 1122.74 130.26 1122.74 Q124.45 1122.74 121.371 1118.16 Q118.316 1113.55 118.316 1104.82 Q118.316 1096.07 121.371 1091.49 Q124.45 1086.88 130.26 1086.88 Z" fill="#000000" fill-rule="evenodd" fill-opacity="1" /><path clip-path="url(#clip910)" d="M 0 0 M71.8578 777.208 L88.1772 777.208 L88.1772 781.143 L66.2328 781.143 L66.2328 777.208 Q68.8949 774.453 73.4782 769.824 Q78.0846 765.171 79.2652 763.829 Q81.5105 761.305 82.3902 759.569 Q83.2929 757.81 83.2929 756.12 Q83.2929 753.366 81.3485 751.629 Q79.4272 749.893 76.3254 749.893 Q74.1263 749.893 71.6726 750.657 Q69.2421 751.421 66.4643 752.972 L66.4643 748.25 Q69.2884 747.116 71.7421 746.537 Q74.1958 745.958 76.2328 745.958 Q81.6031 745.958 84.7976 748.643 Q87.992 751.329 87.992 755.819 Q87.992 757.949 87.1818 759.87 Q86.3948 761.768 84.2883 764.361 Q83.7096 765.032 80.6078 768.25 Q77.5059 771.444 71.8578 777.208 Z" fill="#000000" fill-rule="evenodd" fill-opacity="1" /><path clip-path="url(#clip910)" d="M 0 0 M103.247 749.662 Q99.6354 749.662 97.8068 753.227 Q96.0012 756.768 96.0012 763.898 Q96.0012 771.004 97.8068 774.569 Q99.6354 778.111 103.247 778.111 Q106.881 778.111 108.686 774.569 Q110.515 771.004 110.515 763.898 Q110.515 756.768 108.686 753.227 Q106.881 749.662 103.247 749.662 M103.247 745.958 Q109.057 745.958 112.112 750.565 Q115.191 755.148 115.191 763.898 Q115.191 772.625 112.112 777.231 Q109.057 781.815 103.247 781.815 Q97.4364 781.815 94.3577 777.231 Q91.3022 772.625 91.3022 763.898 Q91.3022 755.148 94.3577 750.565 Q97.4364 745.958 103.247 745.958 Z" fill="#000000" fill-rule="evenodd" fill-opacity="1" /><path clip-path="url(#clip910)" d="M 0 0 M130.26 749.662 Q126.649 749.662 124.82 753.227 Q123.015 756.768 123.015 763.898 Q123.015 771.004 124.82 774.569 Q126.649 778.111 130.26 778.111 Q133.895 778.111 135.7 774.569 Q137.529 771.004 137.529 763.898 Q137.529 756.768 135.7 753.227 Q133.895 749.662 130.26 749.662 M130.26 745.958 Q136.07 745.958 139.126 750.565 Q142.205 755.148 142.205 763.898 Q142.205 772.625 139.126 777.231 Q136.07 781.815 130.26 781.815 Q124.45 781.815 121.371 777.231 Q118.316 772.625 118.316 763.898 Q118.316 755.148 121.371 750.565 Q124.45 745.958 130.26 745.958 Z" fill="#000000" fill-rule="evenodd" fill-opacity="1" /><path clip-path="url(#clip910)" d="M 0 0 M81.0476 421.583 Q84.404 422.3 86.279 424.569 Q88.1772 426.837 88.1772 430.171 Q88.1772 435.286 84.6587 438.087 Q81.1402 440.888 74.6587 440.888 Q72.4828 440.888 70.168 440.448 Q67.8764 440.032 65.4227 439.175 L65.4227 434.661 Q67.3671 435.796 69.6819 436.374 Q71.9967 436.953 74.5198 436.953 Q78.918 436.953 81.2096 435.217 Q83.5244 433.481 83.5244 430.171 Q83.5244 427.115 81.3717 425.402 Q79.242 423.666 75.4226 423.666 L71.3949 423.666 L71.3949 419.824 L75.6078 419.824 Q79.0569 419.824 80.8855 418.458 Q82.7142 417.069 82.7142 414.476 Q82.7142 411.814 80.8161 410.402 Q78.9411 408.967 75.4226 408.967 Q73.5013 408.967 71.3023 409.384 Q69.1032 409.8 66.4643 410.68 L66.4643 406.513 Q69.1264 405.773 71.4412 405.402 Q73.7791 405.032 75.8393 405.032 Q81.1633 405.032 84.2652 407.463 Q87.367 409.87 87.367 413.99 Q87.367 416.861 85.7235 418.851 Q84.08 420.819 81.0476 421.583 Z" fill="#000000" fill-rule="evenodd" fill-opacity="1" /><path clip-path="url(#clip910)" d="M 0 0 M103.247 408.736 Q99.6354 408.736 97.8068 412.3 Q96.0012 415.842 96.0012 422.972 Q96.0012 430.078 97.8068 433.643 Q99.6354 437.185 103.247 437.185 Q106.881 437.185 108.686 433.643 Q110.515 430.078 110.515 422.972 Q110.515 415.842 108.686 412.3 Q106.881 408.736 103.247 408.736 M103.247 405.032 Q109.057 405.032 112.112 409.638 Q115.191 414.222 115.191 422.972 Q115.191 431.699 112.112 436.305 Q109.057 440.888 103.247 440.888 Q97.4364 440.888 94.3577 436.305 Q91.3022 431.699 91.3022 422.972 Q91.3022 414.222 94.3577 409.638 Q97.4364 405.032 103.247 405.032 Z" fill="#000000" fill-rule="evenodd" fill-opacity="1" /><path clip-path="url(#clip910)" d="M 0 0 M130.26 408.736 Q126.649 408.736 124.82 412.3 Q123.015 415.842 123.015 422.972 Q123.015 430.078 124.82 433.643 Q126.649 437.185 130.26 437.185 Q133.895 437.185 135.7 433.643 Q137.529 430.078 137.529 422.972 Q137.529 415.842 135.7 412.3 Q133.895 408.736 130.26 408.736 M130.26 405.032 Q136.07 405.032 139.126 409.638 Q142.205 414.222 142.205 422.972 Q142.205 431.699 139.126 436.305 Q136.07 440.888 130.26 440.888 Q124.45 440.888 121.371 436.305 Q118.316 431.699 118.316 422.972 Q118.316 414.222 121.371 409.638 Q124.45 405.032 130.26 405.032 Z" fill="#000000" fill-rule="evenodd" fill-opacity="1" /><path clip-path="url(#clip910)" d="M 0 0 M78.5939 68.8048 L66.7884 87.2538 L78.5939 87.2538 L78.5939 68.8048 M77.367 64.7308 L83.2466 64.7308 L83.2466 87.2538 L88.1772 87.2538 L88.1772 91.1427 L83.2466 91.1427 L83.2466 99.2908 L78.5939 99.2908 L78.5939 91.1427 L62.9921 91.1427 L62.9921 86.6288 L77.367 64.7308 Z" fill="#000000" fill-rule="evenodd" fill-opacity="1" /><path clip-path="url(#clip910)" d="M 0 0 M103.247 67.8094 Q99.6354 67.8094 97.8068 71.3742 Q96.0012 74.9159 96.0012 82.0455 Q96.0012 89.1519 97.8068 92.7167 Q99.6354 96.2584 103.247 96.2584 Q106.881 96.2584 108.686 92.7167 Q110.515 89.1519 110.515 82.0455 Q110.515 74.9159 108.686 71.3742 Q106.881 67.8094 103.247 67.8094 M103.247 64.1058 Q109.057 64.1058 112.112 68.7122 Q115.191 73.2955 115.191 82.0455 Q115.191 90.7723 112.112 95.3787 Q109.057 99.9621 103.247 99.9621 Q97.4364 99.9621 94.3577 95.3787 Q91.3022 90.7723 91.3022 82.0455 Q91.3022 73.2955 94.3577 68.7122 Q97.4364 64.1058 103.247 64.1058 Z" fill="#000000" fill-rule="evenodd" fill-opacity="1" /><path clip-path="url(#clip910)" d="M 0 0 M130.26 67.8094 Q126.649 67.8094 124.82 71.3742 Q123.015 74.9159 123.015 82.0455 Q123.015 89.1519 124.82 92.7167 Q126.649 96.2584 130.26 96.2584 Q133.895 96.2584 135.7 92.7167 Q137.529 89.1519 137.529 82.0455 Q137.529 74.9159 135.7 71.3742 Q133.895 67.8094 130.26 67.8094 M130.26 64.1058 Q136.07 64.1058 139.126 68.7122 Q142.205 73.2955 142.205 82.0455 Q142.205 90.7723 139.126 95.3787 Q136.07 99.9621 130.26 99.9621 Q124.45 99.9621 121.371 95.3787 Q118.316 90.7723 118.316 82.0455 Q118.316 73.2955 121.371 68.7122 Q124.45 64.1058 130.26 64.1058 Z" fill="#000000" fill-rule="evenodd" fill-opacity="1" /><polyline clip-path="url(#clip912)" style="stroke:#009af9; stroke-width:4; stroke-opacity:1; fill:none" points="
  228.088,1445.72 238.454,1433.18 248.82,1431.69 259.185,1413.64 269.551,1423.57 279.917,1406.41 290.283,1405.32 300.648,1392.15 311.014,1418.14 321.38,1388.27 
  331.746,1381.84 342.111,1396.75 352.477,1388.38 362.843,1375.37 373.209,1365.67 383.574,1361.93 393.94,1375.23 404.306,1368.39 414.672,1369.48 425.037,1366.81 
  435.403,1346.6 445.769,1334.86 456.135,1344.38 466.5,1348.44 476.866,1334.04 487.232,1336 497.598,1324.2 507.963,1294.38 518.329,1300.29 528.695,1311.75 
  539.061,1337.73 549.426,1338.01 559.792,1349.33 570.158,1342.98 580.524,1320.98 590.889,1349.82 601.255,1336.85 611.621,1324.89 621.987,1331.22 632.352,1311.17 
  642.718,1296.11 653.084,1312.29 663.45,1307.05 673.815,1297.28 684.181,1301.51 694.547,1313.67 704.913,1311.46 715.278,1277.28 725.644,1278.74 736.01,1271.95 
  746.376,1246.67 756.741,1235.96 767.107,1223.15 777.473,1185.92 787.839,1172.26 798.204,1152.28 808.57,1148.5 818.936,1130.22 829.302,1128.3 839.667,1150.27 
  850.033,1157.24 860.399,1143.68 870.765,1143.04 881.13,1150.7 891.496,1142.94 901.862,1150.52 912.228,1135.79 922.593,1152.37 932.959,1164.01 943.325,1152.49 
  953.691,1153.69 964.056,1161.18 974.422,1189.85 984.788,1200.71 995.154,1187.41 1005.52,1181.63 1015.89,1201.8 1026.25,1172.31 1036.62,1144.86 1046.98,1137.56 
  1057.35,1107 1067.71,1078.42 1078.08,1071.3 1088.45,1072.27 1098.81,1058.88 1109.18,1073.9 1119.54,1065.52 1129.91,1067.07 1140.27,1040.21 1150.64,1049.73 
  1161.01,1040.14 1171.37,1012.34 1181.74,1006 1192.1,984.004 1202.47,974.303 1212.83,952.621 1223.2,961.728 1233.57,942.746 1243.93,942.106 1254.3,926.752 
  1264.66,923.655 1275.03,922.744 1285.39,896.224 1295.76,898.785 1306.13,899.536 1316.49,886.87 1326.86,882.204 1337.22,867.268 1347.59,857.56 1357.95,872.932 
  1368.32,885.588 1378.69,857.554 1389.05,842.274 1399.42,830.085 1409.78,819.431 1420.15,817.108 1430.52,805.404 1440.88,811.052 1451.25,840.131 1461.61,835.912 
  1471.98,829.263 1482.34,806.195 1492.71,815.765 1503.08,799.816 1513.44,808.852 1523.81,816.263 1534.17,808.549 1544.54,794.108 1554.9,783.942 1565.27,775.368 
  1575.64,753.63 1586,735.715 1596.37,722.325 1606.73,719.226 1617.1,701.655 1627.46,690.338 1637.83,689.845 1648.2,690.02 1658.56,681.103 1668.93,688.797 
  1679.29,687.543 1689.66,662.996 1700.02,656.834 1710.39,641.801 1720.76,642.503 1731.12,630.541 1741.49,611.37 1751.85,596.981 1762.22,570.604 1772.58,559.798 
  1782.95,547.838 1793.32,533.859 1803.68,550.38 1814.05,545.606 1824.41,540.094 1834.78,512.758 1845.15,523.065 1855.51,502.868 1865.88,484.903 1876.24,469.852 
  1886.61,479.684 1896.97,469.818 1907.34,454.455 1917.71,459.563 1928.07,463.608 1938.44,444.374 1948.8,439.892 1959.17,409.41 1969.53,401.16 1979.9,397.145 
  1990.27,385.426 2000.63,375.944 2011,349.991 2021.36,351.738 2031.73,340.496 2042.09,346.365 2052.46,337.11 2062.83,340.27 2073.19,327.767 2083.56,309.499 
  2093.92,310.309 2104.29,288.876 2114.65,300.079 2125.02,293.216 2135.39,278.037 2145.75,273.58 2156.12,275.898 2166.48,226.119 2176.85,228.89 2187.21,224.082 
  2197.58,213.542 2207.95,204.821 2218.31,184.514 2228.68,172.767 2239.04,169.068 2249.41,153.465 2259.78,114.226 2270.14,87.9763 2280.51,95.6438 2290.87,96.0465 
  
  "/>
<path clip-path="url(#clip910)" d="
M1989.74 251.724 L2280.76 251.724 L2280.76 130.764 L1989.74 130.764  Z
  " fill="#ffffff" fill-rule="evenodd" fill-opacity="1"/>
<polyline clip-path="url(#clip910)" style="stroke:#000000; stroke-width:4; stroke-opacity:1; fill:none" points="
  1989.74,251.724 2280.76,251.724 2280.76,130.764 1989.74,130.764 1989.74,251.724 
  "/>
<polyline clip-path="url(#clip910)" style="stroke:#009af9; stroke-width:4; stroke-opacity:1; fill:none" points="
  2013.74,191.244 2157.74,191.244 
  "/>
<path clip-path="url(#clip910)" d="M 0 0 M2195.58 210.931 Q2193.77 215.561 2192.06 216.973 Q2190.35 218.385 2187.48 218.385 L2184.08 218.385 L2184.08 214.82 L2186.58 214.82 Q2188.33 214.82 2189.31 213.987 Q2190.28 213.154 2191.46 210.052 L2192.22 208.107 L2181.74 182.598 L2186.25 182.598 L2194.35 202.876 L2202.46 182.598 L2206.97 182.598 L2195.58 210.931 Z" fill="#000000" fill-rule="evenodd" fill-opacity="1" /><path clip-path="url(#clip910)" d="M 0 0 M2212.85 204.589 L2220.49 204.589 L2220.49 178.223 L2212.18 179.89 L2212.18 175.631 L2220.44 173.964 L2225.12 173.964 L2225.12 204.589 L2232.76 204.589 L2232.76 208.524 L2212.85 208.524 L2212.85 204.589 Z" fill="#000000" fill-rule="evenodd" fill-opacity="1" /></svg>
