<?xml version="1.0" encoding="utf-8"?>
<svg xmlns="http://www.w3.org/2000/svg" xmlns:xlink="http://www.w3.org/1999/xlink" width="600" height="400" viewBox="0 0 2400 1600">
<defs>
  <clipPath id="clip180">
    <rect x="0" y="0" width="2400" height="1600"/>
  </clipPath>
</defs>
<path clip-path="url(#clip180)" d="
M0 1600 L2400 1600 L2400 0 L0 0  Z
  " fill="#ffffff" fill-rule="evenodd" fill-opacity="1"/>
<defs>
  <clipPath id="clip181">
    <rect x="480" y="0" width="1681" height="1600"/>
  </clipPath>
</defs>
<path clip-path="url(#clip180)" d="
M163.774 1486.45 L2352.76 1486.45 L2352.76 47.2441 L163.774 47.2441  Z
  " fill="#ffffff" fill-rule="evenodd" fill-opacity="1"/>
<defs>
  <clipPath id="clip182">
    <rect x="163" y="47" width="2190" height="1440"/>
  </clipPath>
</defs>
<polyline clip-path="url(#clip182)" style="stroke:#000000; stroke-width:2; stroke-opacity:0.1; fill:none" points="
  215.349,1486.45 215.349,47.2441 
  "/>
<polyline clip-path="url(#clip182)" style="stroke:#000000; stroke-width:2; stroke-opacity:0.1; fill:none" points="
  734.213,1486.45 734.213,47.2441 
  "/>
<polyline clip-path="url(#clip182)" style="stroke:#000000; stroke-width:2; stroke-opacity:0.1; fill:none" points="
  1253.08,1486.45 1253.08,47.2441 
  "/>
<polyline clip-path="url(#clip182)" style="stroke:#000000; stroke-width:2; stroke-opacity:0.1; fill:none" points="
  1771.94,1486.45 1771.94,47.2441 
  "/>
<polyline clip-path="url(#clip182)" style="stroke:#000000; stroke-width:2; stroke-opacity:0.1; fill:none" points="
  2290.8,1486.45 2290.8,47.2441 
  "/>
<polyline clip-path="url(#clip182)" style="stroke:#000000; stroke-width:2; stroke-opacity:0.1; fill:none" points="
  163.774,1432.37 2352.76,1432.37 
  "/>
<polyline clip-path="url(#clip182)" style="stroke:#000000; stroke-width:2; stroke-opacity:0.1; fill:none" points="
  163.774,1034.11 2352.76,1034.11 
  "/>
<polyline clip-path="url(#clip182)" style="stroke:#000000; stroke-width:2; stroke-opacity:0.1; fill:none" points="
  163.774,635.845 2352.76,635.845 
  "/>
<polyline clip-path="url(#clip182)" style="stroke:#000000; stroke-width:2; stroke-opacity:0.1; fill:none" points="
  163.774,237.583 2352.76,237.583 
  "/>
<polyline clip-path="url(#clip180)" style="stroke:#000000; stroke-width:4; stroke-opacity:1; fill:none" points="
  163.774,1486.45 2352.76,1486.45 
  "/>
<polyline clip-path="url(#clip180)" style="stroke:#000000; stroke-width:4; stroke-opacity:1; fill:none" points="
  163.774,1486.45 163.774,47.2441 
  "/>
<polyline clip-path="url(#clip180)" style="stroke:#000000; stroke-width:4; stroke-opacity:1; fill:none" points="
  215.349,1486.45 215.349,1469.18 
  "/>
<polyline clip-path="url(#clip180)" style="stroke:#000000; stroke-width:4; stroke-opacity:1; fill:none" points="
  734.213,1486.45 734.213,1469.18 
  "/>
<polyline clip-path="url(#clip180)" style="stroke:#000000; stroke-width:4; stroke-opacity:1; fill:none" points="
  1253.08,1486.45 1253.08,1469.18 
  "/>
<polyline clip-path="url(#clip180)" style="stroke:#000000; stroke-width:4; stroke-opacity:1; fill:none" points="
  1771.94,1486.45 1771.94,1469.18 
  "/>
<polyline clip-path="url(#clip180)" style="stroke:#000000; stroke-width:4; stroke-opacity:1; fill:none" points="
  2290.8,1486.45 2290.8,1469.18 
  "/>
<polyline clip-path="url(#clip180)" style="stroke:#000000; stroke-width:4; stroke-opacity:1; fill:none" points="
  163.774,1432.37 190.042,1432.37 
  "/>
<polyline clip-path="url(#clip180)" style="stroke:#000000; stroke-width:4; stroke-opacity:1; fill:none" points="
  163.774,1034.11 190.042,1034.11 
  "/>
<polyline clip-path="url(#clip180)" style="stroke:#000000; stroke-width:4; stroke-opacity:1; fill:none" points="
  163.774,635.845 190.042,635.845 
  "/>
<polyline clip-path="url(#clip180)" style="stroke:#000000; stroke-width:4; stroke-opacity:1; fill:none" points="
  163.774,237.583 190.042,237.583 
  "/>
<path clip-path="url(#clip180)" d="M 0 0 M215.349 1508.44 Q211.738 1508.44 209.909 1512 Q208.104 1515.55 208.104 1522.67 Q208.104 1529.78 209.909 1533.35 Q211.738 1536.89 215.349 1536.89 Q218.983 1536.89 220.789 1533.35 Q222.618 1529.78 222.618 1522.67 Q222.618 1515.55 220.789 1512 Q218.983 1508.44 215.349 1508.44 M215.349 1504.73 Q221.159 1504.73 224.215 1509.34 Q227.294 1513.92 227.294 1522.67 Q227.294 1531.4 224.215 1536.01 Q221.159 1540.59 215.349 1540.59 Q209.539 1540.59 206.46 1536.01 Q203.405 1531.4 203.405 1522.67 Q203.405 1513.92 206.46 1509.34 Q209.539 1504.73 215.349 1504.73 Z" fill="#000000" fill-rule="evenodd" fill-opacity="1" /><path clip-path="url(#clip180)" d="M 0 0 M710.984 1505.36 L729.34 1505.36 L729.34 1509.3 L715.266 1509.3 L715.266 1517.77 Q716.285 1517.42 717.303 1517.26 Q718.322 1517.07 719.34 1517.07 Q725.127 1517.07 728.507 1520.24 Q731.886 1523.42 731.886 1528.83 Q731.886 1534.41 728.414 1537.51 Q724.942 1540.59 718.623 1540.59 Q716.447 1540.59 714.178 1540.22 Q711.933 1539.85 709.525 1539.11 L709.525 1534.41 Q711.609 1535.54 713.831 1536.1 Q716.053 1536.66 718.53 1536.66 Q722.535 1536.66 724.873 1534.55 Q727.21 1532.44 727.21 1528.83 Q727.21 1525.22 724.873 1523.11 Q722.535 1521.01 718.53 1521.01 Q716.655 1521.01 714.78 1521.42 Q712.928 1521.84 710.984 1522.72 L710.984 1505.36 Z" fill="#000000" fill-rule="evenodd" fill-opacity="1" /><path clip-path="url(#clip180)" d="M 0 0 M746.956 1508.44 Q743.345 1508.44 741.516 1512 Q739.71 1515.55 739.71 1522.67 Q739.71 1529.78 741.516 1533.35 Q743.345 1536.89 746.956 1536.89 Q750.59 1536.89 752.396 1533.35 Q754.224 1529.78 754.224 1522.67 Q754.224 1515.55 752.396 1512 Q750.59 1508.44 746.956 1508.44 M746.956 1504.73 Q752.766 1504.73 755.821 1509.34 Q758.9 1513.92 758.9 1522.67 Q758.9 1531.4 755.821 1536.01 Q752.766 1540.59 746.956 1540.59 Q741.146 1540.59 738.067 1536.01 Q735.011 1531.4 735.011 1522.67 Q735.011 1513.92 738.067 1509.34 Q741.146 1504.73 746.956 1504.73 Z" fill="#000000" fill-rule="evenodd" fill-opacity="1" /><path clip-path="url(#clip180)" d="M 0 0 M1216.44 1535.98 L1224.08 1535.98 L1224.08 1509.62 L1215.77 1511.29 L1215.77 1507.03 L1224.04 1505.36 L1228.71 1505.36 L1228.71 1535.98 L1236.35 1535.98 L1236.35 1539.92 L1216.44 1539.92 L1216.44 1535.98 Z" fill="#000000" fill-rule="evenodd" fill-opacity="1" /><path clip-path="url(#clip180)" d="M 0 0 M1251.42 1508.44 Q1247.81 1508.44 1245.98 1512 Q1244.18 1515.55 1244.18 1522.67 Q1244.18 1529.78 1245.98 1533.35 Q1247.81 1536.89 1251.42 1536.89 Q1255.06 1536.89 1256.86 1533.35 Q1258.69 1529.78 1258.69 1522.67 Q1258.69 1515.55 1256.86 1512 Q1255.06 1508.44 1251.42 1508.44 M1251.42 1504.73 Q1257.23 1504.73 1260.29 1509.34 Q1263.37 1513.92 1263.37 1522.67 Q1263.37 1531.4 1260.29 1536.01 Q1257.23 1540.59 1251.42 1540.59 Q1245.61 1540.59 1242.53 1536.01 Q1239.48 1531.4 1239.48 1522.67 Q1239.48 1513.92 1242.53 1509.34 Q1245.61 1504.73 1251.42 1504.73 Z" fill="#000000" fill-rule="evenodd" fill-opacity="1" /><path clip-path="url(#clip180)" d="M 0 0 M1278.44 1508.44 Q1274.82 1508.44 1273 1512 Q1271.19 1515.55 1271.19 1522.67 Q1271.19 1529.78 1273 1533.35 Q1274.82 1536.89 1278.44 1536.89 Q1282.07 1536.89 1283.87 1533.35 Q1285.7 1529.78 1285.7 1522.67 Q1285.7 1515.55 1283.87 1512 Q1282.07 1508.44 1278.44 1508.44 M1278.44 1504.73 Q1284.25 1504.73 1287.3 1509.34 Q1290.38 1513.92 1290.38 1522.67 Q1290.38 1531.4 1287.3 1536.01 Q1284.25 1540.59 1278.44 1540.59 Q1272.62 1540.59 1269.55 1536.01 Q1266.49 1531.4 1266.49 1522.67 Q1266.49 1513.92 1269.55 1509.34 Q1272.62 1504.73 1278.44 1504.73 Z" fill="#000000" fill-rule="evenodd" fill-opacity="1" /><path clip-path="url(#clip180)" d="M 0 0 M1735.81 1535.98 L1743.44 1535.98 L1743.44 1509.62 L1735.13 1511.29 L1735.13 1507.03 L1743.4 1505.36 L1748.07 1505.36 L1748.07 1535.98 L1755.71 1535.98 L1755.71 1539.92 L1735.81 1539.92 L1735.81 1535.98 Z" fill="#000000" fill-rule="evenodd" fill-opacity="1" /><path clip-path="url(#clip180)" d="M 0 0 M1760.83 1505.36 L1779.19 1505.36 L1779.19 1509.3 L1765.11 1509.3 L1765.11 1517.77 Q1766.13 1517.42 1767.15 1517.26 Q1768.17 1517.07 1769.19 1517.07 Q1774.97 1517.07 1778.35 1520.24 Q1781.73 1523.42 1781.73 1528.83 Q1781.73 1534.41 1778.26 1537.51 Q1774.79 1540.59 1768.47 1540.59 Q1766.29 1540.59 1764.02 1540.22 Q1761.78 1539.85 1759.37 1539.11 L1759.37 1534.41 Q1761.45 1535.54 1763.68 1536.1 Q1765.9 1536.66 1768.38 1536.66 Q1772.38 1536.66 1774.72 1534.55 Q1777.06 1532.44 1777.06 1528.83 Q1777.06 1525.22 1774.72 1523.11 Q1772.38 1521.01 1768.38 1521.01 Q1766.5 1521.01 1764.63 1521.42 Q1762.77 1521.84 1760.83 1522.72 L1760.83 1505.36 Z" fill="#000000" fill-rule="evenodd" fill-opacity="1" /><path clip-path="url(#clip180)" d="M 0 0 M1796.8 1508.44 Q1793.19 1508.44 1791.36 1512 Q1789.56 1515.55 1789.56 1522.67 Q1789.56 1529.78 1791.36 1533.35 Q1793.19 1536.89 1796.8 1536.89 Q1800.44 1536.89 1802.24 1533.35 Q1804.07 1529.78 1804.07 1522.67 Q1804.07 1515.55 1802.24 1512 Q1800.44 1508.44 1796.8 1508.44 M1796.8 1504.73 Q1802.61 1504.73 1805.67 1509.34 Q1808.75 1513.92 1808.75 1522.67 Q1808.75 1531.4 1805.67 1536.01 Q1802.61 1540.59 1796.8 1540.59 Q1790.99 1540.59 1787.91 1536.01 Q1784.86 1531.4 1784.86 1522.67 Q1784.86 1513.92 1787.91 1509.34 Q1790.99 1504.73 1796.8 1504.73 Z" fill="#000000" fill-rule="evenodd" fill-opacity="1" /><path clip-path="url(#clip180)" d="M 0 0 M2258.44 1535.98 L2274.76 1535.98 L2274.76 1539.92 L2252.82 1539.92 L2252.82 1535.98 Q2255.48 1533.23 2260.06 1528.6 Q2264.67 1523.95 2265.85 1522.61 Q2268.1 1520.08 2268.98 1518.35 Q2269.88 1516.59 2269.88 1514.9 Q2269.88 1512.14 2267.93 1510.41 Q2266.01 1508.67 2262.91 1508.67 Q2260.71 1508.67 2258.26 1509.43 Q2255.83 1510.2 2253.05 1511.75 L2253.05 1507.03 Q2255.87 1505.89 2258.33 1505.31 Q2260.78 1504.73 2262.82 1504.73 Q2268.19 1504.73 2271.38 1507.42 Q2274.58 1510.11 2274.58 1514.6 Q2274.58 1516.73 2273.77 1518.65 Q2272.98 1520.54 2270.87 1523.14 Q2270.29 1523.81 2267.19 1527.03 Q2264.09 1530.22 2258.44 1535.98 Z" fill="#000000" fill-rule="evenodd" fill-opacity="1" /><path clip-path="url(#clip180)" d="M 0 0 M2289.83 1508.44 Q2286.22 1508.44 2284.39 1512 Q2282.59 1515.55 2282.59 1522.67 Q2282.59 1529.78 2284.39 1533.35 Q2286.22 1536.89 2289.83 1536.89 Q2293.47 1536.89 2295.27 1533.35 Q2297.1 1529.78 2297.1 1522.67 Q2297.1 1515.55 2295.27 1512 Q2293.47 1508.44 2289.83 1508.44 M2289.83 1504.73 Q2295.64 1504.73 2298.7 1509.34 Q2301.78 1513.92 2301.78 1522.67 Q2301.78 1531.4 2298.7 1536.01 Q2295.64 1540.59 2289.83 1540.59 Q2284.02 1540.59 2280.94 1536.01 Q2277.89 1531.4 2277.89 1522.67 Q2277.89 1513.92 2280.94 1509.34 Q2284.02 1504.73 2289.83 1504.73 Z" fill="#000000" fill-rule="evenodd" fill-opacity="1" /><path clip-path="url(#clip180)" d="M 0 0 M2316.85 1508.44 Q2313.23 1508.44 2311.41 1512 Q2309.6 1515.55 2309.6 1522.67 Q2309.6 1529.78 2311.41 1533.35 Q2313.23 1536.89 2316.85 1536.89 Q2320.48 1536.89 2322.28 1533.35 Q2324.11 1529.78 2324.11 1522.67 Q2324.11 1515.55 2322.28 1512 Q2320.48 1508.44 2316.85 1508.44 M2316.85 1504.73 Q2322.66 1504.73 2325.71 1509.34 Q2328.79 1513.92 2328.79 1522.67 Q2328.79 1531.4 2325.71 1536.01 Q2322.66 1540.59 2316.85 1540.59 Q2311.03 1540.59 2307.96 1536.01 Q2304.9 1531.4 2304.9 1522.67 Q2304.9 1513.92 2307.96 1509.34 Q2311.03 1504.73 2316.85 1504.73 Z" fill="#000000" fill-rule="evenodd" fill-opacity="1" /><path clip-path="url(#clip180)" d="M 0 0 M127.83 1418.17 Q124.219 1418.17 122.39 1421.73 Q120.584 1425.28 120.584 1432.4 Q120.584 1439.51 122.39 1443.08 Q124.219 1446.62 127.83 1446.62 Q131.464 1446.62 133.27 1443.08 Q135.098 1439.51 135.098 1432.4 Q135.098 1425.28 133.27 1421.73 Q131.464 1418.17 127.83 1418.17 M127.83 1414.46 Q133.64 1414.46 136.695 1419.07 Q139.774 1423.65 139.774 1432.4 Q139.774 1441.13 136.695 1445.74 Q133.64 1450.32 127.83 1450.32 Q122.02 1450.32 118.941 1445.74 Q115.885 1441.13 115.885 1432.4 Q115.885 1423.65 118.941 1419.07 Q122.02 1414.46 127.83 1414.46 Z" fill="#000000" fill-rule="evenodd" fill-opacity="1" /><path clip-path="url(#clip180)" d="M 0 0 M65.8393 1047.45 L73.4782 1047.45 L73.4782 1021.09 L65.168 1022.75 L65.168 1018.49 L73.4319 1016.83 L78.1078 1016.83 L78.1078 1047.45 L85.7466 1047.45 L85.7466 1051.39 L65.8393 1051.39 L65.8393 1047.45 Z" fill="#000000" fill-rule="evenodd" fill-opacity="1" /><path clip-path="url(#clip180)" d="M 0 0 M100.816 1019.91 Q97.2049 1019.91 95.3762 1023.47 Q93.5707 1027.01 93.5707 1034.14 Q93.5707 1041.25 95.3762 1044.81 Q97.2049 1048.36 100.816 1048.36 Q104.45 1048.36 106.256 1044.81 Q108.084 1041.25 108.084 1034.14 Q108.084 1027.01 106.256 1023.47 Q104.45 1019.91 100.816 1019.91 M100.816 1016.2 Q106.626 1016.2 109.682 1020.81 Q112.76 1025.39 112.76 1034.14 Q112.76 1042.87 109.682 1047.48 Q106.626 1052.06 100.816 1052.06 Q95.0058 1052.06 91.9272 1047.48 Q88.8716 1042.87 88.8716 1034.14 Q88.8716 1025.39 91.9272 1020.81 Q95.0058 1016.2 100.816 1016.2 Z" fill="#000000" fill-rule="evenodd" fill-opacity="1" /><path clip-path="url(#clip180)" d="M 0 0 M127.83 1019.91 Q124.219 1019.91 122.39 1023.47 Q120.584 1027.01 120.584 1034.14 Q120.584 1041.25 122.39 1044.81 Q124.219 1048.36 127.83 1048.36 Q131.464 1048.36 133.27 1044.81 Q135.098 1041.25 135.098 1034.14 Q135.098 1027.01 133.27 1023.47 Q131.464 1019.91 127.83 1019.91 M127.83 1016.2 Q133.64 1016.2 136.695 1020.81 Q139.774 1025.39 139.774 1034.14 Q139.774 1042.87 136.695 1047.48 Q133.64 1052.06 127.83 1052.06 Q122.02 1052.06 118.941 1047.48 Q115.885 1042.87 115.885 1034.14 Q115.885 1025.39 118.941 1020.81 Q122.02 1016.2 127.83 1016.2 Z" fill="#000000" fill-rule="evenodd" fill-opacity="1" /><path clip-path="url(#clip180)" d="M 0 0 M69.4273 649.19 L85.7466 649.19 L85.7466 653.125 L63.8023 653.125 L63.8023 649.19 Q66.4643 646.435 71.0476 641.806 Q75.6541 637.153 76.8346 635.81 Q79.08 633.287 79.9596 631.551 Q80.8624 629.792 80.8624 628.102 Q80.8624 625.347 78.918 623.611 Q76.9967 621.875 73.8948 621.875 Q71.6958 621.875 69.2421 622.639 Q66.8115 623.403 64.0338 624.954 L64.0338 620.232 Q66.8578 619.097 69.3115 618.519 Q71.7652 617.94 73.8023 617.94 Q79.1726 617.94 82.367 620.625 Q85.5614 623.31 85.5614 627.801 Q85.5614 629.931 84.7513 631.852 Q83.9642 633.75 81.8578 636.343 Q81.2791 637.014 78.1772 640.232 Q75.0754 643.426 69.4273 649.19 Z" fill="#000000" fill-rule="evenodd" fill-opacity="1" /><path clip-path="url(#clip180)" d="M 0 0 M100.816 621.644 Q97.2049 621.644 95.3762 625.209 Q93.5707 628.75 93.5707 635.88 Q93.5707 642.986 95.3762 646.551 Q97.2049 650.093 100.816 650.093 Q104.45 650.093 106.256 646.551 Q108.084 642.986 108.084 635.88 Q108.084 628.75 106.256 625.209 Q104.45 621.644 100.816 621.644 M100.816 617.94 Q106.626 617.94 109.682 622.547 Q112.76 627.13 112.76 635.88 Q112.76 644.607 109.682 649.213 Q106.626 653.796 100.816 653.796 Q95.0058 653.796 91.9272 649.213 Q88.8716 644.607 88.8716 635.88 Q88.8716 627.13 91.9272 622.547 Q95.0058 617.94 100.816 617.94 Z" fill="#000000" fill-rule="evenodd" fill-opacity="1" /><path clip-path="url(#clip180)" d="M 0 0 M127.83 621.644 Q124.219 621.644 122.39 625.209 Q120.584 628.75 120.584 635.88 Q120.584 642.986 122.39 646.551 Q124.219 650.093 127.83 650.093 Q131.464 650.093 133.27 646.551 Q135.098 642.986 135.098 635.88 Q135.098 628.75 133.27 625.209 Q131.464 621.644 127.83 621.644 M127.83 617.94 Q133.64 617.94 136.695 622.547 Q139.774 627.13 139.774 635.88 Q139.774 644.607 136.695 649.213 Q133.64 653.796 127.83 653.796 Q122.02 653.796 118.941 649.213 Q115.885 644.607 115.885 635.88 Q115.885 627.13 118.941 622.547 Q122.02 617.94 127.83 617.94 Z" fill="#000000" fill-rule="evenodd" fill-opacity="1" /><path clip-path="url(#clip180)" d="M 0 0 M78.617 236.228 Q81.9735 236.946 83.8485 239.215 Q85.7466 241.483 85.7466 244.816 Q85.7466 249.932 82.2281 252.733 Q78.7096 255.534 72.2282 255.534 Q70.0523 255.534 67.7375 255.094 Q65.4458 254.677 62.9921 253.821 L62.9921 249.307 Q64.9366 250.441 67.2514 251.02 Q69.5662 251.599 72.0893 251.599 Q76.4874 251.599 78.7791 249.863 Q81.0939 248.127 81.0939 244.816 Q81.0939 241.761 78.9411 240.048 Q76.8115 238.312 72.9921 238.312 L68.9643 238.312 L68.9643 234.469 L73.1773 234.469 Q76.6263 234.469 78.455 233.103 Q80.2837 231.715 80.2837 229.122 Q80.2837 226.46 78.3856 225.048 Q76.5106 223.613 72.9921 223.613 Q71.0708 223.613 68.8717 224.029 Q66.6727 224.446 64.0338 225.326 L64.0338 221.159 Q66.6958 220.418 69.0106 220.048 Q71.3486 219.678 73.4087 219.678 Q78.7328 219.678 81.8346 222.108 Q84.9365 224.516 84.9365 228.636 Q84.9365 231.506 83.2929 233.497 Q81.6494 235.465 78.617 236.228 Z" fill="#000000" fill-rule="evenodd" fill-opacity="1" /><path clip-path="url(#clip180)" d="M 0 0 M100.816 223.381 Q97.2049 223.381 95.3762 226.946 Q93.5707 230.488 93.5707 237.617 Q93.5707 244.724 95.3762 248.289 Q97.2049 251.83 100.816 251.83 Q104.45 251.83 106.256 248.289 Q108.084 244.724 108.084 237.617 Q108.084 230.488 106.256 226.946 Q104.45 223.381 100.816 223.381 M100.816 219.678 Q106.626 219.678 109.682 224.284 Q112.76 228.867 112.76 237.617 Q112.76 246.344 109.682 250.951 Q106.626 255.534 100.816 255.534 Q95.0058 255.534 91.9272 250.951 Q88.8716 246.344 88.8716 237.617 Q88.8716 228.867 91.9272 224.284 Q95.0058 219.678 100.816 219.678 Z" fill="#000000" fill-rule="evenodd" fill-opacity="1" /><path clip-path="url(#clip180)" d="M 0 0 M127.83 223.381 Q124.219 223.381 122.39 226.946 Q120.584 230.488 120.584 237.617 Q120.584 244.724 122.39 248.289 Q124.219 251.83 127.83 251.83 Q131.464 251.83 133.27 248.289 Q135.098 244.724 135.098 237.617 Q135.098 230.488 133.27 226.946 Q131.464 223.381 127.83 223.381 M127.83 219.678 Q133.64 219.678 136.695 224.284 Q139.774 228.867 139.774 237.617 Q139.774 246.344 136.695 250.951 Q133.64 255.534 127.83 255.534 Q122.02 255.534 118.941 250.951 Q115.885 246.344 115.885 237.617 Q115.885 228.867 118.941 224.284 Q122.02 219.678 127.83 219.678 Z" fill="#000000" fill-rule="evenodd" fill-opacity="1" /><polyline clip-path="url(#clip182)" style="stroke:#009af9; stroke-width:4; stroke-opacity:1; fill:none" points="
  225.726,1432.37 236.104,1445.72 246.481,1413.84 256.858,1399.26 267.236,1401.29 277.613,1396.07 287.99,1399.38 298.367,1397.09 308.745,1389.89 319.122,1378.31 
  329.499,1382.41 339.876,1373.23 350.254,1333.29 360.631,1326.19 371.008,1298.85 381.386,1315.11 391.763,1324.96 402.14,1299.91 412.517,1282.53 422.895,1248.91 
  433.272,1265.39 443.649,1261.86 454.026,1257.18 464.404,1243.93 474.781,1227.38 485.158,1202.5 495.536,1216.38 505.913,1222.1 516.29,1235.46 526.667,1204.98 
  537.045,1206.34 547.422,1213.92 557.799,1207.36 568.176,1191.65 578.554,1198.78 588.931,1197.05 599.308,1163.5 609.686,1172.4 620.063,1164 630.44,1117.46 
  640.817,1099.93 651.195,1117.46 661.572,1098.64 671.949,1087.21 682.326,1098.05 692.704,1107.74 703.081,1110.93 713.458,1113.87 723.835,1104.58 734.213,1098.41 
  744.59,1079.7 754.967,1065.21 765.345,1060.12 775.722,1034.84 786.099,1016.62 796.476,982.994 806.854,959.906 817.231,967.471 827.608,936.685 837.985,930.897 
  848.363,949.093 858.74,945.532 869.117,944.953 879.495,917.038 889.872,875.866 900.249,873.865 910.626,882.381 921.004,849.642 931.381,879.228 941.758,879.146 
  952.135,875.15 962.513,865.856 972.89,857.02 983.267,880.079 993.645,862.832 1004.02,892.405 1014.4,870.695 1024.78,866.351 1035.15,877.696 1045.53,884.34 
  1055.91,887.663 1066.29,875.59 1076.66,838.148 1087.04,831.805 1097.42,815.218 1107.79,786.157 1118.17,777.806 1128.55,815.319 1138.93,782.262 1149.3,765.456 
  1159.68,756.516 1170.06,716.851 1180.44,704.245 1190.81,691.638 1201.19,688.147 1211.57,677.022 1221.94,668.169 1232.32,652.992 1242.7,641.585 1253.08,638.459 
  1263.45,630.343 1273.83,627.689 1284.21,623.088 1294.59,626.066 1304.96,607.69 1315.34,572.828 1325.72,574.43 1336.09,538.643 1346.47,565.311 1356.85,571.701 
  1367.23,563.489 1377.6,569.366 1387.98,578.466 1398.36,613.78 1408.74,637.804 1419.11,631.635 1429.49,595.827 1439.87,581.575 1450.24,567.036 1460.62,559.614 
  1471,547.654 1481.38,535.068 1491.75,518.027 1502.13,518.991 1512.51,537.786 1522.89,546.906 1533.26,557.223 1543.64,567.99 1554.02,559.697 1564.39,567.192 
  1574.77,573.908 1585.15,561.787 1595.53,539.706 1605.9,515.3 1616.28,479.235 1626.66,468.284 1637.04,470.776 1647.41,460.151 1657.79,445.335 1668.17,447.256 
  1678.54,448.61 1688.92,452.602 1699.3,431.903 1709.68,418.379 1720.05,400.891 1730.43,377.201 1740.81,370.397 1751.19,359.987 1761.56,352.943 1771.94,342.857 
  1782.32,357.485 1792.69,360.087 1803.07,345.627 1813.45,343.53 1823.83,327.882 1834.2,288.707 1844.58,276.78 1854.96,281.316 1865.34,271.82 1875.71,271.781 
  1886.09,257.08 1896.47,272.925 1906.84,294.281 1917.22,283.246 1927.6,269.195 1937.98,244.17 1948.35,259.25 1958.73,257.957 1969.11,254.131 1979.49,242.973 
  1989.86,238.91 2000.24,225.492 2010.62,234.72 2020.99,242.459 2031.37,246.499 2041.75,252.569 2052.13,240.477 2062.5,240.072 2072.88,255.895 2083.26,264.909 
  2093.64,252.401 2104.01,244.6 2114.39,245.87 2124.77,222.181 2135.14,249.597 2145.52,244.567 2155.9,212.396 2166.28,196.796 2176.65,166.107 2187.03,147.922 
  2197.41,132.034 2207.79,112.034 2218.16,116.952 2228.54,134.91 2238.92,147.883 2249.29,136.199 2259.67,136.628 2270.05,134.011 2280.43,127.441 2290.8,87.9763 
  
  "/>
<path clip-path="url(#clip180)" d="
M1989.74 251.724 L2280.76 251.724 L2280.76 130.764 L1989.74 130.764  Z
  " fill="#ffffff" fill-rule="evenodd" fill-opacity="1"/>
<polyline clip-path="url(#clip180)" style="stroke:#000000; stroke-width:4; stroke-opacity:1; fill:none" points="
  1989.74,251.724 2280.76,251.724 2280.76,130.764 1989.74,130.764 1989.74,251.724 
  "/>
<polyline clip-path="url(#clip180)" style="stroke:#009af9; stroke-width:4; stroke-opacity:1; fill:none" points="
  2013.74,191.244 2157.74,191.244 
  "/>
<path clip-path="url(#clip180)" d="M 0 0 M2195.58 210.931 Q2193.77 215.561 2192.06 216.973 Q2190.35 218.385 2187.48 218.385 L2184.08 218.385 L2184.08 214.82 L2186.58 214.82 Q2188.33 214.82 2189.31 213.987 Q2190.28 213.154 2191.46 210.052 L2192.22 208.107 L2181.74 182.598 L2186.25 182.598 L2194.35 202.876 L2202.46 182.598 L2206.97 182.598 L2195.58 210.931 Z" fill="#000000" fill-rule="evenodd" fill-opacity="1" /><path clip-path="url(#clip180)" d="M 0 0 M2212.85 204.589 L2220.49 204.589 L2220.49 178.223 L2212.18 179.89 L2212.18 175.631 L2220.44 173.964 L2225.12 173.964 L2225.12 204.589 L2232.76 204.589 L2232.76 208.524 L2212.85 208.524 L2212.85 204.589 Z" fill="#000000" fill-rule="evenodd" fill-opacity="1" /></svg>
