<?xml version="1.0" encoding="utf-8"?>
<svg xmlns="http://www.w3.org/2000/svg" xmlns:xlink="http://www.w3.org/1999/xlink" width="600" height="400" viewBox="0 0 2400 1600">
<defs>
  <clipPath id="clip850">
    <rect x="0" y="0" width="2400" height="1600"/>
  </clipPath>
</defs>
<path clip-path="url(#clip850)" d="
M0 1600 L2400 1600 L2400 0 L0 0  Z
  " fill="#ffffff" fill-rule="evenodd" fill-opacity="1"/>
<defs>
  <clipPath id="clip851">
    <rect x="480" y="0" width="1681" height="1600"/>
  </clipPath>
</defs>
<defs>
  <clipPath id="clip852">
    <rect x="189" y="47" width="2165" height="1440"/>
  </clipPath>
</defs>
<path clip-path="url(#clip852)" d="
M189.237 1401.43 L189.237 302.298 L981.14 47.2441 L2352.76 132.262 L2352.76 1231.39 L1560.85 1486.45 L189.237 1401.43  Z
  " fill="#ffffff" fill-rule="evenodd" fill-opacity="1"/>
<polyline clip-path="url(#clip852)" style="stroke:#000000; stroke-width:2; stroke-opacity:0.1; fill:none" points="
  449.025,1417.53 1240.93,1162.48 
  "/>
<polyline clip-path="url(#clip852)" style="stroke:#000000; stroke-width:2; stroke-opacity:0.1; fill:none" points="
  1240.93,1162.48 1240.93,63.3468 
  "/>
<polyline clip-path="url(#clip852)" style="stroke:#000000; stroke-width:2; stroke-opacity:0.1; fill:none" points="
  714.715,1434 1506.62,1178.95 
  "/>
<polyline clip-path="url(#clip852)" style="stroke:#000000; stroke-width:2; stroke-opacity:0.1; fill:none" points="
  1506.62,1178.95 1506.62,79.8153 
  "/>
<polyline clip-path="url(#clip852)" style="stroke:#000000; stroke-width:2; stroke-opacity:0.1; fill:none" points="
  980.405,1450.47 1772.31,1195.42 
  "/>
<polyline clip-path="url(#clip852)" style="stroke:#000000; stroke-width:2; stroke-opacity:0.1; fill:none" points="
  1772.31,1195.42 1772.31,96.2838 
  "/>
<polyline clip-path="url(#clip852)" style="stroke:#000000; stroke-width:2; stroke-opacity:0.1; fill:none" points="
  1246.09,1466.94 2038,1211.88 
  "/>
<polyline clip-path="url(#clip852)" style="stroke:#000000; stroke-width:2; stroke-opacity:0.1; fill:none" points="
  2038,1211.88 2038,112.752 
  "/>
<polyline clip-path="url(#clip852)" style="stroke:#000000; stroke-width:2; stroke-opacity:0.1; fill:none" points="
  1511.78,1483.41 2303.69,1228.35 
  "/>
<polyline clip-path="url(#clip852)" style="stroke:#000000; stroke-width:2; stroke-opacity:0.1; fill:none" points="
  2303.69,1228.35 2303.69,129.221 
  "/>
<polyline clip-path="url(#clip852)" style="stroke:#000000; stroke-width:2; stroke-opacity:0.1; fill:none" points="
  1639.94,1460.98 268.319,1375.96 
  "/>
<polyline clip-path="url(#clip852)" style="stroke:#000000; stroke-width:2; stroke-opacity:0.1; fill:none" points="
  268.319,1375.96 268.319,276.828 
  "/>
<polyline clip-path="url(#clip852)" style="stroke:#000000; stroke-width:2; stroke-opacity:0.1; fill:none" points="
  1853.09,1392.32 481.474,1307.31 
  "/>
<polyline clip-path="url(#clip852)" style="stroke:#000000; stroke-width:2; stroke-opacity:0.1; fill:none" points="
  481.474,1307.31 481.474,208.175 
  "/>
<polyline clip-path="url(#clip852)" style="stroke:#000000; stroke-width:2; stroke-opacity:0.1; fill:none" points="
  2066.25,1323.67 694.629,1238.65 
  "/>
<polyline clip-path="url(#clip852)" style="stroke:#000000; stroke-width:2; stroke-opacity:0.1; fill:none" points="
  694.629,1238.65 694.629,139.523 
  "/>
<polyline clip-path="url(#clip852)" style="stroke:#000000; stroke-width:2; stroke-opacity:0.1; fill:none" points="
  2279.4,1255.02 907.784,1170 
  "/>
<polyline clip-path="url(#clip852)" style="stroke:#000000; stroke-width:2; stroke-opacity:0.1; fill:none" points="
  907.784,1170 907.784,70.8703 
  "/>
<polyline clip-path="url(#clip852)" style="stroke:#000000; stroke-width:2; stroke-opacity:0.1; fill:none" points="
  189.237,1223.78 981.14,968.724 
  "/>
<polyline clip-path="url(#clip852)" style="stroke:#000000; stroke-width:2; stroke-opacity:0.1; fill:none" points="
  981.14,968.724 2352.76,1053.74 
  "/>
<polyline clip-path="url(#clip852)" style="stroke:#000000; stroke-width:2; stroke-opacity:0.1; fill:none" points="
  189.237,1040.08 981.14,785.023 
  "/>
<polyline clip-path="url(#clip852)" style="stroke:#000000; stroke-width:2; stroke-opacity:0.1; fill:none" points="
  981.14,785.023 2352.76,870.041 
  "/>
<polyline clip-path="url(#clip852)" style="stroke:#000000; stroke-width:2; stroke-opacity:0.1; fill:none" points="
  189.237,856.377 981.14,601.323 
  "/>
<polyline clip-path="url(#clip852)" style="stroke:#000000; stroke-width:2; stroke-opacity:0.1; fill:none" points="
  981.14,601.323 2352.76,686.341 
  "/>
<polyline clip-path="url(#clip852)" style="stroke:#000000; stroke-width:2; stroke-opacity:0.1; fill:none" points="
  189.237,672.676 981.14,417.622 
  "/>
<polyline clip-path="url(#clip852)" style="stroke:#000000; stroke-width:2; stroke-opacity:0.1; fill:none" points="
  981.14,417.622 2352.76,502.64 
  "/>
<polyline clip-path="url(#clip852)" style="stroke:#000000; stroke-width:2; stroke-opacity:0.1; fill:none" points="
  189.237,488.976 981.14,233.921 
  "/>
<polyline clip-path="url(#clip852)" style="stroke:#000000; stroke-width:2; stroke-opacity:0.1; fill:none" points="
  981.14,233.921 2352.76,318.939 
  "/>
<polyline clip-path="url(#clip852)" style="stroke:#000000; stroke-width:2; stroke-opacity:0.1; fill:none" points="
  189.237,305.275 981.14,50.2207 
  "/>
<polyline clip-path="url(#clip852)" style="stroke:#000000; stroke-width:2; stroke-opacity:0.1; fill:none" points="
  981.14,50.2207 2352.76,135.239 
  "/>
<polyline clip-path="url(#clip850)" style="stroke:#000000; stroke-width:4; stroke-opacity:1; fill:none" points="
  189.237,1401.43 1560.85,1486.45 
  "/>
<polyline clip-path="url(#clip850)" style="stroke:#000000; stroke-width:4; stroke-opacity:1; fill:none" points="
  1560.85,1486.45 2352.76,1231.39 
  "/>
<polyline clip-path="url(#clip850)" style="stroke:#000000; stroke-width:4; stroke-opacity:1; fill:none" points="
  189.237,1401.43 189.237,302.298 
  "/>
<polyline clip-path="url(#clip850)" style="stroke:#000000; stroke-width:4; stroke-opacity:1; fill:none" points="
  449.025,1417.53 458.528,1414.47 
  "/>
<polyline clip-path="url(#clip850)" style="stroke:#000000; stroke-width:4; stroke-opacity:1; fill:none" points="
  714.715,1434 724.218,1430.94 
  "/>
<polyline clip-path="url(#clip850)" style="stroke:#000000; stroke-width:4; stroke-opacity:1; fill:none" points="
  980.405,1450.47 989.908,1447.41 
  "/>
<polyline clip-path="url(#clip850)" style="stroke:#000000; stroke-width:4; stroke-opacity:1; fill:none" points="
  1246.09,1466.94 1255.6,1463.88 
  "/>
<polyline clip-path="url(#clip850)" style="stroke:#000000; stroke-width:4; stroke-opacity:1; fill:none" points="
  1511.78,1483.41 1521.29,1480.35 
  "/>
<polyline clip-path="url(#clip850)" style="stroke:#000000; stroke-width:4; stroke-opacity:1; fill:none" points="
  1639.94,1460.98 1623.48,1459.96 
  "/>
<polyline clip-path="url(#clip850)" style="stroke:#000000; stroke-width:4; stroke-opacity:1; fill:none" points="
  1853.09,1392.32 1836.63,1391.3 
  "/>
<polyline clip-path="url(#clip850)" style="stroke:#000000; stroke-width:4; stroke-opacity:1; fill:none" points="
  2066.25,1323.67 2049.79,1322.65 
  "/>
<polyline clip-path="url(#clip850)" style="stroke:#000000; stroke-width:4; stroke-opacity:1; fill:none" points="
  2279.4,1255.02 2262.94,1254 
  "/>
<polyline clip-path="url(#clip850)" style="stroke:#000000; stroke-width:4; stroke-opacity:1; fill:none" points="
  189.237,1223.78 198.74,1220.72 
  "/>
<polyline clip-path="url(#clip850)" style="stroke:#000000; stroke-width:4; stroke-opacity:1; fill:none" points="
  189.237,1040.08 198.74,1037.02 
  "/>
<polyline clip-path="url(#clip850)" style="stroke:#000000; stroke-width:4; stroke-opacity:1; fill:none" points="
  189.237,856.377 198.74,853.316 
  "/>
<polyline clip-path="url(#clip850)" style="stroke:#000000; stroke-width:4; stroke-opacity:1; fill:none" points="
  189.237,672.676 198.74,669.616 
  "/>
<polyline clip-path="url(#clip850)" style="stroke:#000000; stroke-width:4; stroke-opacity:1; fill:none" points="
  189.237,488.976 198.74,485.915 
  "/>
<polyline clip-path="url(#clip850)" style="stroke:#000000; stroke-width:4; stroke-opacity:1; fill:none" points="
  189.237,305.275 198.74,302.214 
  "/>
<path clip-path="url(#clip850)" d="M 0 0 M387.294 1456.12 L399.771 1456.12 L399.771 1459.92 L387.294 1459.92 L387.294 1456.12 Z" fill="#000000" fill-rule="evenodd" fill-opacity="1" /><path clip-path="url(#clip850)" d="M 0 0 M404.886 1436.44 L423.243 1436.44 L423.243 1440.38 L409.169 1440.38 L409.169 1448.85 Q410.187 1448.5 411.206 1448.34 Q412.224 1448.16 413.243 1448.16 Q419.03 1448.16 422.409 1451.33 Q425.789 1454.5 425.789 1459.92 Q425.789 1465.5 422.317 1468.6 Q418.845 1471.68 412.525 1471.68 Q410.349 1471.68 408.081 1471.31 Q405.835 1470.94 403.428 1470.19 L403.428 1465.5 Q405.511 1466.63 407.733 1467.19 Q409.956 1467.74 412.433 1467.74 Q416.437 1467.74 418.775 1465.63 Q421.113 1463.53 421.113 1459.92 Q421.113 1456.31 418.775 1454.2 Q416.437 1452.09 412.433 1452.09 Q410.558 1452.09 408.683 1452.51 Q406.831 1452.93 404.886 1453.81 L404.886 1436.44 Z" fill="#000000" fill-rule="evenodd" fill-opacity="1" /><path clip-path="url(#clip850)" d="M 0 0 M430.858 1465.12 L435.743 1465.12 L435.743 1471 L430.858 1471 L430.858 1465.12 Z" fill="#000000" fill-rule="evenodd" fill-opacity="1" /><path clip-path="url(#clip850)" d="M 0 0 M450.812 1439.52 Q447.201 1439.52 445.372 1443.09 Q443.567 1446.63 443.567 1453.76 Q443.567 1460.87 445.372 1464.43 Q447.201 1467.97 450.812 1467.97 Q454.446 1467.97 456.252 1464.43 Q458.08 1460.87 458.08 1453.76 Q458.08 1446.63 456.252 1443.09 Q454.446 1439.52 450.812 1439.52 M450.812 1435.82 Q456.622 1435.82 459.678 1440.43 Q462.756 1445.01 462.756 1453.76 Q462.756 1462.49 459.678 1467.09 Q456.622 1471.68 450.812 1471.68 Q445.002 1471.68 441.923 1467.09 Q438.868 1462.49 438.868 1453.76 Q438.868 1445.01 441.923 1440.43 Q445.002 1435.82 450.812 1435.82 Z" fill="#000000" fill-rule="evenodd" fill-opacity="1" /><path clip-path="url(#clip850)" d="M 0 0 M653.782 1472.59 L666.259 1472.59 L666.259 1476.39 L653.782 1476.39 L653.782 1472.59 Z" fill="#000000" fill-rule="evenodd" fill-opacity="1" /><path clip-path="url(#clip850)" d="M 0 0 M675.356 1483.54 L691.676 1483.54 L691.676 1487.47 L669.731 1487.47 L669.731 1483.54 Q672.393 1480.78 676.977 1476.15 Q681.583 1471.5 682.764 1470.16 Q685.009 1467.64 685.889 1465.9 Q686.791 1464.14 686.791 1462.45 Q686.791 1459.7 684.847 1457.96 Q682.926 1456.22 679.824 1456.22 Q677.625 1456.22 675.171 1456.99 Q672.741 1457.75 669.963 1459.3 L669.963 1454.58 Q672.787 1453.45 675.241 1452.87 Q677.694 1452.29 679.731 1452.29 Q685.102 1452.29 688.296 1454.97 Q691.49 1457.66 691.49 1462.15 Q691.49 1464.28 690.68 1466.2 Q689.893 1468.1 687.787 1470.69 Q687.208 1471.36 684.106 1474.58 Q681.004 1477.77 675.356 1483.54 Z" fill="#000000" fill-rule="evenodd" fill-opacity="1" /><path clip-path="url(#clip850)" d="M 0 0 M696.745 1481.59 L701.629 1481.59 L701.629 1487.47 L696.745 1487.47 L696.745 1481.59 Z" fill="#000000" fill-rule="evenodd" fill-opacity="1" /><path clip-path="url(#clip850)" d="M 0 0 M706.745 1452.91 L725.101 1452.91 L725.101 1456.85 L711.027 1456.85 L711.027 1465.32 Q712.046 1464.97 713.064 1464.81 Q714.083 1464.63 715.101 1464.63 Q720.888 1464.63 724.268 1467.8 Q727.648 1470.97 727.648 1476.39 Q727.648 1481.96 724.175 1485.07 Q720.703 1488.14 714.384 1488.14 Q712.208 1488.14 709.939 1487.77 Q707.694 1487.4 705.287 1486.66 L705.287 1481.96 Q707.37 1483.1 709.592 1483.65 Q711.814 1484.21 714.291 1484.21 Q718.296 1484.21 720.634 1482.1 Q722.972 1480 722.972 1476.39 Q722.972 1472.77 720.634 1470.67 Q718.296 1468.56 714.291 1468.56 Q712.416 1468.56 710.541 1468.98 Q708.689 1469.39 706.745 1470.27 L706.745 1452.91 Z" fill="#000000" fill-rule="evenodd" fill-opacity="1" /><path clip-path="url(#clip850)" d="M 0 0 M937.921 1472.46 Q934.31 1472.46 932.481 1476.02 Q930.676 1479.57 930.676 1486.7 Q930.676 1493.8 932.481 1497.37 Q934.31 1500.91 937.921 1500.91 Q941.555 1500.91 943.361 1497.37 Q945.19 1493.8 945.19 1486.7 Q945.19 1479.57 943.361 1476.02 Q941.555 1472.46 937.921 1472.46 M937.921 1468.76 Q943.731 1468.76 946.787 1473.36 Q949.866 1477.95 949.866 1486.7 Q949.866 1495.42 946.787 1500.03 Q943.731 1504.61 937.921 1504.61 Q932.111 1504.61 929.032 1500.03 Q925.977 1495.42 925.977 1486.7 Q925.977 1477.95 929.032 1473.36 Q932.111 1468.76 937.921 1468.76 Z" fill="#000000" fill-rule="evenodd" fill-opacity="1" /><path clip-path="url(#clip850)" d="M 0 0 M954.935 1498.06 L959.819 1498.06 L959.819 1503.94 L954.935 1503.94 L954.935 1498.06 Z" fill="#000000" fill-rule="evenodd" fill-opacity="1" /><path clip-path="url(#clip850)" d="M 0 0 M974.889 1472.46 Q971.277 1472.46 969.449 1476.02 Q967.643 1479.57 967.643 1486.7 Q967.643 1493.8 969.449 1497.37 Q971.277 1500.91 974.889 1500.91 Q978.523 1500.91 980.328 1497.37 Q982.157 1493.8 982.157 1486.7 Q982.157 1479.57 980.328 1476.02 Q978.523 1472.46 974.889 1472.46 M974.889 1468.76 Q980.699 1468.76 983.754 1473.36 Q986.833 1477.95 986.833 1486.7 Q986.833 1495.42 983.754 1500.03 Q980.699 1504.61 974.889 1504.61 Q969.078 1504.61 966 1500.03 Q962.944 1495.42 962.944 1486.7 Q962.944 1477.95 966 1473.36 Q969.078 1468.76 974.889 1468.76 Z" fill="#000000" fill-rule="evenodd" fill-opacity="1" /><path clip-path="url(#clip850)" d="M 0 0 M1198.76 1516.47 L1215.08 1516.47 L1215.08 1520.41 L1193.14 1520.41 L1193.14 1516.47 Q1195.8 1513.72 1200.38 1509.09 Q1204.99 1504.44 1206.17 1503.1 Q1208.41 1500.57 1209.29 1498.84 Q1210.2 1497.08 1210.2 1495.39 Q1210.2 1492.63 1208.25 1490.9 Q1206.33 1489.16 1203.23 1489.16 Q1201.03 1489.16 1198.58 1489.92 Q1196.15 1490.69 1193.37 1492.24 L1193.37 1487.52 Q1196.19 1486.38 1198.65 1485.8 Q1201.1 1485.22 1203.14 1485.22 Q1208.51 1485.22 1211.7 1487.91 Q1214.9 1490.6 1214.9 1495.09 Q1214.9 1497.22 1214.09 1499.14 Q1213.3 1501.04 1211.19 1503.63 Q1210.61 1504.3 1207.51 1507.52 Q1204.41 1510.71 1198.76 1516.47 Z" fill="#000000" fill-rule="evenodd" fill-opacity="1" /><path clip-path="url(#clip850)" d="M 0 0 M1220.15 1514.53 L1225.03 1514.53 L1225.03 1520.41 L1220.15 1520.41 L1220.15 1514.53 Z" fill="#000000" fill-rule="evenodd" fill-opacity="1" /><path clip-path="url(#clip850)" d="M 0 0 M1230.15 1485.85 L1248.51 1485.85 L1248.51 1489.79 L1234.43 1489.79 L1234.43 1498.26 Q1235.45 1497.91 1236.47 1497.75 Q1237.49 1497.56 1238.51 1497.56 Q1244.29 1497.56 1247.67 1500.73 Q1251.05 1503.91 1251.05 1509.32 Q1251.05 1514.9 1247.58 1518 Q1244.11 1521.08 1237.79 1521.08 Q1235.61 1521.08 1233.34 1520.71 Q1231.1 1520.34 1228.69 1519.6 L1228.69 1514.9 Q1230.78 1516.03 1233 1516.59 Q1235.22 1517.15 1237.7 1517.15 Q1241.7 1517.15 1244.04 1515.04 Q1246.38 1512.93 1246.38 1509.32 Q1246.38 1505.71 1244.04 1503.6 Q1241.7 1501.5 1237.7 1501.5 Q1235.82 1501.5 1233.95 1501.91 Q1232.09 1502.33 1230.15 1503.21 L1230.15 1485.85 Z" fill="#000000" fill-rule="evenodd" fill-opacity="1" /><path clip-path="url(#clip850)" d="M 0 0 M1459.58 1502.32 L1477.94 1502.32 L1477.94 1506.25 L1463.86 1506.25 L1463.86 1514.73 Q1464.88 1514.38 1465.9 1514.22 Q1466.92 1514.03 1467.94 1514.03 Q1473.72 1514.03 1477.1 1517.2 Q1480.48 1520.37 1480.48 1525.79 Q1480.48 1531.37 1477.01 1534.47 Q1473.54 1537.55 1467.22 1537.55 Q1465.04 1537.55 1462.77 1537.18 Q1460.53 1536.81 1458.12 1536.07 L1458.12 1531.37 Q1460.2 1532.5 1462.43 1533.06 Q1464.65 1533.61 1467.13 1533.61 Q1471.13 1533.61 1473.47 1531.51 Q1475.81 1529.4 1475.81 1525.79 Q1475.81 1522.18 1473.47 1520.07 Q1471.13 1517.97 1467.13 1517.97 Q1465.25 1517.97 1463.38 1518.38 Q1461.52 1518.8 1459.58 1519.68 L1459.58 1502.32 Z" fill="#000000" fill-rule="evenodd" fill-opacity="1" /><path clip-path="url(#clip850)" d="M 0 0 M1485.55 1531 L1490.44 1531 L1490.44 1536.88 L1485.55 1536.88 L1485.55 1531 Z" fill="#000000" fill-rule="evenodd" fill-opacity="1" /><path clip-path="url(#clip850)" d="M 0 0 M1505.5 1505.4 Q1501.89 1505.4 1500.06 1508.96 Q1498.26 1512.5 1498.26 1519.63 Q1498.26 1526.74 1500.06 1530.3 Q1501.89 1533.85 1505.5 1533.85 Q1509.14 1533.85 1510.94 1530.3 Q1512.77 1526.74 1512.77 1519.63 Q1512.77 1512.5 1510.94 1508.96 Q1509.14 1505.4 1505.5 1505.4 M1505.5 1501.69 Q1511.31 1501.69 1514.37 1506.3 Q1517.45 1510.88 1517.45 1519.63 Q1517.45 1528.36 1514.37 1532.97 Q1511.31 1537.55 1505.5 1537.55 Q1499.69 1537.55 1496.62 1532.97 Q1493.56 1528.36 1493.56 1519.63 Q1493.56 1510.88 1496.62 1506.3 Q1499.69 1501.69 1505.5 1501.69 Z" fill="#000000" fill-rule="evenodd" fill-opacity="1" /><path clip-path="url(#clip850)" d="M 0 0 M1644.69 1499.57 L1657.16 1499.57 L1657.16 1503.36 L1644.69 1503.36 L1644.69 1499.57 Z" fill="#000000" fill-rule="evenodd" fill-opacity="1" /><path clip-path="url(#clip850)" d="M 0 0 M1662.28 1479.89 L1680.64 1479.89 L1680.64 1483.82 L1666.56 1483.82 L1666.56 1492.3 Q1667.58 1491.95 1668.6 1491.79 Q1669.62 1491.6 1670.64 1491.6 Q1676.42 1491.6 1679.8 1494.77 Q1683.18 1497.94 1683.18 1503.36 Q1683.18 1508.94 1679.71 1512.04 Q1676.24 1515.12 1669.92 1515.12 Q1667.74 1515.12 1665.47 1514.75 Q1663.23 1514.38 1660.82 1513.64 L1660.82 1508.94 Q1662.91 1510.07 1665.13 1510.63 Q1667.35 1511.19 1669.83 1511.19 Q1673.83 1511.19 1676.17 1509.08 Q1678.51 1506.97 1678.51 1503.36 Q1678.51 1499.75 1676.17 1497.64 Q1673.83 1495.54 1669.83 1495.54 Q1667.95 1495.54 1666.08 1495.95 Q1664.22 1496.37 1662.28 1497.25 L1662.28 1479.89 Z" fill="#000000" fill-rule="evenodd" fill-opacity="1" /><path clip-path="url(#clip850)" d="M 0 0 M1877.09 1414.32 Q1873.48 1414.32 1871.65 1417.88 Q1869.84 1421.42 1869.84 1428.55 Q1869.84 1435.66 1871.65 1439.22 Q1873.48 1442.76 1877.09 1442.76 Q1880.72 1442.76 1882.53 1439.22 Q1884.36 1435.66 1884.36 1428.55 Q1884.36 1421.42 1882.53 1417.88 Q1880.72 1414.32 1877.09 1414.32 M1877.09 1410.61 Q1882.9 1410.61 1885.96 1415.22 Q1889.03 1419.8 1889.03 1428.55 Q1889.03 1437.28 1885.96 1441.88 Q1882.9 1446.47 1877.09 1446.47 Q1871.28 1446.47 1868.2 1441.88 Q1865.15 1437.28 1865.15 1428.55 Q1865.15 1419.8 1868.2 1415.22 Q1871.28 1410.61 1877.09 1410.61 Z" fill="#000000" fill-rule="evenodd" fill-opacity="1" /><path clip-path="url(#clip850)" d="M 0 0 M2080.52 1342.58 L2098.88 1342.58 L2098.88 1346.52 L2084.81 1346.52 L2084.81 1354.99 Q2085.82 1354.64 2086.84 1354.48 Q2087.86 1354.3 2088.88 1354.3 Q2094.67 1354.3 2098.05 1357.47 Q2101.43 1360.64 2101.43 1366.06 Q2101.43 1371.64 2097.95 1374.74 Q2094.48 1377.82 2088.16 1377.82 Q2085.99 1377.82 2083.72 1377.45 Q2081.47 1377.07 2079.06 1376.33 L2079.06 1371.64 Q2081.15 1372.77 2083.37 1373.32 Q2085.59 1373.88 2088.07 1373.88 Q2092.07 1373.88 2094.41 1371.77 Q2096.75 1369.67 2096.75 1366.06 Q2096.75 1362.45 2094.41 1360.34 Q2092.07 1358.23 2088.07 1358.23 Q2086.19 1358.23 2084.32 1358.65 Q2082.47 1359.07 2080.52 1359.95 L2080.52 1342.58 Z" fill="#000000" fill-rule="evenodd" fill-opacity="1" /><path clip-path="url(#clip850)" d="M 0 0 M2280.28 1304.56 L2287.91 1304.56 L2287.91 1278.19 L2279.6 1279.86 L2279.6 1275.6 L2287.87 1273.93 L2292.54 1273.93 L2292.54 1304.56 L2300.18 1304.56 L2300.18 1308.49 L2280.28 1308.49 L2280.28 1304.56 Z" fill="#000000" fill-rule="evenodd" fill-opacity="1" /><path clip-path="url(#clip850)" d="M 0 0 M2315.25 1277.01 Q2311.64 1277.01 2309.81 1280.58 Q2308.01 1284.12 2308.01 1291.25 Q2308.01 1298.35 2309.81 1301.92 Q2311.64 1305.46 2315.25 1305.46 Q2318.89 1305.46 2320.69 1301.92 Q2322.52 1298.35 2322.52 1291.25 Q2322.52 1284.12 2320.69 1280.58 Q2318.89 1277.01 2315.25 1277.01 M2315.25 1273.31 Q2321.06 1273.31 2324.12 1277.91 Q2327.2 1282.5 2327.2 1291.25 Q2327.2 1299.97 2324.12 1304.58 Q2321.06 1309.16 2315.25 1309.16 Q2309.44 1309.16 2306.36 1304.58 Q2303.31 1299.97 2303.31 1291.25 Q2303.31 1282.5 2306.36 1277.91 Q2309.44 1273.31 2315.25 1273.31 Z" fill="#000000" fill-rule="evenodd" fill-opacity="1" /><path clip-path="url(#clip850)" d="M 0 0 M62.9921 1226.17 L75.4689 1226.17 L75.4689 1229.97 L62.9921 1229.97 L62.9921 1226.17 Z" fill="#000000" fill-rule="evenodd" fill-opacity="1" /><path clip-path="url(#clip850)" d="M 0 0 M81.3485 1237.12 L88.9874 1237.12 L88.9874 1210.76 L80.6772 1212.42 L80.6772 1208.16 L88.9411 1206.5 L93.617 1206.5 L93.617 1237.12 L101.256 1237.12 L101.256 1241.06 L81.3485 1241.06 L81.3485 1237.12 Z" fill="#000000" fill-rule="evenodd" fill-opacity="1" /><path clip-path="url(#clip850)" d="M 0 0 M116.325 1209.58 Q112.714 1209.58 110.885 1213.14 Q109.08 1216.68 109.08 1223.81 Q109.08 1230.92 110.885 1234.48 Q112.714 1238.03 116.325 1238.03 Q119.959 1238.03 121.765 1234.48 Q123.594 1230.92 123.594 1223.81 Q123.594 1216.68 121.765 1213.14 Q119.959 1209.58 116.325 1209.58 M116.325 1205.87 Q122.135 1205.87 125.191 1210.48 Q128.27 1215.06 128.27 1223.81 Q128.27 1232.54 125.191 1237.15 Q122.135 1241.73 116.325 1241.73 Q110.515 1241.73 107.436 1237.15 Q104.381 1232.54 104.381 1223.81 Q104.381 1215.06 107.436 1210.48 Q110.515 1205.87 116.325 1205.87 Z" fill="#000000" fill-rule="evenodd" fill-opacity="1" /><path clip-path="url(#clip850)" d="M 0 0 M133.339 1235.18 L138.223 1235.18 L138.223 1241.06 L133.339 1241.06 L133.339 1235.18 Z" fill="#000000" fill-rule="evenodd" fill-opacity="1" /><path clip-path="url(#clip850)" d="M 0 0 M153.293 1209.58 Q149.681 1209.58 147.853 1213.14 Q146.047 1216.68 146.047 1223.81 Q146.047 1230.92 147.853 1234.48 Q149.681 1238.03 153.293 1238.03 Q156.927 1238.03 158.732 1234.48 Q160.561 1230.92 160.561 1223.81 Q160.561 1216.68 158.732 1213.14 Q156.927 1209.58 153.293 1209.58 M153.293 1205.87 Q159.103 1205.87 162.158 1210.48 Q165.237 1215.06 165.237 1223.81 Q165.237 1232.54 162.158 1237.15 Q159.103 1241.73 153.293 1241.73 Q147.482 1241.73 144.404 1237.15 Q141.348 1232.54 141.348 1223.81 Q141.348 1215.06 144.404 1210.48 Q147.482 1205.87 153.293 1205.87 Z" fill="#000000" fill-rule="evenodd" fill-opacity="1" /><path clip-path="url(#clip850)" d="M 0 0 M90.6772 1042.47 L103.154 1042.47 L103.154 1046.27 L90.6772 1046.27 L90.6772 1042.47 Z" fill="#000000" fill-rule="evenodd" fill-opacity="1" /><path clip-path="url(#clip850)" d="M 0 0 M107.043 1022.8 L129.265 1022.8 L129.265 1024.79 L116.719 1057.36 L111.834 1057.36 L123.64 1026.73 L107.043 1026.73 L107.043 1022.8 Z" fill="#000000" fill-rule="evenodd" fill-opacity="1" /><path clip-path="url(#clip850)" d="M 0 0 M134.334 1051.48 L139.219 1051.48 L139.219 1057.36 L134.334 1057.36 L134.334 1051.48 Z" fill="#000000" fill-rule="evenodd" fill-opacity="1" /><path clip-path="url(#clip850)" d="M 0 0 M144.334 1022.8 L162.691 1022.8 L162.691 1026.73 L148.617 1026.73 L148.617 1035.2 Q149.635 1034.86 150.654 1034.7 Q151.672 1034.51 152.691 1034.51 Q158.478 1034.51 161.857 1037.68 Q165.237 1040.85 165.237 1046.27 Q165.237 1051.85 161.765 1054.95 Q158.293 1058.03 151.973 1058.03 Q149.797 1058.03 147.529 1057.66 Q145.283 1057.29 142.876 1056.55 L142.876 1051.85 Q144.959 1052.98 147.181 1053.54 Q149.404 1054.09 151.881 1054.09 Q155.885 1054.09 158.223 1051.99 Q160.561 1049.88 160.561 1046.27 Q160.561 1042.66 158.223 1040.55 Q155.885 1038.45 151.881 1038.45 Q150.006 1038.45 148.131 1038.86 Q146.279 1039.28 144.334 1040.16 L144.334 1022.8 Z" fill="#000000" fill-rule="evenodd" fill-opacity="1" /><path clip-path="url(#clip850)" d="M 0 0 M89.7744 858.773 L102.251 858.773 L102.251 862.569 L89.7744 862.569 L89.7744 858.773 Z" fill="#000000" fill-rule="evenodd" fill-opacity="1" /><path clip-path="url(#clip850)" d="M 0 0 M107.367 839.097 L125.723 839.097 L125.723 843.032 L111.649 843.032 L111.649 851.504 Q112.668 851.157 113.686 850.995 Q114.705 850.81 115.723 850.81 Q121.51 850.81 124.89 853.981 Q128.27 857.152 128.27 862.569 Q128.27 868.148 124.797 871.25 Q121.325 874.328 115.006 874.328 Q112.83 874.328 110.561 873.958 Q108.316 873.587 105.909 872.847 L105.909 868.148 Q107.992 869.282 110.214 869.837 Q112.436 870.393 114.913 870.393 Q118.918 870.393 121.256 868.287 Q123.594 866.18 123.594 862.569 Q123.594 858.958 121.256 856.851 Q118.918 854.745 114.913 854.745 Q113.038 854.745 111.163 855.162 Q109.311 855.578 107.367 856.458 L107.367 839.097 Z" fill="#000000" fill-rule="evenodd" fill-opacity="1" /><path clip-path="url(#clip850)" d="M 0 0 M133.339 867.777 L138.223 867.777 L138.223 873.657 L133.339 873.657 L133.339 867.777 Z" fill="#000000" fill-rule="evenodd" fill-opacity="1" /><path clip-path="url(#clip850)" d="M 0 0 M153.293 842.176 Q149.681 842.176 147.853 845.74 Q146.047 849.282 146.047 856.412 Q146.047 863.518 147.853 867.083 Q149.681 870.625 153.293 870.625 Q156.927 870.625 158.732 867.083 Q160.561 863.518 160.561 856.412 Q160.561 849.282 158.732 845.74 Q156.927 842.176 153.293 842.176 M153.293 838.472 Q159.103 838.472 162.158 843.078 Q165.237 847.662 165.237 856.412 Q165.237 865.138 162.158 869.745 Q159.103 874.328 153.293 874.328 Q147.482 874.328 144.404 869.745 Q141.348 865.138 141.348 856.412 Q141.348 847.662 144.404 843.078 Q147.482 838.472 153.293 838.472 Z" fill="#000000" fill-rule="evenodd" fill-opacity="1" /><path clip-path="url(#clip850)" d="M 0 0 M91.3716 675.072 L103.848 675.072 L103.848 678.868 L91.3716 678.868 L91.3716 675.072 Z" fill="#000000" fill-rule="evenodd" fill-opacity="1" /><path clip-path="url(#clip850)" d="M 0 0 M112.946 686.021 L129.265 686.021 L129.265 689.956 L107.321 689.956 L107.321 686.021 Q109.983 683.267 114.566 678.637 Q119.172 673.984 120.353 672.642 Q122.598 670.118 123.478 668.382 Q124.381 666.623 124.381 664.933 Q124.381 662.179 122.436 660.443 Q120.515 658.706 117.413 658.706 Q115.214 658.706 112.76 659.47 Q110.33 660.234 107.552 661.785 L107.552 657.063 Q110.376 655.929 112.83 655.35 Q115.284 654.771 117.321 654.771 Q122.691 654.771 125.885 657.456 Q129.08 660.142 129.08 664.632 Q129.08 666.762 128.27 668.683 Q127.483 670.581 125.376 673.174 Q124.797 673.845 121.696 677.063 Q118.594 680.257 112.946 686.021 Z" fill="#000000" fill-rule="evenodd" fill-opacity="1" /><path clip-path="url(#clip850)" d="M 0 0 M134.334 684.077 L139.219 684.077 L139.219 689.956 L134.334 689.956 L134.334 684.077 Z" fill="#000000" fill-rule="evenodd" fill-opacity="1" /><path clip-path="url(#clip850)" d="M 0 0 M144.334 655.396 L162.691 655.396 L162.691 659.331 L148.617 659.331 L148.617 667.804 Q149.635 667.456 150.654 667.294 Q151.672 667.109 152.691 667.109 Q158.478 667.109 161.857 670.28 Q165.237 673.452 165.237 678.868 Q165.237 684.447 161.765 687.549 Q158.293 690.628 151.973 690.628 Q149.797 690.628 147.529 690.257 Q145.283 689.887 142.876 689.146 L142.876 684.447 Q144.959 685.581 147.181 686.137 Q149.404 686.692 151.881 686.692 Q155.885 686.692 158.223 684.586 Q160.561 682.479 160.561 678.868 Q160.561 675.257 158.223 673.151 Q155.885 671.044 151.881 671.044 Q150.006 671.044 148.131 671.461 Q146.279 671.878 144.334 672.757 L144.334 655.396 Z" fill="#000000" fill-rule="evenodd" fill-opacity="1" /><path clip-path="url(#clip850)" d="M 0 0 M116.325 474.774 Q112.714 474.774 110.885 478.339 Q109.08 481.881 109.08 489.01 Q109.08 496.117 110.885 499.682 Q112.714 503.223 116.325 503.223 Q119.959 503.223 121.765 499.682 Q123.594 496.117 123.594 489.01 Q123.594 481.881 121.765 478.339 Q119.959 474.774 116.325 474.774 M116.325 471.071 Q122.135 471.071 125.191 475.677 Q128.27 480.26 128.27 489.01 Q128.27 497.737 125.191 502.344 Q122.135 506.927 116.325 506.927 Q110.515 506.927 107.436 502.344 Q104.381 497.737 104.381 489.01 Q104.381 480.26 107.436 475.677 Q110.515 471.071 116.325 471.071 Z" fill="#000000" fill-rule="evenodd" fill-opacity="1" /><path clip-path="url(#clip850)" d="M 0 0 M133.339 500.376 L138.223 500.376 L138.223 506.256 L133.339 506.256 L133.339 500.376 Z" fill="#000000" fill-rule="evenodd" fill-opacity="1" /><path clip-path="url(#clip850)" d="M 0 0 M153.293 474.774 Q149.681 474.774 147.853 478.339 Q146.047 481.881 146.047 489.01 Q146.047 496.117 147.853 499.682 Q149.681 503.223 153.293 503.223 Q156.927 503.223 158.732 499.682 Q160.561 496.117 160.561 489.01 Q160.561 481.881 158.732 478.339 Q156.927 474.774 153.293 474.774 M153.293 471.071 Q159.103 471.071 162.158 475.677 Q165.237 480.26 165.237 489.01 Q165.237 497.737 162.158 502.344 Q159.103 506.927 153.293 506.927 Q147.482 506.927 144.404 502.344 Q141.348 497.737 141.348 489.01 Q141.348 480.26 144.404 475.677 Q147.482 471.071 153.293 471.071 Z" fill="#000000" fill-rule="evenodd" fill-opacity="1" /><path clip-path="url(#clip850)" d="M 0 0 M112.946 318.62 L129.265 318.62 L129.265 322.555 L107.321 322.555 L107.321 318.62 Q109.983 315.865 114.566 311.236 Q119.172 306.583 120.353 305.24 Q122.598 302.717 123.478 300.981 Q124.381 299.222 124.381 297.532 Q124.381 294.777 122.436 293.041 Q120.515 291.305 117.413 291.305 Q115.214 291.305 112.76 292.069 Q110.33 292.833 107.552 294.384 L107.552 289.662 Q110.376 288.527 112.83 287.949 Q115.284 287.37 117.321 287.37 Q122.691 287.37 125.885 290.055 Q129.08 292.74 129.08 297.231 Q129.08 299.361 128.27 301.282 Q127.483 303.18 125.376 305.773 Q124.797 306.444 121.696 309.662 Q118.594 312.856 112.946 318.62 Z" fill="#000000" fill-rule="evenodd" fill-opacity="1" /><path clip-path="url(#clip850)" d="M 0 0 M134.334 316.675 L139.219 316.675 L139.219 322.555 L134.334 322.555 L134.334 316.675 Z" fill="#000000" fill-rule="evenodd" fill-opacity="1" /><path clip-path="url(#clip850)" d="M 0 0 M144.334 287.995 L162.691 287.995 L162.691 291.93 L148.617 291.93 L148.617 300.402 Q149.635 300.055 150.654 299.893 Q151.672 299.708 152.691 299.708 Q158.478 299.708 161.857 302.879 Q165.237 306.05 165.237 311.467 Q165.237 317.046 161.765 320.148 Q158.293 323.226 151.973 323.226 Q149.797 323.226 147.529 322.856 Q145.283 322.486 142.876 321.745 L142.876 317.046 Q144.959 318.18 147.181 318.736 Q149.404 319.291 151.881 319.291 Q155.885 319.291 158.223 317.185 Q160.561 315.078 160.561 311.467 Q160.561 307.856 158.223 305.75 Q155.885 303.643 151.881 303.643 Q150.006 303.643 148.131 304.06 Q146.279 304.476 144.334 305.356 L144.334 287.995 Z" fill="#000000" fill-rule="evenodd" fill-opacity="1" /><polyline clip-path="url(#clip852)" style="stroke:#009af9; stroke-width:4; stroke-opacity:1; fill:none" points="
  1264.74,335.981 1156.19,302.642 1353.1,270.836 1376.64,366.432 1376.6,403.064 1267.48,384.807 1273.69,511.845 1523.66,552.496 1597.22,491.894 1800.6,431.83 
  1524.21,663.659 1510.67,805.59 1513.07,946.113 1557.34,1142.43 1694.59,1053.47 1658.19,1029.66 1591.85,1206.65 1625.54,1306.31 1578.69,1289.24 1586.7,1341.16 
  1507.68,1305.83 1466.48,1236.28 1332.39,1195.26 1368.32,1093.82 1347.81,1128.23 1255.75,1202.37 1234.08,1294.54 1139.45,1063.49 1274.5,1104.92 1271.68,1141.46 
  1361.87,1047.56 1302.84,1042.05 1545.59,1067.81 1548.74,1110.79 1680.43,1214.19 1560.23,1157.89 1646.11,1143.07 1541.58,1171.47 1574.71,1178.27 1664.02,1226.01 
  1740.92,1229.85 1601.75,1232.33 1441,1174.49 1543.45,1122.4 1506.09,1073.83 1365.33,1065.22 1285.68,1053.18 1295.39,1038.72 1253.8,1024.52 1248.33,988.664 
  1148.9,922.745 1089.72,928.06 1034.41,807.582 1050.44,854.193 986.964,929.989 866.759,991.643 847.016,979.212 819.039,1027.74 832.558,1037.65 777.136,996.99 
  786.402,862.923 716.138,897.125 743.17,930.881 762.222,831.293 654.702,791.339 835.646,846.787 691.778,756.517 612.419,774.371 729.066,801.544 519.923,699.681 
  660.549,684.095 636.164,678.316 743.265,600.764 771.33,636.245 884.06,624.993 937.7,743.543 903.994,786.611 854.198,795.086 962.861,749.672 806.256,672.986 
  791.162,627.599 820.999,629.826 844.474,652.744 944.028,662.169 1083.69,508.214 1045.51,390.3 1130.42,299.219 1258.12,306.796 1311.59,358.564 1219.01,422.492 
  1096.98,558.896 1094.56,604.276 1166.77,614.648 1130.52,524.196 978.598,573.915 1173.25,613.293 1190.38,585.492 1331.9,405.899 1371.79,456.224 1388.89,533.174 
  
  "/>
<path clip-path="url(#clip850)" d="
M1989.74 251.724 L2280.76 251.724 L2280.76 130.764 L1989.74 130.764  Z
  " fill="#ffffff" fill-rule="evenodd" fill-opacity="1"/>
<polyline clip-path="url(#clip850)" style="stroke:#000000; stroke-width:4; stroke-opacity:1; fill:none" points="
  1989.74,251.724 2280.76,251.724 2280.76,130.764 1989.74,130.764 1989.74,251.724 
  "/>
<path clip-path="url(#clip850)" d="M 0 0 M2195.58 210.931 Q2193.77 215.561 2192.06 216.973 Q2190.35 218.385 2187.48 218.385 L2184.08 218.385 L2184.08 214.82 L2186.58 214.82 Q2188.33 214.82 2189.31 213.987 Q2190.28 213.154 2191.46 210.052 L2192.22 208.107 L2181.74 182.598 L2186.25 182.598 L2194.35 202.876 L2202.46 182.598 L2206.97 182.598 L2195.58 210.931 Z" fill="#000000" fill-rule="evenodd" fill-opacity="1" /><path clip-path="url(#clip850)" d="M 0 0 M2212.85 204.589 L2220.49 204.589 L2220.49 178.223 L2212.18 179.89 L2212.18 175.631 L2220.44 173.964 L2225.12 173.964 L2225.12 204.589 L2232.76 204.589 L2232.76 208.524 L2212.85 208.524 L2212.85 204.589 Z" fill="#000000" fill-rule="evenodd" fill-opacity="1" /></svg>
