<?xml version="1.0" encoding="utf-8"?>
<svg xmlns="http://www.w3.org/2000/svg" xmlns:xlink="http://www.w3.org/1999/xlink" width="600" height="400" viewBox="0 0 2400 1600">
<defs>
  <clipPath id="clip820">
    <rect x="0" y="0" width="2400" height="1600"/>
  </clipPath>
</defs>
<path clip-path="url(#clip820)" d="
M0 1600 L2400 1600 L2400 0 L0 0  Z
  " fill="#ffffff" fill-rule="evenodd" fill-opacity="1"/>
<defs>
  <clipPath id="clip821">
    <rect x="480" y="0" width="1681" height="1600"/>
  </clipPath>
</defs>
<path clip-path="url(#clip820)" d="
M163.774 1486.45 L2352.76 1486.45 L2352.76 47.2441 L163.774 47.2441  Z
  " fill="#ffffff" fill-rule="evenodd" fill-opacity="1"/>
<defs>
  <clipPath id="clip822">
    <rect x="163" y="47" width="2190" height="1440"/>
  </clipPath>
</defs>
<polyline clip-path="url(#clip822)" style="stroke:#000000; stroke-width:2; stroke-opacity:0.1; fill:none" points="
  215.349,1486.45 215.349,47.2441 
  "/>
<polyline clip-path="url(#clip822)" style="stroke:#000000; stroke-width:2; stroke-opacity:0.1; fill:none" points="
  734.213,1486.45 734.213,47.2441 
  "/>
<polyline clip-path="url(#clip822)" style="stroke:#000000; stroke-width:2; stroke-opacity:0.1; fill:none" points="
  1253.08,1486.45 1253.08,47.2441 
  "/>
<polyline clip-path="url(#clip822)" style="stroke:#000000; stroke-width:2; stroke-opacity:0.1; fill:none" points="
  1771.94,1486.45 1771.94,47.2441 
  "/>
<polyline clip-path="url(#clip822)" style="stroke:#000000; stroke-width:2; stroke-opacity:0.1; fill:none" points="
  2290.8,1486.45 2290.8,47.2441 
  "/>
<polyline clip-path="url(#clip822)" style="stroke:#000000; stroke-width:2; stroke-opacity:0.1; fill:none" points="
  163.774,1445.72 2352.76,1445.72 
  "/>
<polyline clip-path="url(#clip822)" style="stroke:#000000; stroke-width:2; stroke-opacity:0.1; fill:none" points="
  163.774,1080.51 2352.76,1080.51 
  "/>
<polyline clip-path="url(#clip822)" style="stroke:#000000; stroke-width:2; stroke-opacity:0.1; fill:none" points="
  163.774,715.311 2352.76,715.311 
  "/>
<polyline clip-path="url(#clip822)" style="stroke:#000000; stroke-width:2; stroke-opacity:0.1; fill:none" points="
  163.774,350.109 2352.76,350.109 
  "/>
<polyline clip-path="url(#clip820)" style="stroke:#000000; stroke-width:4; stroke-opacity:1; fill:none" points="
  163.774,1486.45 2352.76,1486.45 
  "/>
<polyline clip-path="url(#clip820)" style="stroke:#000000; stroke-width:4; stroke-opacity:1; fill:none" points="
  163.774,1486.45 163.774,47.2441 
  "/>
<polyline clip-path="url(#clip820)" style="stroke:#000000; stroke-width:4; stroke-opacity:1; fill:none" points="
  215.349,1486.45 215.349,1469.18 
  "/>
<polyline clip-path="url(#clip820)" style="stroke:#000000; stroke-width:4; stroke-opacity:1; fill:none" points="
  734.213,1486.45 734.213,1469.18 
  "/>
<polyline clip-path="url(#clip820)" style="stroke:#000000; stroke-width:4; stroke-opacity:1; fill:none" points="
  1253.08,1486.45 1253.08,1469.18 
  "/>
<polyline clip-path="url(#clip820)" style="stroke:#000000; stroke-width:4; stroke-opacity:1; fill:none" points="
  1771.94,1486.45 1771.94,1469.18 
  "/>
<polyline clip-path="url(#clip820)" style="stroke:#000000; stroke-width:4; stroke-opacity:1; fill:none" points="
  2290.8,1486.45 2290.8,1469.18 
  "/>
<polyline clip-path="url(#clip820)" style="stroke:#000000; stroke-width:4; stroke-opacity:1; fill:none" points="
  163.774,1445.72 190.042,1445.72 
  "/>
<polyline clip-path="url(#clip820)" style="stroke:#000000; stroke-width:4; stroke-opacity:1; fill:none" points="
  163.774,1080.51 190.042,1080.51 
  "/>
<polyline clip-path="url(#clip820)" style="stroke:#000000; stroke-width:4; stroke-opacity:1; fill:none" points="
  163.774,715.311 190.042,715.311 
  "/>
<polyline clip-path="url(#clip820)" style="stroke:#000000; stroke-width:4; stroke-opacity:1; fill:none" points="
  163.774,350.109 190.042,350.109 
  "/>
<path clip-path="url(#clip820)" d="M 0 0 M215.349 1508.44 Q211.738 1508.44 209.909 1512 Q208.104 1515.55 208.104 1522.67 Q208.104 1529.78 209.909 1533.35 Q211.738 1536.89 215.349 1536.89 Q218.983 1536.89 220.789 1533.35 Q222.618 1529.78 222.618 1522.67 Q222.618 1515.55 220.789 1512 Q218.983 1508.44 215.349 1508.44 M215.349 1504.73 Q221.159 1504.73 224.215 1509.34 Q227.294 1513.92 227.294 1522.67 Q227.294 1531.4 224.215 1536.01 Q221.159 1540.59 215.349 1540.59 Q209.539 1540.59 206.46 1536.01 Q203.405 1531.4 203.405 1522.67 Q203.405 1513.92 206.46 1509.34 Q209.539 1504.73 215.349 1504.73 Z" fill="#000000" fill-rule="evenodd" fill-opacity="1" /><path clip-path="url(#clip820)" d="M 0 0 M710.984 1505.36 L729.34 1505.36 L729.34 1509.3 L715.266 1509.3 L715.266 1517.77 Q716.285 1517.42 717.303 1517.26 Q718.322 1517.07 719.34 1517.07 Q725.127 1517.07 728.507 1520.24 Q731.886 1523.42 731.886 1528.83 Q731.886 1534.41 728.414 1537.51 Q724.942 1540.59 718.623 1540.59 Q716.447 1540.59 714.178 1540.22 Q711.933 1539.85 709.525 1539.11 L709.525 1534.41 Q711.609 1535.54 713.831 1536.1 Q716.053 1536.66 718.53 1536.66 Q722.535 1536.66 724.873 1534.55 Q727.21 1532.44 727.21 1528.83 Q727.21 1525.22 724.873 1523.11 Q722.535 1521.01 718.53 1521.01 Q716.655 1521.01 714.78 1521.42 Q712.928 1521.84 710.984 1522.72 L710.984 1505.36 Z" fill="#000000" fill-rule="evenodd" fill-opacity="1" /><path clip-path="url(#clip820)" d="M 0 0 M746.956 1508.44 Q743.345 1508.44 741.516 1512 Q739.71 1515.55 739.71 1522.67 Q739.71 1529.78 741.516 1533.35 Q743.345 1536.89 746.956 1536.89 Q750.59 1536.89 752.396 1533.35 Q754.224 1529.78 754.224 1522.67 Q754.224 1515.55 752.396 1512 Q750.59 1508.44 746.956 1508.44 M746.956 1504.73 Q752.766 1504.73 755.821 1509.34 Q758.9 1513.92 758.9 1522.67 Q758.9 1531.4 755.821 1536.01 Q752.766 1540.59 746.956 1540.59 Q741.146 1540.59 738.067 1536.01 Q735.011 1531.4 735.011 1522.67 Q735.011 1513.92 738.067 1509.34 Q741.146 1504.73 746.956 1504.73 Z" fill="#000000" fill-rule="evenodd" fill-opacity="1" /><path clip-path="url(#clip820)" d="M 0 0 M1216.44 1535.98 L1224.08 1535.98 L1224.08 1509.62 L1215.77 1511.29 L1215.77 1507.03 L1224.04 1505.36 L1228.71 1505.36 L1228.71 1535.98 L1236.35 1535.98 L1236.35 1539.92 L1216.44 1539.92 L1216.44 1535.98 Z" fill="#000000" fill-rule="evenodd" fill-opacity="1" /><path clip-path="url(#clip820)" d="M 0 0 M1251.42 1508.44 Q1247.81 1508.44 1245.98 1512 Q1244.18 1515.55 1244.18 1522.67 Q1244.18 1529.78 1245.98 1533.35 Q1247.81 1536.89 1251.42 1536.89 Q1255.06 1536.89 1256.86 1533.35 Q1258.69 1529.78 1258.69 1522.67 Q1258.69 1515.55 1256.86 1512 Q1255.06 1508.44 1251.42 1508.44 M1251.42 1504.73 Q1257.23 1504.73 1260.29 1509.34 Q1263.37 1513.92 1263.37 1522.67 Q1263.37 1531.4 1260.29 1536.01 Q1257.23 1540.59 1251.42 1540.59 Q1245.61 1540.59 1242.53 1536.01 Q1239.48 1531.4 1239.48 1522.67 Q1239.48 1513.92 1242.53 1509.34 Q1245.61 1504.73 1251.42 1504.73 Z" fill="#000000" fill-rule="evenodd" fill-opacity="1" /><path clip-path="url(#clip820)" d="M 0 0 M1278.44 1508.44 Q1274.82 1508.44 1273 1512 Q1271.19 1515.55 1271.19 1522.67 Q1271.19 1529.78 1273 1533.35 Q1274.82 1536.89 1278.44 1536.89 Q1282.07 1536.89 1283.87 1533.35 Q1285.7 1529.78 1285.7 1522.67 Q1285.7 1515.55 1283.87 1512 Q1282.07 1508.44 1278.44 1508.44 M1278.44 1504.73 Q1284.25 1504.73 1287.3 1509.34 Q1290.38 1513.92 1290.38 1522.67 Q1290.38 1531.4 1287.3 1536.01 Q1284.25 1540.59 1278.44 1540.59 Q1272.62 1540.59 1269.55 1536.01 Q1266.49 1531.4 1266.49 1522.67 Q1266.49 1513.92 1269.55 1509.34 Q1272.62 1504.73 1278.44 1504.73 Z" fill="#000000" fill-rule="evenodd" fill-opacity="1" /><path clip-path="url(#clip820)" d="M 0 0 M1735.81 1535.98 L1743.44 1535.98 L1743.44 1509.62 L1735.13 1511.29 L1735.13 1507.03 L1743.4 1505.36 L1748.07 1505.36 L1748.07 1535.98 L1755.71 1535.98 L1755.71 1539.92 L1735.81 1539.92 L1735.81 1535.98 Z" fill="#000000" fill-rule="evenodd" fill-opacity="1" /><path clip-path="url(#clip820)" d="M 0 0 M1760.83 1505.36 L1779.19 1505.36 L1779.19 1509.3 L1765.11 1509.3 L1765.11 1517.77 Q1766.13 1517.42 1767.15 1517.26 Q1768.17 1517.07 1769.19 1517.07 Q1774.97 1517.07 1778.35 1520.24 Q1781.73 1523.42 1781.73 1528.83 Q1781.73 1534.41 1778.26 1537.51 Q1774.79 1540.59 1768.47 1540.59 Q1766.29 1540.59 1764.02 1540.22 Q1761.78 1539.85 1759.37 1539.11 L1759.37 1534.41 Q1761.45 1535.54 1763.68 1536.1 Q1765.9 1536.66 1768.38 1536.66 Q1772.38 1536.66 1774.72 1534.55 Q1777.06 1532.44 1777.06 1528.83 Q1777.06 1525.22 1774.72 1523.11 Q1772.38 1521.01 1768.38 1521.01 Q1766.5 1521.01 1764.63 1521.42 Q1762.77 1521.84 1760.83 1522.72 L1760.83 1505.36 Z" fill="#000000" fill-rule="evenodd" fill-opacity="1" /><path clip-path="url(#clip820)" d="M 0 0 M1796.8 1508.44 Q1793.19 1508.44 1791.36 1512 Q1789.56 1515.55 1789.56 1522.67 Q1789.56 1529.78 1791.36 1533.35 Q1793.19 1536.89 1796.8 1536.89 Q1800.44 1536.89 1802.24 1533.35 Q1804.07 1529.78 1804.07 1522.67 Q1804.07 1515.55 1802.24 1512 Q1800.44 1508.44 1796.8 1508.44 M1796.8 1504.73 Q1802.61 1504.73 1805.67 1509.34 Q1808.75 1513.92 1808.75 1522.67 Q1808.75 1531.4 1805.67 1536.01 Q1802.61 1540.59 1796.8 1540.59 Q1790.99 1540.59 1787.91 1536.01 Q1784.86 1531.4 1784.86 1522.67 Q1784.86 1513.92 1787.91 1509.34 Q1790.99 1504.73 1796.8 1504.73 Z" fill="#000000" fill-rule="evenodd" fill-opacity="1" /><path clip-path="url(#clip820)" d="M 0 0 M2258.44 1535.98 L2274.76 1535.98 L2274.76 1539.92 L2252.82 1539.92 L2252.82 1535.98 Q2255.48 1533.23 2260.06 1528.6 Q2264.67 1523.95 2265.85 1522.61 Q2268.1 1520.08 2268.98 1518.35 Q2269.88 1516.59 2269.88 1514.9 Q2269.88 1512.14 2267.93 1510.41 Q2266.01 1508.67 2262.91 1508.67 Q2260.71 1508.67 2258.26 1509.43 Q2255.83 1510.2 2253.05 1511.75 L2253.05 1507.03 Q2255.87 1505.89 2258.33 1505.31 Q2260.78 1504.73 2262.82 1504.73 Q2268.19 1504.73 2271.38 1507.42 Q2274.58 1510.11 2274.58 1514.6 Q2274.58 1516.73 2273.77 1518.65 Q2272.98 1520.54 2270.87 1523.14 Q2270.29 1523.81 2267.19 1527.03 Q2264.09 1530.22 2258.44 1535.98 Z" fill="#000000" fill-rule="evenodd" fill-opacity="1" /><path clip-path="url(#clip820)" d="M 0 0 M2289.83 1508.44 Q2286.22 1508.44 2284.39 1512 Q2282.59 1515.55 2282.59 1522.67 Q2282.59 1529.78 2284.39 1533.35 Q2286.22 1536.89 2289.83 1536.89 Q2293.47 1536.89 2295.27 1533.35 Q2297.1 1529.78 2297.1 1522.67 Q2297.1 1515.55 2295.27 1512 Q2293.47 1508.44 2289.83 1508.44 M2289.83 1504.73 Q2295.64 1504.73 2298.7 1509.34 Q2301.78 1513.92 2301.78 1522.67 Q2301.78 1531.4 2298.7 1536.01 Q2295.64 1540.59 2289.83 1540.59 Q2284.02 1540.59 2280.94 1536.01 Q2277.89 1531.4 2277.89 1522.67 Q2277.89 1513.92 2280.94 1509.34 Q2284.02 1504.73 2289.83 1504.73 Z" fill="#000000" fill-rule="evenodd" fill-opacity="1" /><path clip-path="url(#clip820)" d="M 0 0 M2316.85 1508.44 Q2313.23 1508.44 2311.41 1512 Q2309.6 1515.55 2309.6 1522.67 Q2309.6 1529.78 2311.41 1533.35 Q2313.23 1536.89 2316.85 1536.89 Q2320.48 1536.89 2322.28 1533.35 Q2324.11 1529.78 2324.11 1522.67 Q2324.11 1515.55 2322.28 1512 Q2320.48 1508.44 2316.85 1508.44 M2316.85 1504.73 Q2322.66 1504.73 2325.71 1509.34 Q2328.79 1513.92 2328.79 1522.67 Q2328.79 1531.4 2325.71 1536.01 Q2322.66 1540.59 2316.85 1540.59 Q2311.03 1540.59 2307.96 1536.01 Q2304.9 1531.4 2304.9 1522.67 Q2304.9 1513.92 2307.96 1509.34 Q2311.03 1504.73 2316.85 1504.73 Z" fill="#000000" fill-rule="evenodd" fill-opacity="1" /><path clip-path="url(#clip820)" d="M 0 0 M127.83 1431.51 Q124.219 1431.51 122.39 1435.08 Q120.584 1438.62 120.584 1445.75 Q120.584 1452.86 122.39 1456.42 Q124.219 1459.96 127.83 1459.96 Q131.464 1459.96 133.27 1456.42 Q135.098 1452.86 135.098 1445.75 Q135.098 1438.62 133.27 1435.08 Q131.464 1431.51 127.83 1431.51 M127.83 1427.81 Q133.64 1427.81 136.695 1432.42 Q139.774 1437 139.774 1445.75 Q139.774 1454.48 136.695 1459.08 Q133.64 1463.67 127.83 1463.67 Q122.02 1463.67 118.941 1459.08 Q115.885 1454.48 115.885 1445.75 Q115.885 1437 118.941 1432.42 Q122.02 1427.81 127.83 1427.81 Z" fill="#000000" fill-rule="evenodd" fill-opacity="1" /><path clip-path="url(#clip820)" d="M 0 0 M65.8393 1093.86 L73.4782 1093.86 L73.4782 1067.49 L65.168 1069.16 L65.168 1064.9 L73.4319 1063.23 L78.1078 1063.23 L78.1078 1093.86 L85.7466 1093.86 L85.7466 1097.79 L65.8393 1097.79 L65.8393 1093.86 Z" fill="#000000" fill-rule="evenodd" fill-opacity="1" /><path clip-path="url(#clip820)" d="M 0 0 M100.816 1066.31 Q97.2049 1066.31 95.3762 1069.88 Q93.5707 1073.42 93.5707 1080.55 Q93.5707 1087.65 95.3762 1091.22 Q97.2049 1094.76 100.816 1094.76 Q104.45 1094.76 106.256 1091.22 Q108.084 1087.65 108.084 1080.55 Q108.084 1073.42 106.256 1069.88 Q104.45 1066.31 100.816 1066.31 M100.816 1062.61 Q106.626 1062.61 109.682 1067.21 Q112.76 1071.8 112.76 1080.55 Q112.76 1089.28 109.682 1093.88 Q106.626 1098.46 100.816 1098.46 Q95.0058 1098.46 91.9272 1093.88 Q88.8716 1089.28 88.8716 1080.55 Q88.8716 1071.8 91.9272 1067.21 Q95.0058 1062.61 100.816 1062.61 Z" fill="#000000" fill-rule="evenodd" fill-opacity="1" /><path clip-path="url(#clip820)" d="M 0 0 M127.83 1066.31 Q124.219 1066.31 122.39 1069.88 Q120.584 1073.42 120.584 1080.55 Q120.584 1087.65 122.39 1091.22 Q124.219 1094.76 127.83 1094.76 Q131.464 1094.76 133.27 1091.22 Q135.098 1087.65 135.098 1080.55 Q135.098 1073.42 133.27 1069.88 Q131.464 1066.31 127.83 1066.31 M127.83 1062.61 Q133.64 1062.61 136.695 1067.21 Q139.774 1071.8 139.774 1080.55 Q139.774 1089.28 136.695 1093.88 Q133.64 1098.46 127.83 1098.46 Q122.02 1098.46 118.941 1093.88 Q115.885 1089.28 115.885 1080.55 Q115.885 1071.8 118.941 1067.21 Q122.02 1062.61 127.83 1062.61 Z" fill="#000000" fill-rule="evenodd" fill-opacity="1" /><path clip-path="url(#clip820)" d="M 0 0 M69.4273 728.656 L85.7466 728.656 L85.7466 732.591 L63.8023 732.591 L63.8023 728.656 Q66.4643 725.902 71.0476 721.272 Q75.6541 716.619 76.8346 715.277 Q79.08 712.753 79.9596 711.017 Q80.8624 709.258 80.8624 707.568 Q80.8624 704.814 78.918 703.078 Q76.9967 701.341 73.8948 701.341 Q71.6958 701.341 69.2421 702.105 Q66.8115 702.869 64.0338 704.42 L64.0338 699.698 Q66.8578 698.564 69.3115 697.985 Q71.7652 697.406 73.8023 697.406 Q79.1726 697.406 82.367 700.091 Q85.5614 702.777 85.5614 707.267 Q85.5614 709.397 84.7513 711.318 Q83.9642 713.216 81.8578 715.809 Q81.2791 716.48 78.1772 719.698 Q75.0754 722.892 69.4273 728.656 Z" fill="#000000" fill-rule="evenodd" fill-opacity="1" /><path clip-path="url(#clip820)" d="M 0 0 M100.816 701.11 Q97.2049 701.11 95.3762 704.675 Q93.5707 708.216 93.5707 715.346 Q93.5707 722.452 95.3762 726.017 Q97.2049 729.559 100.816 729.559 Q104.45 729.559 106.256 726.017 Q108.084 722.452 108.084 715.346 Q108.084 708.216 106.256 704.675 Q104.45 701.11 100.816 701.11 M100.816 697.406 Q106.626 697.406 109.682 702.013 Q112.76 706.596 112.76 715.346 Q112.76 724.073 109.682 728.679 Q106.626 733.263 100.816 733.263 Q95.0058 733.263 91.9272 728.679 Q88.8716 724.073 88.8716 715.346 Q88.8716 706.596 91.9272 702.013 Q95.0058 697.406 100.816 697.406 Z" fill="#000000" fill-rule="evenodd" fill-opacity="1" /><path clip-path="url(#clip820)" d="M 0 0 M127.83 701.11 Q124.219 701.11 122.39 704.675 Q120.584 708.216 120.584 715.346 Q120.584 722.452 122.39 726.017 Q124.219 729.559 127.83 729.559 Q131.464 729.559 133.27 726.017 Q135.098 722.452 135.098 715.346 Q135.098 708.216 133.27 704.675 Q131.464 701.11 127.83 701.11 M127.83 697.406 Q133.64 697.406 136.695 702.013 Q139.774 706.596 139.774 715.346 Q139.774 724.073 136.695 728.679 Q133.64 733.263 127.83 733.263 Q122.02 733.263 118.941 728.679 Q115.885 724.073 115.885 715.346 Q115.885 706.596 118.941 702.013 Q122.02 697.406 127.83 697.406 Z" fill="#000000" fill-rule="evenodd" fill-opacity="1" /><path clip-path="url(#clip820)" d="M 0 0 M78.617 348.755 Q81.9735 349.473 83.8485 351.741 Q85.7466 354.01 85.7466 357.343 Q85.7466 362.459 82.2281 365.259 Q78.7096 368.06 72.2282 368.06 Q70.0523 368.06 67.7375 367.621 Q65.4458 367.204 62.9921 366.347 L62.9921 361.834 Q64.9366 362.968 67.2514 363.547 Q69.5662 364.125 72.0893 364.125 Q76.4874 364.125 78.7791 362.389 Q81.0939 360.653 81.0939 357.343 Q81.0939 354.287 78.9411 352.574 Q76.8115 350.838 72.9921 350.838 L68.9643 350.838 L68.9643 346.996 L73.1773 346.996 Q76.6263 346.996 78.455 345.63 Q80.2837 344.241 80.2837 341.648 Q80.2837 338.986 78.3856 337.574 Q76.5106 336.139 72.9921 336.139 Q71.0708 336.139 68.8717 336.556 Q66.6727 336.973 64.0338 337.852 L64.0338 333.686 Q66.6958 332.945 69.0106 332.574 Q71.3486 332.204 73.4087 332.204 Q78.7328 332.204 81.8346 334.635 Q84.9365 337.042 84.9365 341.162 Q84.9365 344.033 83.2929 346.023 Q81.6494 347.991 78.617 348.755 Z" fill="#000000" fill-rule="evenodd" fill-opacity="1" /><path clip-path="url(#clip820)" d="M 0 0 M100.816 335.908 Q97.2049 335.908 95.3762 339.473 Q93.5707 343.014 93.5707 350.144 Q93.5707 357.25 95.3762 360.815 Q97.2049 364.357 100.816 364.357 Q104.45 364.357 106.256 360.815 Q108.084 357.25 108.084 350.144 Q108.084 343.014 106.256 339.473 Q104.45 335.908 100.816 335.908 M100.816 332.204 Q106.626 332.204 109.682 336.811 Q112.76 341.394 112.76 350.144 Q112.76 358.871 109.682 363.477 Q106.626 368.06 100.816 368.06 Q95.0058 368.06 91.9272 363.477 Q88.8716 358.871 88.8716 350.144 Q88.8716 341.394 91.9272 336.811 Q95.0058 332.204 100.816 332.204 Z" fill="#000000" fill-rule="evenodd" fill-opacity="1" /><path clip-path="url(#clip820)" d="M 0 0 M127.83 335.908 Q124.219 335.908 122.39 339.473 Q120.584 343.014 120.584 350.144 Q120.584 357.25 122.39 360.815 Q124.219 364.357 127.83 364.357 Q131.464 364.357 133.27 360.815 Q135.098 357.25 135.098 350.144 Q135.098 343.014 133.27 339.473 Q131.464 335.908 127.83 335.908 M127.83 332.204 Q133.64 332.204 136.695 336.811 Q139.774 341.394 139.774 350.144 Q139.774 358.871 136.695 363.477 Q133.64 368.06 127.83 368.06 Q122.02 368.06 118.941 363.477 Q115.885 358.871 115.885 350.144 Q115.885 341.394 118.941 336.811 Q122.02 332.204 127.83 332.204 Z" fill="#000000" fill-rule="evenodd" fill-opacity="1" /><polyline clip-path="url(#clip822)" style="stroke:#009af9; stroke-width:4; stroke-opacity:1; fill:none" points="
  225.726,1445.72 236.104,1425.46 246.481,1427.79 256.858,1423.12 267.236,1389.77 277.613,1362.34 287.99,1354.91 298.367,1342.41 308.745,1311.16 319.122,1304.88 
  329.499,1263.67 339.876,1258.36 350.254,1222.05 360.631,1242.56 371.008,1235.17 381.386,1202.98 391.763,1180.47 402.14,1152.1 412.517,1143.66 422.895,1127.82 
  433.272,1118.6 443.649,1109.73 454.026,1105.1 464.404,1092.07 474.781,1094.2 485.158,1084.72 495.536,1068.25 505.913,1075.1 516.29,1069.26 526.667,1044.97 
  537.045,1040.07 547.422,1028.63 557.799,1004.93 568.176,1026.23 578.554,997.204 588.931,1000.6 599.308,991.325 609.686,994.714 620.063,987.26 630.44,993.835 
  640.817,975.756 651.195,985.496 661.572,977.041 671.949,987.341 682.326,980.895 692.704,950.932 703.081,942.573 713.458,936.988 723.835,949.516 734.213,936.495 
  744.59,911.674 754.967,921.078 765.345,911.924 775.722,930.559 786.099,942.219 796.476,950.935 806.854,930.474 817.231,918.468 827.608,890.419 837.985,905.814 
  848.363,925.881 858.74,917.869 869.117,915.429 879.495,933.584 889.872,901.684 900.249,909.24 910.626,874.853 921.004,842.266 931.381,859.009 941.758,864.686 
  952.135,881.49 962.513,900.68 972.89,883.103 983.267,870.613 993.645,869.467 1004.02,861.88 1014.4,858.246 1024.78,869.925 1035.15,857.537 1045.53,855.77 
  1055.91,861.779 1066.29,861.267 1076.66,848.258 1087.04,832.349 1097.42,800.914 1107.79,806.942 1118.17,790.873 1128.55,784.664 1138.93,778.996 1149.3,779.403 
  1159.68,783.446 1170.06,771.205 1180.44,770.925 1190.81,779.813 1201.19,782.499 1211.57,777.164 1221.94,784.578 1232.32,763.759 1242.7,767.623 1253.08,764.388 
  1263.45,788.925 1273.83,792.624 1284.21,778.977 1294.59,766.824 1304.96,743.88 1315.34,728.41 1325.72,734.273 1336.09,723.668 1346.47,715.018 1356.85,696.336 
  1367.23,695.483 1377.6,702.025 1387.98,712.798 1398.36,659.98 1408.74,666.355 1419.11,685.335 1429.49,678.903 1439.87,674.971 1450.24,666.569 1460.62,644.897 
  1471,636.197 1481.38,622.965 1491.75,616.154 1502.13,611.104 1512.51,568.66 1522.89,548.576 1533.26,541.181 1543.64,529.063 1554.02,512.343 1564.39,497.813 
  1574.77,497.687 1585.15,502.581 1595.53,514.017 1605.9,508.935 1616.28,508.317 1626.66,509.67 1637.04,517.017 1647.41,529.308 1657.79,526.783 1668.17,508.913 
  1678.54,517.485 1688.92,494.899 1699.3,502.32 1709.68,499.83 1720.05,491.407 1730.43,508.4 1740.81,509.34 1751.19,514.966 1761.56,484.878 1771.94,469.232 
  1782.32,460.048 1792.69,424.383 1803.07,418.103 1813.45,411.838 1823.83,399.607 1834.2,387.707 1844.58,371.628 1854.96,378.437 1865.34,367.324 1875.71,364.677 
  1886.09,345.394 1896.47,364.26 1906.84,381.521 1917.22,393.135 1927.6,376.545 1937.98,381.879 1948.35,377.987 1958.73,353.054 1969.11,336.142 1979.49,335.715 
  1989.86,337.537 2000.24,321.277 2010.62,318.409 2020.99,300.574 2031.37,279.871 2041.75,280.429 2052.13,269.082 2062.5,278.552 2072.88,268.075 2083.26,245.105 
  2093.64,228.136 2104.01,206.859 2114.39,195.763 2124.77,193.065 2135.14,179.74 2145.52,140.334 2155.9,134.47 2166.28,117.357 2176.65,87.9763 2187.03,114.584 
  2197.41,108.322 2207.79,109.787 2218.16,137.639 2228.54,133.998 2238.92,158.307 2249.29,143.401 2259.67,134.228 2270.05,144.17 2280.43,141.591 2290.8,126.649 
  
  "/>
<path clip-path="url(#clip820)" d="
M1989.74 251.724 L2280.76 251.724 L2280.76 130.764 L1989.74 130.764  Z
  " fill="#ffffff" fill-rule="evenodd" fill-opacity="1"/>
<polyline clip-path="url(#clip820)" style="stroke:#000000; stroke-width:4; stroke-opacity:1; fill:none" points="
  1989.74,251.724 2280.76,251.724 2280.76,130.764 1989.74,130.764 1989.74,251.724 
  "/>
<polyline clip-path="url(#clip820)" style="stroke:#009af9; stroke-width:4; stroke-opacity:1; fill:none" points="
  2013.74,191.244 2157.74,191.244 
  "/>
<path clip-path="url(#clip820)" d="M 0 0 M2195.58 210.931 Q2193.77 215.561 2192.06 216.973 Q2190.35 218.385 2187.48 218.385 L2184.08 218.385 L2184.08 214.82 L2186.58 214.82 Q2188.33 214.82 2189.31 213.987 Q2190.28 213.154 2191.46 210.052 L2192.22 208.107 L2181.74 182.598 L2186.25 182.598 L2194.35 202.876 L2202.46 182.598 L2206.97 182.598 L2195.58 210.931 Z" fill="#000000" fill-rule="evenodd" fill-opacity="1" /><path clip-path="url(#clip820)" d="M 0 0 M2212.85 204.589 L2220.49 204.589 L2220.49 178.223 L2212.18 179.89 L2212.18 175.631 L2220.44 173.964 L2225.12 173.964 L2225.12 204.589 L2232.76 204.589 L2232.76 208.524 L2212.85 208.524 L2212.85 204.589 Z" fill="#000000" fill-rule="evenodd" fill-opacity="1" /></svg>
