<?xml version="1.0" encoding="utf-8"?>
<svg xmlns="http://www.w3.org/2000/svg" xmlns:xlink="http://www.w3.org/1999/xlink" width="600" height="400" viewBox="0 0 2400 1600">
<defs>
  <clipPath id="clip090">
    <rect x="0" y="0" width="2400" height="1600"/>
  </clipPath>
</defs>
<path clip-path="url(#clip090)" d="
M0 1600 L2400 1600 L2400 0 L0 0  Z
  " fill="#ffffff" fill-rule="evenodd" fill-opacity="1"/>
<defs>
  <clipPath id="clip091">
    <rect x="480" y="0" width="1681" height="1600"/>
  </clipPath>
</defs>
<path clip-path="url(#clip090)" d="
M163.774 1486.45 L2352.76 1486.45 L2352.76 47.2441 L163.774 47.2441  Z
  " fill="#ffffff" fill-rule="evenodd" fill-opacity="1"/>
<defs>
  <clipPath id="clip092">
    <rect x="163" y="47" width="2190" height="1440"/>
  </clipPath>
</defs>
<polyline clip-path="url(#clip092)" style="stroke:#000000; stroke-width:2; stroke-opacity:0.1; fill:none" points="
  215.349,1486.45 215.349,47.2441 
  "/>
<polyline clip-path="url(#clip092)" style="stroke:#000000; stroke-width:2; stroke-opacity:0.1; fill:none" points="
  734.213,1486.45 734.213,47.2441 
  "/>
<polyline clip-path="url(#clip092)" style="stroke:#000000; stroke-width:2; stroke-opacity:0.1; fill:none" points="
  1253.08,1486.45 1253.08,47.2441 
  "/>
<polyline clip-path="url(#clip092)" style="stroke:#000000; stroke-width:2; stroke-opacity:0.1; fill:none" points="
  1771.94,1486.45 1771.94,47.2441 
  "/>
<polyline clip-path="url(#clip092)" style="stroke:#000000; stroke-width:2; stroke-opacity:0.1; fill:none" points="
  2290.8,1486.45 2290.8,47.2441 
  "/>
<polyline clip-path="url(#clip092)" style="stroke:#000000; stroke-width:2; stroke-opacity:0.1; fill:none" points="
  163.774,1445.72 2352.76,1445.72 
  "/>
<polyline clip-path="url(#clip092)" style="stroke:#000000; stroke-width:2; stroke-opacity:0.1; fill:none" points="
  163.774,1057.23 2352.76,1057.23 
  "/>
<polyline clip-path="url(#clip092)" style="stroke:#000000; stroke-width:2; stroke-opacity:0.1; fill:none" points="
  163.774,668.734 2352.76,668.734 
  "/>
<polyline clip-path="url(#clip092)" style="stroke:#000000; stroke-width:2; stroke-opacity:0.1; fill:none" points="
  163.774,280.244 2352.76,280.244 
  "/>
<polyline clip-path="url(#clip090)" style="stroke:#000000; stroke-width:4; stroke-opacity:1; fill:none" points="
  163.774,1486.45 2352.76,1486.45 
  "/>
<polyline clip-path="url(#clip090)" style="stroke:#000000; stroke-width:4; stroke-opacity:1; fill:none" points="
  163.774,1486.45 163.774,47.2441 
  "/>
<polyline clip-path="url(#clip090)" style="stroke:#000000; stroke-width:4; stroke-opacity:1; fill:none" points="
  215.349,1486.45 215.349,1469.18 
  "/>
<polyline clip-path="url(#clip090)" style="stroke:#000000; stroke-width:4; stroke-opacity:1; fill:none" points="
  734.213,1486.45 734.213,1469.18 
  "/>
<polyline clip-path="url(#clip090)" style="stroke:#000000; stroke-width:4; stroke-opacity:1; fill:none" points="
  1253.08,1486.45 1253.08,1469.18 
  "/>
<polyline clip-path="url(#clip090)" style="stroke:#000000; stroke-width:4; stroke-opacity:1; fill:none" points="
  1771.94,1486.45 1771.94,1469.18 
  "/>
<polyline clip-path="url(#clip090)" style="stroke:#000000; stroke-width:4; stroke-opacity:1; fill:none" points="
  2290.8,1486.45 2290.8,1469.18 
  "/>
<polyline clip-path="url(#clip090)" style="stroke:#000000; stroke-width:4; stroke-opacity:1; fill:none" points="
  163.774,1445.72 190.042,1445.72 
  "/>
<polyline clip-path="url(#clip090)" style="stroke:#000000; stroke-width:4; stroke-opacity:1; fill:none" points="
  163.774,1057.23 190.042,1057.23 
  "/>
<polyline clip-path="url(#clip090)" style="stroke:#000000; stroke-width:4; stroke-opacity:1; fill:none" points="
  163.774,668.734 190.042,668.734 
  "/>
<polyline clip-path="url(#clip090)" style="stroke:#000000; stroke-width:4; stroke-opacity:1; fill:none" points="
  163.774,280.244 190.042,280.244 
  "/>
<path clip-path="url(#clip090)" d="M 0 0 M215.349 1508.44 Q211.738 1508.44 209.909 1512 Q208.104 1515.55 208.104 1522.67 Q208.104 1529.78 209.909 1533.35 Q211.738 1536.89 215.349 1536.89 Q218.983 1536.89 220.789 1533.35 Q222.618 1529.78 222.618 1522.67 Q222.618 1515.55 220.789 1512 Q218.983 1508.44 215.349 1508.44 M215.349 1504.73 Q221.159 1504.73 224.215 1509.34 Q227.294 1513.92 227.294 1522.67 Q227.294 1531.4 224.215 1536.01 Q221.159 1540.59 215.349 1540.59 Q209.539 1540.59 206.46 1536.01 Q203.405 1531.4 203.405 1522.67 Q203.405 1513.92 206.46 1509.34 Q209.539 1504.73 215.349 1504.73 Z" fill="#000000" fill-rule="evenodd" fill-opacity="1" /><path clip-path="url(#clip090)" d="M 0 0 M710.984 1505.36 L729.34 1505.36 L729.34 1509.3 L715.266 1509.3 L715.266 1517.77 Q716.285 1517.42 717.303 1517.26 Q718.322 1517.07 719.34 1517.07 Q725.127 1517.07 728.507 1520.24 Q731.886 1523.42 731.886 1528.83 Q731.886 1534.41 728.414 1537.51 Q724.942 1540.59 718.623 1540.59 Q716.447 1540.59 714.178 1540.22 Q711.933 1539.85 709.525 1539.11 L709.525 1534.41 Q711.609 1535.54 713.831 1536.1 Q716.053 1536.66 718.53 1536.66 Q722.535 1536.66 724.873 1534.55 Q727.21 1532.44 727.21 1528.83 Q727.21 1525.22 724.873 1523.11 Q722.535 1521.01 718.53 1521.01 Q716.655 1521.01 714.78 1521.42 Q712.928 1521.84 710.984 1522.72 L710.984 1505.36 Z" fill="#000000" fill-rule="evenodd" fill-opacity="1" /><path clip-path="url(#clip090)" d="M 0 0 M746.956 1508.44 Q743.345 1508.44 741.516 1512 Q739.71 1515.55 739.71 1522.67 Q739.71 1529.78 741.516 1533.35 Q743.345 1536.89 746.956 1536.89 Q750.59 1536.89 752.396 1533.35 Q754.224 1529.78 754.224 1522.67 Q754.224 1515.55 752.396 1512 Q750.59 1508.44 746.956 1508.44 M746.956 1504.73 Q752.766 1504.73 755.821 1509.34 Q758.9 1513.92 758.9 1522.67 Q758.9 1531.4 755.821 1536.01 Q752.766 1540.59 746.956 1540.59 Q741.146 1540.59 738.067 1536.01 Q735.011 1531.4 735.011 1522.67 Q735.011 1513.92 738.067 1509.34 Q741.146 1504.73 746.956 1504.73 Z" fill="#000000" fill-rule="evenodd" fill-opacity="1" /><path clip-path="url(#clip090)" d="M 0 0 M1216.44 1535.98 L1224.08 1535.98 L1224.08 1509.62 L1215.77 1511.29 L1215.77 1507.03 L1224.04 1505.36 L1228.71 1505.36 L1228.71 1535.98 L1236.35 1535.98 L1236.35 1539.92 L1216.44 1539.92 L1216.44 1535.98 Z" fill="#000000" fill-rule="evenodd" fill-opacity="1" /><path clip-path="url(#clip090)" d="M 0 0 M1251.42 1508.44 Q1247.81 1508.44 1245.98 1512 Q1244.18 1515.55 1244.18 1522.67 Q1244.18 1529.78 1245.98 1533.35 Q1247.81 1536.89 1251.42 1536.89 Q1255.06 1536.89 1256.86 1533.35 Q1258.69 1529.78 1258.69 1522.67 Q1258.69 1515.55 1256.86 1512 Q1255.06 1508.44 1251.42 1508.44 M1251.42 1504.73 Q1257.23 1504.73 1260.29 1509.34 Q1263.37 1513.92 1263.37 1522.67 Q1263.37 1531.4 1260.29 1536.01 Q1257.23 1540.59 1251.42 1540.59 Q1245.61 1540.59 1242.53 1536.01 Q1239.48 1531.4 1239.48 1522.67 Q1239.48 1513.92 1242.53 1509.34 Q1245.61 1504.73 1251.42 1504.73 Z" fill="#000000" fill-rule="evenodd" fill-opacity="1" /><path clip-path="url(#clip090)" d="M 0 0 M1278.44 1508.44 Q1274.82 1508.44 1273 1512 Q1271.19 1515.55 1271.19 1522.67 Q1271.19 1529.78 1273 1533.35 Q1274.82 1536.89 1278.44 1536.89 Q1282.07 1536.89 1283.87 1533.35 Q1285.7 1529.78 1285.7 1522.67 Q1285.7 1515.55 1283.87 1512 Q1282.07 1508.44 1278.44 1508.44 M1278.44 1504.73 Q1284.25 1504.73 1287.3 1509.34 Q1290.38 1513.92 1290.38 1522.67 Q1290.38 1531.4 1287.3 1536.01 Q1284.25 1540.59 1278.44 1540.59 Q1272.62 1540.59 1269.55 1536.01 Q1266.49 1531.4 1266.49 1522.67 Q1266.49 1513.92 1269.55 1509.34 Q1272.62 1504.73 1278.44 1504.73 Z" fill="#000000" fill-rule="evenodd" fill-opacity="1" /><path clip-path="url(#clip090)" d="M 0 0 M1735.81 1535.98 L1743.44 1535.98 L1743.44 1509.62 L1735.13 1511.29 L1735.13 1507.03 L1743.4 1505.36 L1748.07 1505.36 L1748.07 1535.98 L1755.71 1535.98 L1755.71 1539.92 L1735.81 1539.92 L1735.81 1535.98 Z" fill="#000000" fill-rule="evenodd" fill-opacity="1" /><path clip-path="url(#clip090)" d="M 0 0 M1760.83 1505.36 L1779.19 1505.36 L1779.19 1509.3 L1765.11 1509.3 L1765.11 1517.77 Q1766.13 1517.42 1767.15 1517.26 Q1768.17 1517.07 1769.19 1517.07 Q1774.97 1517.07 1778.35 1520.24 Q1781.73 1523.42 1781.73 1528.83 Q1781.73 1534.41 1778.26 1537.51 Q1774.79 1540.59 1768.47 1540.59 Q1766.29 1540.59 1764.02 1540.22 Q1761.78 1539.85 1759.37 1539.11 L1759.37 1534.41 Q1761.45 1535.54 1763.68 1536.1 Q1765.9 1536.66 1768.38 1536.66 Q1772.38 1536.66 1774.72 1534.55 Q1777.06 1532.44 1777.06 1528.83 Q1777.06 1525.22 1774.72 1523.11 Q1772.38 1521.01 1768.38 1521.01 Q1766.5 1521.01 1764.63 1521.42 Q1762.77 1521.84 1760.83 1522.72 L1760.83 1505.36 Z" fill="#000000" fill-rule="evenodd" fill-opacity="1" /><path clip-path="url(#clip090)" d="M 0 0 M1796.8 1508.44 Q1793.19 1508.44 1791.36 1512 Q1789.56 1515.55 1789.56 1522.67 Q1789.56 1529.78 1791.36 1533.35 Q1793.19 1536.89 1796.8 1536.89 Q1800.44 1536.89 1802.24 1533.35 Q1804.07 1529.78 1804.07 1522.67 Q1804.07 1515.55 1802.24 1512 Q1800.44 1508.44 1796.8 1508.44 M1796.8 1504.73 Q1802.61 1504.73 1805.67 1509.34 Q1808.75 1513.92 1808.75 1522.67 Q1808.75 1531.4 1805.67 1536.01 Q1802.61 1540.59 1796.8 1540.59 Q1790.99 1540.59 1787.91 1536.01 Q1784.86 1531.4 1784.86 1522.67 Q1784.86 1513.92 1787.91 1509.34 Q1790.99 1504.73 1796.8 1504.73 Z" fill="#000000" fill-rule="evenodd" fill-opacity="1" /><path clip-path="url(#clip090)" d="M 0 0 M2258.44 1535.98 L2274.76 1535.98 L2274.76 1539.92 L2252.82 1539.92 L2252.82 1535.98 Q2255.48 1533.23 2260.06 1528.6 Q2264.67 1523.95 2265.85 1522.61 Q2268.1 1520.08 2268.98 1518.35 Q2269.88 1516.59 2269.88 1514.9 Q2269.88 1512.14 2267.93 1510.41 Q2266.01 1508.67 2262.91 1508.67 Q2260.71 1508.67 2258.26 1509.43 Q2255.83 1510.2 2253.05 1511.75 L2253.05 1507.03 Q2255.87 1505.89 2258.33 1505.31 Q2260.78 1504.73 2262.82 1504.73 Q2268.19 1504.73 2271.38 1507.42 Q2274.58 1510.11 2274.58 1514.6 Q2274.58 1516.73 2273.77 1518.65 Q2272.98 1520.54 2270.87 1523.14 Q2270.29 1523.81 2267.19 1527.03 Q2264.09 1530.22 2258.44 1535.98 Z" fill="#000000" fill-rule="evenodd" fill-opacity="1" /><path clip-path="url(#clip090)" d="M 0 0 M2289.83 1508.44 Q2286.22 1508.44 2284.39 1512 Q2282.59 1515.55 2282.59 1522.67 Q2282.59 1529.78 2284.39 1533.35 Q2286.22 1536.89 2289.83 1536.89 Q2293.47 1536.89 2295.27 1533.35 Q2297.1 1529.78 2297.1 1522.67 Q2297.1 1515.55 2295.27 1512 Q2293.47 1508.44 2289.83 1508.44 M2289.83 1504.73 Q2295.64 1504.73 2298.7 1509.34 Q2301.78 1513.92 2301.78 1522.67 Q2301.78 1531.4 2298.7 1536.01 Q2295.64 1540.59 2289.83 1540.59 Q2284.02 1540.59 2280.94 1536.01 Q2277.89 1531.4 2277.89 1522.67 Q2277.89 1513.92 2280.94 1509.34 Q2284.02 1504.73 2289.83 1504.73 Z" fill="#000000" fill-rule="evenodd" fill-opacity="1" /><path clip-path="url(#clip090)" d="M 0 0 M2316.85 1508.44 Q2313.23 1508.44 2311.41 1512 Q2309.6 1515.55 2309.6 1522.67 Q2309.6 1529.78 2311.41 1533.35 Q2313.23 1536.89 2316.85 1536.89 Q2320.48 1536.89 2322.28 1533.35 Q2324.11 1529.78 2324.11 1522.67 Q2324.11 1515.55 2322.28 1512 Q2320.48 1508.44 2316.85 1508.44 M2316.85 1504.73 Q2322.66 1504.73 2325.71 1509.34 Q2328.79 1513.92 2328.79 1522.67 Q2328.79 1531.4 2325.71 1536.01 Q2322.66 1540.59 2316.85 1540.59 Q2311.03 1540.59 2307.96 1536.01 Q2304.9 1531.4 2304.9 1522.67 Q2304.9 1513.92 2307.96 1509.34 Q2311.03 1504.73 2316.85 1504.73 Z" fill="#000000" fill-rule="evenodd" fill-opacity="1" /><path clip-path="url(#clip090)" d="M 0 0 M127.83 1431.51 Q124.219 1431.51 122.39 1435.08 Q120.584 1438.62 120.584 1445.75 Q120.584 1452.86 122.39 1456.42 Q124.219 1459.96 127.83 1459.96 Q131.464 1459.96 133.27 1456.42 Q135.098 1452.86 135.098 1445.75 Q135.098 1438.62 133.27 1435.08 Q131.464 1431.51 127.83 1431.51 M127.83 1427.81 Q133.64 1427.81 136.695 1432.42 Q139.774 1437 139.774 1445.75 Q139.774 1454.48 136.695 1459.08 Q133.64 1463.67 127.83 1463.67 Q122.02 1463.67 118.941 1459.08 Q115.885 1454.48 115.885 1445.75 Q115.885 1437 118.941 1432.42 Q122.02 1427.81 127.83 1427.81 Z" fill="#000000" fill-rule="evenodd" fill-opacity="1" /><path clip-path="url(#clip090)" d="M 0 0 M65.8393 1070.57 L73.4782 1070.57 L73.4782 1044.2 L65.168 1045.87 L65.168 1041.61 L73.4319 1039.95 L78.1078 1039.95 L78.1078 1070.57 L85.7466 1070.57 L85.7466 1074.51 L65.8393 1074.51 L65.8393 1070.57 Z" fill="#000000" fill-rule="evenodd" fill-opacity="1" /><path clip-path="url(#clip090)" d="M 0 0 M100.816 1043.02 Q97.2049 1043.02 95.3762 1046.59 Q93.5707 1050.13 93.5707 1057.26 Q93.5707 1064.37 95.3762 1067.93 Q97.2049 1071.47 100.816 1071.47 Q104.45 1071.47 106.256 1067.93 Q108.084 1064.37 108.084 1057.26 Q108.084 1050.13 106.256 1046.59 Q104.45 1043.02 100.816 1043.02 M100.816 1039.32 Q106.626 1039.32 109.682 1043.93 Q112.76 1048.51 112.76 1057.26 Q112.76 1065.99 109.682 1070.59 Q106.626 1075.18 100.816 1075.18 Q95.0058 1075.18 91.9272 1070.59 Q88.8716 1065.99 88.8716 1057.26 Q88.8716 1048.51 91.9272 1043.93 Q95.0058 1039.32 100.816 1039.32 Z" fill="#000000" fill-rule="evenodd" fill-opacity="1" /><path clip-path="url(#clip090)" d="M 0 0 M127.83 1043.02 Q124.219 1043.02 122.39 1046.59 Q120.584 1050.13 120.584 1057.26 Q120.584 1064.37 122.39 1067.93 Q124.219 1071.47 127.83 1071.47 Q131.464 1071.47 133.27 1067.93 Q135.098 1064.37 135.098 1057.26 Q135.098 1050.13 133.27 1046.59 Q131.464 1043.02 127.83 1043.02 M127.83 1039.32 Q133.64 1039.32 136.695 1043.93 Q139.774 1048.51 139.774 1057.26 Q139.774 1065.99 136.695 1070.59 Q133.64 1075.18 127.83 1075.18 Q122.02 1075.18 118.941 1070.59 Q115.885 1065.99 115.885 1057.26 Q115.885 1048.51 118.941 1043.93 Q122.02 1039.32 127.83 1039.32 Z" fill="#000000" fill-rule="evenodd" fill-opacity="1" /><path clip-path="url(#clip090)" d="M 0 0 M69.4273 682.079 L85.7466 682.079 L85.7466 686.014 L63.8023 686.014 L63.8023 682.079 Q66.4643 679.325 71.0476 674.695 Q75.6541 670.042 76.8346 668.7 Q79.08 666.177 79.9596 664.44 Q80.8624 662.681 80.8624 660.991 Q80.8624 658.237 78.918 656.501 Q76.9967 654.765 73.8948 654.765 Q71.6958 654.765 69.2421 655.528 Q66.8115 656.292 64.0338 657.843 L64.0338 653.121 Q66.8578 651.987 69.3115 651.408 Q71.7652 650.829 73.8023 650.829 Q79.1726 650.829 82.367 653.515 Q85.5614 656.2 85.5614 660.69 Q85.5614 662.82 84.7513 664.741 Q83.9642 666.639 81.8578 669.232 Q81.2791 669.903 78.1772 673.121 Q75.0754 676.315 69.4273 682.079 Z" fill="#000000" fill-rule="evenodd" fill-opacity="1" /><path clip-path="url(#clip090)" d="M 0 0 M100.816 654.533 Q97.2049 654.533 95.3762 658.098 Q93.5707 661.639 93.5707 668.769 Q93.5707 675.876 95.3762 679.44 Q97.2049 682.982 100.816 682.982 Q104.45 682.982 106.256 679.44 Q108.084 675.876 108.084 668.769 Q108.084 661.639 106.256 658.098 Q104.45 654.533 100.816 654.533 M100.816 650.829 Q106.626 650.829 109.682 655.436 Q112.76 660.019 112.76 668.769 Q112.76 677.496 109.682 682.102 Q106.626 686.686 100.816 686.686 Q95.0058 686.686 91.9272 682.102 Q88.8716 677.496 88.8716 668.769 Q88.8716 660.019 91.9272 655.436 Q95.0058 650.829 100.816 650.829 Z" fill="#000000" fill-rule="evenodd" fill-opacity="1" /><path clip-path="url(#clip090)" d="M 0 0 M127.83 654.533 Q124.219 654.533 122.39 658.098 Q120.584 661.639 120.584 668.769 Q120.584 675.876 122.39 679.44 Q124.219 682.982 127.83 682.982 Q131.464 682.982 133.27 679.44 Q135.098 675.876 135.098 668.769 Q135.098 661.639 133.27 658.098 Q131.464 654.533 127.83 654.533 M127.83 650.829 Q133.64 650.829 136.695 655.436 Q139.774 660.019 139.774 668.769 Q139.774 677.496 136.695 682.102 Q133.64 686.686 127.83 686.686 Q122.02 686.686 118.941 682.102 Q115.885 677.496 115.885 668.769 Q115.885 660.019 118.941 655.436 Q122.02 650.829 127.83 650.829 Z" fill="#000000" fill-rule="evenodd" fill-opacity="1" /><path clip-path="url(#clip090)" d="M 0 0 M78.617 278.89 Q81.9735 279.607 83.8485 281.876 Q85.7466 284.144 85.7466 287.477 Q85.7466 292.593 82.2281 295.394 Q78.7096 298.195 72.2282 298.195 Q70.0523 298.195 67.7375 297.755 Q65.4458 297.339 62.9921 296.482 L62.9921 291.968 Q64.9366 293.102 67.2514 293.681 Q69.5662 294.26 72.0893 294.26 Q76.4874 294.26 78.7791 292.524 Q81.0939 290.788 81.0939 287.477 Q81.0939 284.422 78.9411 282.709 Q76.8115 280.973 72.9921 280.973 L68.9643 280.973 L68.9643 277.13 L73.1773 277.13 Q76.6263 277.13 78.455 275.765 Q80.2837 274.376 80.2837 271.783 Q80.2837 269.121 78.3856 267.709 Q76.5106 266.274 72.9921 266.274 Q71.0708 266.274 68.8717 266.691 Q66.6727 267.107 64.0338 267.987 L64.0338 263.82 Q66.6958 263.079 69.0106 262.709 Q71.3486 262.339 73.4087 262.339 Q78.7328 262.339 81.8346 264.769 Q84.9365 267.177 84.9365 271.297 Q84.9365 274.167 83.2929 276.158 Q81.6494 278.126 78.617 278.89 Z" fill="#000000" fill-rule="evenodd" fill-opacity="1" /><path clip-path="url(#clip090)" d="M 0 0 M100.816 266.042 Q97.2049 266.042 95.3762 269.607 Q93.5707 273.149 93.5707 280.278 Q93.5707 287.385 95.3762 290.95 Q97.2049 294.491 100.816 294.491 Q104.45 294.491 106.256 290.95 Q108.084 287.385 108.084 280.278 Q108.084 273.149 106.256 269.607 Q104.45 266.042 100.816 266.042 M100.816 262.339 Q106.626 262.339 109.682 266.945 Q112.76 271.528 112.76 280.278 Q112.76 289.005 109.682 293.612 Q106.626 298.195 100.816 298.195 Q95.0058 298.195 91.9272 293.612 Q88.8716 289.005 88.8716 280.278 Q88.8716 271.528 91.9272 266.945 Q95.0058 262.339 100.816 262.339 Z" fill="#000000" fill-rule="evenodd" fill-opacity="1" /><path clip-path="url(#clip090)" d="M 0 0 M127.83 266.042 Q124.219 266.042 122.39 269.607 Q120.584 273.149 120.584 280.278 Q120.584 287.385 122.39 290.95 Q124.219 294.491 127.83 294.491 Q131.464 294.491 133.27 290.95 Q135.098 287.385 135.098 280.278 Q135.098 273.149 133.27 269.607 Q131.464 266.042 127.83 266.042 M127.83 262.339 Q133.64 262.339 136.695 266.945 Q139.774 271.528 139.774 280.278 Q139.774 289.005 136.695 293.612 Q133.64 298.195 127.83 298.195 Q122.02 298.195 118.941 293.612 Q115.885 289.005 115.885 280.278 Q115.885 271.528 118.941 266.945 Q122.02 262.339 127.83 262.339 Z" fill="#000000" fill-rule="evenodd" fill-opacity="1" /><polyline clip-path="url(#clip092)" style="stroke:#009af9; stroke-width:4; stroke-opacity:1; fill:none" points="
  225.726,1445.72 236.104,1438.59 246.481,1416.51 256.858,1396.35 267.236,1393.05 277.613,1368.7 287.99,1352.79 298.367,1369.46 308.745,1369.98 319.122,1347.36 
  329.499,1344.04 339.876,1357.24 350.254,1350.49 360.631,1334.55 371.008,1313.89 381.386,1275.17 391.763,1268.79 402.14,1273.4 412.517,1272.57 422.895,1244.28 
  433.272,1228.8 443.649,1226.88 454.026,1227.33 464.404,1218.41 474.781,1240.9 485.158,1232.55 495.536,1226.58 505.913,1211.37 516.29,1217.89 526.667,1228.68 
  537.045,1221.14 547.422,1240.71 557.799,1247.47 568.176,1245.83 578.554,1233.68 588.931,1231.83 599.308,1205.66 609.686,1191.78 620.063,1179.07 630.44,1181.17 
  640.817,1161.65 651.195,1177.75 661.572,1190.49 671.949,1187.64 682.326,1167.44 692.704,1149.03 703.081,1134.4 713.458,1156.48 723.835,1131.8 734.213,1130.89 
  744.59,1133.5 754.967,1121.19 765.345,1099.37 775.722,1094.49 786.099,1088.52 796.476,1066.09 806.854,1048.45 817.231,1035.29 827.608,1006.05 837.985,973.021 
  848.363,961.381 858.74,982.525 869.117,989.627 879.495,985.219 889.872,992.793 900.249,987.556 910.626,971.138 921.004,1013.18 931.381,1012.45 941.758,1004.04 
  952.135,964.836 962.513,954.814 972.89,948.818 983.267,935.138 993.645,933.451 1004.02,897.028 1014.4,900.243 1024.78,932.216 1035.15,918.233 1045.53,941.691 
  1055.91,919.959 1066.29,930.636 1076.66,946.761 1087.04,909.534 1097.42,913.53 1107.79,900.052 1118.17,916.268 1128.55,897.441 1138.93,883.536 1149.3,856.2 
  1159.68,824.047 1170.06,815.301 1180.44,787.576 1190.81,772.073 1201.19,758.693 1211.57,749.053 1221.94,743.763 1232.32,757.709 1242.7,740.212 1253.08,745.675 
  1263.45,730.241 1273.83,720.489 1284.21,747.656 1294.59,748.474 1304.96,762.078 1315.34,779.833 1325.72,757.194 1336.09,765.55 1346.47,732.562 1356.85,734.767 
  1367.23,732.061 1377.6,722.623 1387.98,717.27 1398.36,674.833 1408.74,684.338 1419.11,670.512 1429.49,672.006 1439.87,694.555 1450.24,676.453 1460.62,681.701 
  1471,693.657 1481.38,670.859 1491.75,672.224 1502.13,657.562 1512.51,640.97 1522.89,641.617 1533.26,660.386 1543.64,658.799 1554.02,673.48 1564.39,639.238 
  1574.77,651.202 1585.15,628.199 1595.53,629.255 1605.9,614.23 1616.28,627.119 1626.66,622.815 1637.04,595.648 1647.41,627.595 1657.79,610.267 1668.17,587.726 
  1678.54,548.893 1688.92,520.35 1699.3,532.535 1709.68,555.61 1720.05,517.915 1730.43,503.464 1740.81,496.872 1751.19,479.859 1761.56,453.605 1771.94,460.21 
  1782.32,464.417 1792.69,475.2 1803.07,499.039 1813.45,491.102 1823.83,479.397 1834.2,476.743 1844.58,459.029 1854.96,460.095 1865.34,444.382 1875.71,424.16 
  1886.09,417.208 1896.47,404.077 1906.84,392.108 1917.22,395.288 1927.6,382.358 1937.98,395.538 1948.35,399.399 1958.73,395.96 1969.11,394.159 1979.49,393.759 
  1989.86,379.957 2000.24,394.955 2010.62,355.437 2020.99,339.952 2031.37,320.843 2041.75,303.055 2052.13,284.026 2062.5,276.341 2072.88,257.062 2083.26,259.306 
  2093.64,238.498 2104.01,234.993 2114.39,216.786 2124.77,193.809 2135.14,197.91 2145.52,176.175 2155.9,142.826 2166.28,152.981 2176.65,137.207 2187.03,116.231 
  2197.41,114.925 2207.79,111.265 2218.16,102.636 2228.54,92.3463 2238.92,87.9763 2249.29,111.094 2259.67,108.747 2270.05,104.365 2280.43,104.77 2290.8,125.444 
  
  "/>
<path clip-path="url(#clip090)" d="
M1989.74 251.724 L2280.76 251.724 L2280.76 130.764 L1989.74 130.764  Z
  " fill="#ffffff" fill-rule="evenodd" fill-opacity="1"/>
<polyline clip-path="url(#clip090)" style="stroke:#000000; stroke-width:4; stroke-opacity:1; fill:none" points="
  1989.74,251.724 2280.76,251.724 2280.76,130.764 1989.74,130.764 1989.74,251.724 
  "/>
<polyline clip-path="url(#clip090)" style="stroke:#009af9; stroke-width:4; stroke-opacity:1; fill:none" points="
  2013.74,191.244 2157.74,191.244 
  "/>
<path clip-path="url(#clip090)" d="M 0 0 M2195.58 210.931 Q2193.77 215.561 2192.06 216.973 Q2190.35 218.385 2187.48 218.385 L2184.08 218.385 L2184.08 214.82 L2186.58 214.82 Q2188.33 214.82 2189.31 213.987 Q2190.28 213.154 2191.46 210.052 L2192.22 208.107 L2181.74 182.598 L2186.25 182.598 L2194.35 202.876 L2202.46 182.598 L2206.97 182.598 L2195.58 210.931 Z" fill="#000000" fill-rule="evenodd" fill-opacity="1" /><path clip-path="url(#clip090)" d="M 0 0 M2212.85 204.589 L2220.49 204.589 L2220.49 178.223 L2212.18 179.89 L2212.18 175.631 L2220.44 173.964 L2225.12 173.964 L2225.12 204.589 L2232.76 204.589 L2232.76 208.524 L2212.85 208.524 L2212.85 204.589 Z" fill="#000000" fill-rule="evenodd" fill-opacity="1" /></svg>
